<svg width="176" height="198" viewBox="0 0 176 198" fill="none" xmlns="http://www.w3.org/2000/svg">
<g clip-path="url(#clip0_73_23465)">
<path d="M97.6719 124.866C102.893 122.128 107.185 117.904 110.005 112.727C112.825 107.55 114.046 101.654 113.515 95.7824C112.983 89.9113 110.722 84.3297 107.019 79.7435C103.315 75.1573 98.3338 71.7725 92.7061 70.0172C87.0784 68.2618 81.0565 68.2148 75.4021 69.8821C69.7477 71.5494 64.7147 74.856 60.9396 79.3839C57.1646 83.9117 54.817 89.4574 54.1939 95.3195C53.5708 101.182 54.7001 107.097 57.439 112.317C61.1178 119.309 67.4192 124.556 74.9613 126.909C82.5034 129.261 90.6706 128.526 97.6719 124.866ZM71.1854 74.393C75.9482 71.8936 81.3452 70.8627 86.6939 71.4306C92.0426 71.9986 97.1028 74.1398 101.235 77.5836C105.366 81.0275 108.384 85.6191 109.906 90.7781C111.428 95.937 111.386 101.431 109.786 106.566C108.185 111.702 105.098 116.247 100.914 119.627C96.7303 123.008 91.6381 125.072 86.2813 125.558C80.9246 126.044 75.544 124.931 70.8198 122.359C66.0957 119.788 62.2402 115.873 59.741 111.11C56.3979 104.722 55.7252 97.2684 57.8707 90.385C60.0162 83.5015 64.8047 77.7503 71.1854 74.393Z" fill="#84EDDB"/>
<path d="M103.147 135.296C123.447 124.643 131.294 99.4688 120.64 79.1694C109.987 58.87 84.8148 51.0252 64.5154 61.6787C44.216 72.3321 36.3688 97.5061 47.0223 117.805C57.6757 138.105 82.8435 145.938 103.147 135.296ZM65.0284 62.6606C84.7774 52.2972 109.272 59.9211 119.651 79.6916C130.03 99.4622 122.39 123.935 102.62 134.314C82.8491 144.693 58.3762 137.053 47.9973 117.283C37.6185 97.5123 45.2856 73.0377 65.0284 62.6606Z" fill="#84EDDB" stroke="#84EDDB" stroke-width="0.998994"/>
<g clip-path="url(#clip1_73_23465)">
<path d="M61.4629 99.0938L67.073 96.3544C71.5544 94.1662 75.364 95.6068 77.5843 100.161C79.9996 105.114 77.4157 108.838 74.1722 110.422L68.368 113.256L68.0871 112.68L69.0468 112.212C69.7229 111.882 69.7211 111.634 68.7625 109.668L64.3804 100.68C63.7219 99.3296 63.4054 98.8679 62.7654 99.1804L61.7475 99.6774L61.4629 99.0938ZM71.9817 110.779L73.6588 109.96C77.3689 108.148 76.6867 104.395 75.1464 101.235C73.5082 97.8754 70.9908 95.1678 67.2062 97.0157L65.6435 97.7788L71.9817 110.779Z" fill="#84EDDB"/>
<path d="M80.8931 106.539L82.055 105.972C82.729 105.643 82.6249 105.197 82.2321 104.391L79.5601 98.9107C78.7375 97.2235 78.3938 96.8935 77.8712 97.1487L76.9566 97.5953L76.6728 97.0131L78.7773 95.9855C79.2296 95.756 79.6249 95.4275 79.9356 95.0229L81.0806 97.3713L81.1182 97.3529C81.0993 95.8952 81.4023 94.3067 82.7923 93.628C82.9944 93.502 83.2207 93.4201 83.4571 93.3874C83.6936 93.3548 83.9352 93.3721 84.167 93.4382C84.3988 93.5043 84.6159 93.6178 84.8049 93.7718C84.9938 93.9257 85.1506 94.1168 85.2655 94.3332C85.3691 94.5002 85.4357 94.6874 85.4608 94.8818C85.4859 95.0761 85.4687 95.2727 85.4106 95.4576C85.3525 95.6426 85.2548 95.8113 85.1244 95.9518C84.9941 96.0923 84.8344 96.2012 84.6565 96.2706C84.1147 96.5352 83.427 96.5492 83.1424 95.9655C83.0662 95.7767 83.0048 95.5824 82.9587 95.3844C82.8894 95.2423 82.6302 95.3481 82.4944 95.4144C81.3133 95.9911 81.3347 97.6452 83.1067 101.279L84.1639 103.448C84.6048 104.352 84.9361 104.565 85.517 104.281L86.6066 103.749L86.8904 104.331L81.177 107.121L80.8931 106.539Z" fill="#84EDDB"/>
<path d="M88.7167 100.603C88.9537 100.487 89.2207 100.446 89.4839 100.485C89.7471 100.525 89.9947 100.642 90.1953 100.823C90.396 101.005 90.5407 101.241 90.6111 101.503C90.6815 101.765 90.6745 102.04 90.591 102.295C90.5075 102.549 90.3511 102.771 90.1418 102.932C89.9324 103.093 89.6795 103.186 89.4149 103.199C89.1504 103.213 88.8862 103.146 88.6557 103.007C88.4252 102.868 88.2388 102.664 88.1201 102.419C87.9748 102.091 87.9555 101.721 88.0661 101.384C88.1767 101.047 88.4091 100.768 88.7167 100.603Z" fill="#84EDDB"/>
<path d="M98.1634 85.6288L97.4872 85.9589C97.0145 85.0623 96.217 84.3844 95.2686 84.0729C94.3203 83.7614 93.2978 83.8415 92.424 84.2959C88.9096 86.0119 90.3528 90.4023 91.7302 93.2272C93.1842 96.2095 95.53 99.5438 98.8431 98.0503C99.2213 97.9089 99.5623 97.6836 99.8417 97.3904C100.121 97.0972 100.332 96.7434 100.46 96.3541C100.588 95.9648 100.629 95.5497 100.58 95.1383C100.532 94.727 100.395 94.3296 100.18 93.9745L99.428 92.4324C99.3688 92.2842 99.2801 92.1497 99.1674 92.0374C99.0548 91.9251 98.9208 91.8376 98.7742 91.7805C98.6275 91.7235 98.4714 91.6981 98.3159 91.7061C98.1604 91.7142 98.0091 91.7554 97.8716 91.8271L96.2056 92.6406L95.9247 92.0645L102.236 88.9827L102.517 89.5588L101.705 89.9553C101.086 90.2577 101.132 90.7205 101.617 91.7154L103.802 96.1956L103.257 96.4616C103.084 96.2496 102.87 96.0566 102.407 96.283C101.768 96.5948 101.172 97.6254 99.1074 98.6335C94.4709 100.897 91.2972 98.4087 89.2136 94.1352C87.3138 90.2387 87.9728 85.7533 91.9877 83.7928C92.6964 83.4341 93.4594 83.1943 94.2479 83.0825C94.6957 83.0569 95.1373 82.974 95.5624 82.8358C95.7743 82.7324 95.7639 82.4655 95.6386 82.1579L96.3147 81.8277L98.1634 85.6288Z" fill="#84EDDB"/>
<path d="M101.601 100.797L75.041 113.766L75.4775 114.661L102.038 101.692L101.601 100.797Z" fill="#84EDDB"/>
</g>
<path d="M111.35 99.4681C111.309 99.3694 111.294 99.2619 111.306 99.1557C111.318 99.0494 111.356 98.9479 111.418 98.8607C111.48 98.7734 111.563 98.7034 111.659 98.657C111.756 98.6106 111.862 98.5895 111.969 98.5956C112.69 98.6399 114.773 98.8754 115.466 98.9445C118.64 99.26 121.635 99.5587 126.65 97.4633C131.664 95.3678 133.555 93.0223 135.556 90.5427C137.558 88.0632 139.654 85.4724 144.961 83.2538C150.268 81.0352 153.565 81.3644 156.754 81.6801L157.435 81.7496C157.549 81.7591 157.657 81.7997 157.749 81.867C157.841 81.9342 157.912 82.0255 157.956 82.1307C157.997 82.2312 158.012 82.3407 157.999 82.4486C157.985 82.5565 157.944 82.6592 157.88 82.7465C157.815 82.8339 157.729 82.9031 157.629 82.9474C157.53 82.9916 157.421 83.0095 157.313 82.9992L156.621 82.9407C153.449 82.6235 150.454 82.3247 145.448 84.4322C140.442 86.5396 138.543 88.8732 136.539 91.3503C134.536 93.8275 132.444 96.4231 127.137 98.6417C121.829 100.86 118.53 100.533 115.344 100.215C114.658 100.149 112.591 99.9165 111.899 99.8728C111.781 99.8664 111.667 99.8268 111.571 99.7587C111.474 99.6906 111.399 99.5966 111.354 99.4876L111.35 99.4681Z" fill="#84EDDB"/>
<path d="M111.046 93.2267C111.005 93.128 110.99 93.0205 111.002 92.9142C111.013 92.808 111.052 92.7065 111.114 92.6192C111.176 92.532 111.259 92.4619 111.355 92.4155C111.451 92.3692 111.558 92.348 111.665 92.3541C112.386 92.3985 112.054 92.3682 112.744 92.439C115.918 92.7545 118.913 93.0533 123.928 90.9578C128.942 88.8623 130.833 86.5168 132.838 84.0379C134.844 81.5591 136.932 78.9669 142.239 76.7483C147.546 74.5297 150.845 74.8571 154.032 75.1746L154.718 75.2407C154.831 75.2511 154.939 75.2923 155.03 75.3598C155.122 75.4272 155.193 75.5184 155.236 75.6235C155.278 75.724 155.292 75.8335 155.279 75.9414C155.266 76.0493 155.225 76.1519 155.16 76.2393C155.095 76.3267 155.009 76.3959 154.91 76.4401C154.81 76.4844 154.701 76.5023 154.593 76.492L153.909 76.4242C150.735 76.1088 147.74 75.81 142.734 77.9174C137.728 80.0248 135.828 82.3584 133.825 84.8356C131.822 87.3127 129.73 89.9083 124.422 92.1269C119.115 94.3455 115.816 94.0181 112.63 93.7006C111.943 93.6346 112.295 93.6658 111.602 93.6221C111.485 93.6156 111.371 93.5761 111.274 93.508C111.178 93.4398 111.103 93.3459 111.057 93.2369L111.046 93.2267Z" fill="#84EDDB"/>
<path d="M110.4 86.8078C110.359 86.7091 110.343 86.6015 110.355 86.4953C110.367 86.389 110.406 86.2875 110.467 86.2003C110.529 86.1131 110.612 86.043 110.709 85.9966C110.805 85.9503 110.911 85.9291 111.018 85.9352C111.74 85.9796 109.333 85.8602 110.025 85.9293C113.197 86.2464 116.192 86.5452 121.207 84.4498C126.221 82.3543 128.112 80.0087 130.118 77.5299C132.123 75.051 134.21 72.463 139.513 70.2437C144.816 68.0244 148.117 68.3543 151.304 68.6718L151.988 68.7395C152.1 68.7505 152.208 68.7922 152.299 68.8599C152.39 68.9277 152.461 69.019 152.503 69.1241C152.545 69.2246 152.559 69.3341 152.546 69.442C152.533 69.5499 152.492 69.6525 152.427 69.7399C152.362 69.8273 152.276 69.8965 152.177 69.9407C152.078 69.985 151.968 70.0028 151.86 69.9926L151.176 69.9248C148.004 69.6076 145.007 69.3106 140.003 71.4163C135 73.522 133.098 75.8573 131.092 78.3362C129.087 80.815 126.999 83.4072 121.69 85.6275C116.38 87.8478 113.086 87.5169 109.897 87.2012C109.21 87.1351 111.639 87.2538 110.944 87.2118C110.826 87.2046 110.713 87.1648 110.617 87.0968C110.52 87.0287 110.445 86.9352 110.399 86.8266L110.4 86.8078Z" fill="#84EDDB"/>
<path d="M104.752 80.0963C104.71 79.9976 104.695 79.8901 104.707 79.7839C104.719 79.6776 104.757 79.5761 104.819 79.4889C104.881 79.4017 104.964 79.3316 105.06 79.2852C105.157 79.2388 105.263 79.2177 105.37 79.2238C106.094 79.2664 104.73 79.1569 105.422 79.2261C106.004 79.2842 105.389 79.1889 109.045 79.5854C111.643 79.7737 114.391 79.6594 118.487 77.948C123.501 75.8525 125.392 73.5069 127.398 71.0281C129.403 68.5492 131.491 65.957 136.8 63.7367C142.11 61.5164 145.404 61.8473 148.591 62.1648L149.275 62.2325C149.388 62.243 149.496 62.2842 149.587 62.3517C149.679 62.4191 149.75 62.5103 149.793 62.6154C149.835 62.7156 149.85 62.8249 149.837 62.9327C149.824 63.0405 149.783 63.1431 149.718 63.2304C149.654 63.3177 149.568 63.3868 149.468 63.4309C149.369 63.4751 149.26 63.4927 149.152 63.4821L148.466 63.4161C145.294 63.0989 142.299 62.8002 137.293 64.9076C132.287 67.015 130.388 69.3486 128.382 71.8275C126.376 74.3063 124.289 76.8985 118.979 79.1188C114.676 80.9185 111.696 81.042 109.023 80.8561C105.326 80.4585 105.908 80.5509 105.304 80.4911C105.998 80.5331 104.618 80.4209 105.304 80.4911C105.186 80.484 105.073 80.4441 104.976 80.3761C104.88 80.3081 104.804 80.2145 104.758 80.1059L104.752 80.0963Z" fill="#84EDDB"/>
<g clip-path="url(#clip2_73_23465)">
<path d="M50.9435 87.7854L50.3386 89.8337L52.5634 90.4921L52.1852 91.8032L46.7911 90.1989L47.1693 88.8878L49.2849 89.5114L49.8897 87.4631L47.7741 86.8395L48.1518 85.5235L53.55 87.1173L53.1722 88.4334L50.9435 87.7854Z" fill="#84EDDB"/>
<path d="M51.476 80.9876L50.5665 82.8534L51.592 83.3548L52.3959 81.7006L53.3473 82.1636L52.5434 83.8178L53.6582 84.3559L54.5622 82.4855L55.5505 82.9652L54.0444 86.0724L48.9762 83.6105L50.4877 80.5079L51.476 80.9876Z" fill="#84EDDB"/>
<path d="M57.2757 78.5814L56.0544 80.2958L56.6698 81.1438L55.835 82.3172L52.4249 77.3886L53.3491 76.0958L59.121 77.6991L58.2822 78.883L57.2757 78.5814ZM54.1204 77.6242L55.4028 79.3857L56.2065 78.2556L54.1204 77.6242Z" fill="#84EDDB"/>
<path d="M56.6548 72.2203L59.9257 75.4339L61.1832 74.1494L61.9393 74.8882L59.723 77.1564L55.6975 73.219L56.6548 72.2203Z" fill="#84EDDB"/>
<path d="M58.9086 70.0098L62.3573 67.3514L63.03 68.219L61.8474 69.1285L64.6156 72.7229L63.5266 73.5579L60.7589 69.9685L59.5813 70.8775L58.9086 70.0098Z" fill="#84EDDB"/>
<path d="M68.526 67.6476L66.6413 68.6445L67.7199 70.6977L66.5046 71.3181L63.8803 66.3343L65.0957 65.714L66.1462 67.6842L68.0358 66.6868L67.0072 64.7346L68.2226 64.1142L70.8468 69.098L69.6315 69.7184L68.526 67.6476Z" fill="#84EDDB"/>
<path d="M69.7679 63.396L71.2352 62.9328L72.9816 64.8565L73.3091 62.2806L74.7768 61.8224L74.0439 66.0043L74.6021 67.7799L73.2913 68.1927L72.7326 66.4122L69.7679 63.396Z" fill="#84EDDB"/>
<path d="M81.2556 66.6539C80.0473 66.7697 79.0574 66.2196 78.9338 65.0877L80.3896 64.9784C80.3958 65.067 80.4204 65.1534 80.462 65.232C80.5035 65.3106 80.561 65.3796 80.6308 65.4346C80.7007 65.4896 80.7812 65.5294 80.8673 65.5514C80.9535 65.5734 81.0432 65.5771 81.1309 65.5624C81.5303 65.5241 81.7722 65.3145 81.747 64.9994C81.6475 63.9609 78.9048 64.7327 78.7692 62.7403C78.6673 61.6768 79.5165 61.021 80.6917 60.9285C81.867 60.836 82.786 61.3828 82.9239 62.4529L81.4231 62.5665C81.4147 62.4851 81.39 62.4062 81.3503 62.3345C81.3106 62.2629 81.2569 62.2001 81.1923 62.1498C81.1277 62.0995 81.0535 62.0628 80.9744 62.0419C80.8952 62.021 80.8126 62.0163 80.7316 62.0281C80.6581 62.0226 80.5843 62.0333 80.5154 62.0595C80.4465 62.0857 80.3843 62.1268 80.3331 62.1799C80.2819 62.2329 80.243 62.2965 80.2192 62.3663C80.1953 62.436 80.1872 62.5102 80.1953 62.5834C80.2886 63.5571 83.0133 62.9129 83.1529 64.7891C83.2419 65.7178 82.5666 66.5585 81.2556 66.6539Z" fill="#84EDDB"/>
<path d="M85.9182 64.0873L85.6869 66.5634L84.3194 66.4375L84.8465 60.8443L86.2144 60.9752L85.9817 63.4363L88.0854 61.1486L89.6918 61.2969L87.2603 63.8428L89.243 66.9179L87.5752 66.7603L85.9182 64.0873Z" fill="#84EDDB"/>
<path d="M91.3239 61.6675L92.6632 61.9724L91.4114 67.4688L90.0771 67.1634L91.3239 61.6675Z" fill="#84EDDB"/>
<path d="M99.3087 64.2123L97.2946 69.4845L96.0135 68.9976L95.1198 64.9313L93.8842 68.1788L92.603 67.6919L94.6175 62.4248L95.8987 62.9116L96.7938 66.9929L98.0325 63.725L99.3087 64.2123Z" fill="#84EDDB"/>
</g>
<g clip-path="url(#clip3_73_23465)">
<path d="M114.078 115.112L115.195 113.122L113.05 111.902L113.775 110.634L118.995 113.618L118.269 114.886L116.244 113.715L115.128 115.705L117.155 116.881L116.43 118.148L111.21 115.164L111.936 113.897L114.078 115.112Z" fill="#84EDDB"/>
<path d="M108.896 119.681L110.34 117.982L109.767 117.024L110.763 115.861L113.909 121.408L112.823 122.679L106.857 120.437L107.864 119.261L108.896 119.681ZM112.146 120.989L110.954 119.002L109.997 120.127L112.146 120.989Z" fill="#84EDDB"/>
<path d="M105.752 124.147L106.448 123.572L105.084 121.911L106.207 120.984L110.018 125.613L108.192 127.114C107.056 128.05 105.963 127.872 105.262 127.022C104.626 126.251 104.563 125.11 105.752 124.147ZM106.57 124.972C106.123 125.343 106.114 125.723 106.408 126.08C106.701 126.437 107.081 126.503 107.527 126.133L108.142 125.628L107.184 124.468L106.57 124.972Z" fill="#84EDDB"/>
<path d="M100.925 127.443L101.706 126.991L100.635 125.142L101.894 124.406L104.91 129.585L102.865 130.777C101.602 131.515 100.571 131.158 99.9722 130.229C99.4869 129.349 99.6049 128.212 100.925 127.443ZM101.605 128.389C101.102 128.682 101.035 129.061 101.27 129.456C101.506 129.85 101.863 129.981 102.362 129.692L103.048 129.288L102.289 127.993L101.605 128.389Z" fill="#84EDDB"/>
<path d="M99.6345 132.532L98.1011 133.108L96.1265 131.168L95.9364 133.926L94.403 134.502L94.9274 130.017L94.2275 128.164L95.5942 127.645L96.2942 129.498L99.6345 132.532Z" fill="#84EDDB"/>
<path d="M87.2558 129.763C88.5271 129.578 89.6161 130.095 89.8139 131.288L88.2758 131.493C88.2628 131.399 88.2306 131.308 88.1812 131.227C88.1318 131.146 88.0663 131.076 87.9887 131.021C87.9112 130.967 87.8232 130.928 87.7303 130.909C87.6373 130.89 87.5414 130.89 87.4484 130.909C87.0272 130.965 86.7807 131.212 86.8286 131.562C86.9731 132.663 89.8686 131.678 90.1236 133.787C90.2707 134.911 89.4288 135.664 88.1904 135.821C86.9521 135.978 85.9401 135.463 85.7308 134.34L87.2971 134.13C87.3111 134.216 87.3423 134.298 87.3888 134.372C87.4353 134.445 87.4962 134.508 87.5677 134.557C87.6392 134.607 87.72 134.641 87.8051 134.659C87.8902 134.676 87.978 134.676 88.0631 134.659C88.1417 134.661 88.2197 134.645 88.2916 134.613C88.3634 134.582 88.4274 134.534 88.4789 134.475C88.5305 134.416 88.5683 134.346 88.5896 134.27C88.611 134.195 88.6154 134.115 88.6026 134.038C88.4658 133.008 85.5916 133.859 85.3304 131.868C85.2005 130.879 85.8834 129.969 87.2558 129.763Z" fill="#84EDDB"/>
<path d="M82.4546 132.765L82.5631 130.117L84.0173 130.176L83.7777 136.166L82.3236 136.106L82.436 133.494L80.3337 136.044L78.6192 135.974L81.0591 133.131L78.7744 129.982L80.5614 130.055L82.4546 132.765Z" fill="#84EDDB"/>
<path d="M76.8401 135.637L75.4052 135.381L76.4221 129.474L77.857 129.73L76.8401 135.637Z" fill="#84EDDB"/>
<path d="M68.2044 133.394L70.0206 127.683L71.4127 128.119L72.6219 132.387L73.7386 128.86L75.1294 129.284L73.3162 135L71.9211 134.56L70.7064 130.263L69.5837 133.8L68.2044 133.394Z" fill="#84EDDB"/>
</g>
</g>
<defs>
<clipPath id="clip0_73_23465">
<rect width="145.039" height="138.474" fill="white" transform="matrix(-0.812226 0.583343 0.583343 0.812226 118 0)"/>
</clipPath>
<clipPath id="clip1_73_23465">
<rect width="41.0766" height="20.4978" fill="white" transform="matrix(0.898597 -0.438775 0.438246 0.898855 61.3086 98.7734)"/>
</clipPath>
<clipPath id="clip2_73_23465">
<rect width="54.7574" height="28.0232" fill="white" transform="translate(44.3164 64.3984) rotate(-5.47538)"/>
</clipPath>
<clipPath id="clip3_73_23465">
<rect width="54.7488" height="23.8036" fill="white" transform="translate(64.8809 130.578) rotate(-36.6319)"/>
</clipPath>
</defs>
</svg>
