<svg width="44" height="44" viewBox="0 0 44 44" fill="none" xmlns="http://www.w3.org/2000/svg">
<circle cx="22" cy="22" r="22" fill="#EEEEEE"/>
<path d="M22.0001 12.3232C16.5339 12.3232 12.1001 15.6877 12.1001 19.8397C12.1001 22.5064 13.9377 24.8475 16.6941 26.1847L15.7611 29.5297C15.7462 29.5715 15.742 29.6161 15.7487 29.6598C15.7554 29.7035 15.7729 29.745 15.7997 29.7808C15.8265 29.8167 15.8618 29.8459 15.9027 29.866C15.9437 29.886 15.989 29.8964 16.0349 29.8962C16.0979 29.8937 16.1583 29.8718 16.2073 29.8338L20.2172 27.2295C20.8077 27.3117 21.4035 27.3534 22.0001 27.3543C27.4764 27.3543 31.9001 23.9917 31.9001 19.8397C31.9001 15.6877 27.4663 12.3232 22.0001 12.3232Z" fill="#444444"/>
</svg>
