<svg width="100" height="100" viewBox="0 0 100 100" fill="none" xmlns="http://www.w3.org/2000/svg">
<g clip-path="url(#clip0_230_2534)">
<path d="M61.4385 49.284L61.4308 49.2667C60.6927 47.6555 58.6271 47.258 57.3063 48.4263C53.8135 51.5248 49.3063 53.2358 44.6373 53.2358C39.9682 53.2358 35.461 51.5248 31.9682 48.4263C30.6474 47.2541 28.5789 47.6545 27.8437 49.2618L27.836 49.2792C27.6041 49.7811 27.5387 50.3441 27.6495 50.8858C27.7602 51.4275 28.0412 51.9197 28.4515 52.2903C32.9 56.2761 38.6639 58.4785 44.6368 58.4746C50.6097 58.4786 56.3737 56.2763 60.822 52.2903C61.2314 51.9201 61.512 51.4289 61.6229 50.8882C61.7338 50.3475 61.6692 49.7855 61.4385 49.284Z" fill="#ED73AA"/>
<path d="M69.3006 46.333H67.6875C66.7635 46.333 66.0145 47.082 66.0145 48.0059V64.9466C66.0145 65.8706 66.7635 66.6196 67.6875 66.6196H69.3006C70.2245 66.6196 70.9735 65.8706 70.9735 64.9466V48.0059C70.9735 47.082 70.2245 46.333 69.3006 46.333Z" fill="#3ABDE1"/>
<path d="M72.5056 40.7391C72.5056 41.5325 72.2703 42.3081 71.8295 42.9678C71.3887 43.6275 70.7622 44.1417 70.0292 44.4453C69.2962 44.749 68.4896 44.8284 67.7114 44.6736C66.9332 44.5188 66.2184 44.1368 65.6574 43.5757C65.0964 43.0147 64.7143 42.2999 64.5595 41.5217C64.4047 40.7436 64.4842 39.937 64.7878 39.204C65.0914 38.4709 65.6056 37.8444 66.2653 37.4036C66.925 36.9628 67.7006 36.7275 68.494 36.7275C69.5579 36.7278 70.5781 37.1505 71.3303 37.9028C72.0826 38.6551 72.5053 39.6753 72.5056 40.7391Z" fill="#3ABDE1"/>
<path d="M30.1004 55.7847L26.7448 63.117C26.4562 63.7411 26.4273 64.4543 26.6645 65.0997C26.9017 65.7451 27.3856 66.2698 28.0097 66.5584C28.6338 66.8471 29.3469 66.8759 29.9923 66.6387C30.6377 66.4015 31.1624 65.9177 31.4511 65.2936L34.3232 59.1479L34.9986 57.7133C33.3711 57.0464 31.8172 56.2126 30.3618 55.2251L30.1004 55.7847Z" fill="#3ABDE1"/>
<path d="M43.2205 40.1119C43.3406 39.8422 43.5363 39.613 43.7838 39.4521C44.0314 39.2911 44.3203 39.2053 44.6155 39.205H44.6204H44.6474C44.9427 39.2055 45.2316 39.2914 45.4793 39.4523C45.727 39.6132 45.9229 39.8422 46.0434 40.1119L51.0806 50.8885C52.7471 50.2442 54.308 49.3545 55.7115 48.2489L55.4308 47.6362L48.328 32.0849C48.0073 31.3856 47.4931 30.7929 46.8461 30.3767C46.1992 29.9606 45.4465 29.7384 44.6773 29.7366H44.6377H44.5982C43.8295 29.7392 43.0775 29.9617 42.4312 30.3778C41.7848 30.7939 41.271 31.3862 40.9503 32.0849L33.9817 47.3053L33.5494 48.2489C34.9531 49.3544 36.5139 50.2441 38.1804 50.8885L43.2205 40.1119Z" fill="#3ABDE1"/>
<path d="M58.9185 55.2251C57.4631 56.2123 55.9092 57.0458 54.2817 57.7123L54.3107 57.7741L57.8254 65.2936C58.1198 65.9083 58.6444 66.3822 59.2856 66.613C59.9269 66.8437 60.6332 66.8127 61.2518 66.5266C61.8703 66.2404 62.3513 65.7223 62.5906 65.0842C62.83 64.4461 62.8084 63.7394 62.5306 63.1171L58.9185 55.2251Z" fill="#3ABDE1"/>
<path d="M50.0173 0H50.0164C49.0722 0 48.3068 0.765414 48.3068 1.7096V8.21225C48.3068 9.15644 49.0722 9.92185 50.0164 9.92185H50.0173C50.9615 9.92185 51.7269 9.15644 51.7269 8.21225V1.7096C51.7269 0.765414 50.9615 0 50.0173 0Z" fill="#DADADA"/>
<path d="M72.6791 7.33281L69.4278 12.9643C68.9557 13.782 69.2359 14.8275 70.0536 15.2996L70.0544 15.3001C70.8721 15.7722 71.9176 15.492 72.3897 14.6744L75.6411 9.04289C76.1131 8.2252 75.833 7.17962 75.0153 6.70753L75.0145 6.70705C74.1968 6.23495 73.1512 6.51512 72.6791 7.33281Z" fill="#DADADA"/>
<path d="M90.9747 24.389L85.3432 27.6403C84.5255 28.1124 84.2454 29.158 84.7175 29.9757L84.718 29.9765C85.19 30.7942 86.2356 31.0744 87.0533 30.6023L92.6848 27.3509C93.5025 26.8788 93.7826 25.8333 93.3105 25.0156L93.31 25.0147C92.8379 24.1971 91.7924 23.9169 90.9747 24.389Z" fill="#DADADA"/>
<path d="M98.2904 48.3066H91.7877C90.8435 48.3066 90.0781 49.0721 90.0781 50.0162V50.0172C90.0781 50.9614 90.8435 51.7268 91.7877 51.7268H98.2904C99.2346 51.7268 100 50.9614 100 50.0172V50.0162C100 49.0721 99.2346 48.3066 98.2904 48.3066Z" fill="#DADADA"/>
<path d="M84.7004 70.0538L84.6999 70.0546C84.2278 70.8723 84.508 71.9179 85.3256 72.39L90.9571 75.6413C91.7748 76.1134 92.8203 75.8332 93.2924 75.0155L93.2929 75.0147C93.765 74.197 93.4849 73.1514 92.6672 72.6793L87.0357 69.428C86.218 68.9559 85.1725 69.2361 84.7004 70.0538Z" fill="#DADADA"/>
<path d="M70.0261 84.717L70.0252 84.7175C69.2075 85.1896 68.9274 86.2351 69.3995 87.0528L72.6508 92.6843C73.1229 93.502 74.1685 93.7821 74.9862 93.3101L74.987 93.3096C75.8047 92.8375 76.0849 91.7919 75.6128 90.9742L72.3614 85.3427C71.8893 84.525 70.8438 84.2449 70.0261 84.717Z" fill="#DADADA"/>
<path d="M49.9845 90.0781H49.9835C49.0393 90.0781 48.2739 90.8435 48.2739 91.7877V98.2904C48.2739 99.2346 49.0393 100 49.9835 100H49.9845C50.9287 100 51.6941 99.2346 51.6941 98.2904V91.7877C51.6941 90.8435 50.9287 90.0781 49.9845 90.0781Z" fill="#DADADA"/>
<path d="M27.6109 85.3265L24.3596 90.9579C23.8875 91.7756 24.1676 92.8212 24.9853 93.2933L24.9862 93.2938C25.8038 93.7658 26.8494 93.4857 27.3215 92.668L30.5728 87.0365C31.0449 86.2189 30.7648 85.1733 29.9471 84.7012L29.9462 84.7007C29.1286 84.2286 28.083 84.5088 27.6109 85.3265Z" fill="#DADADA"/>
<path d="M12.9473 69.3983L7.31588 72.6496C6.4982 73.1217 6.21804 74.1673 6.69013 74.985L6.69061 74.9858C7.1627 75.8035 8.20828 76.0836 9.02597 75.6115L14.6574 72.3602C15.4751 71.8881 15.7553 70.8426 15.2832 70.0249L15.2827 70.024C14.8106 69.2063 13.765 68.9262 12.9473 69.3983Z" fill="#DADADA"/>
<path d="M8.21225 48.2739H1.7096C0.765414 48.2739 0 49.0393 0 49.9835V49.9845C0 50.9287 0.765414 51.6941 1.7096 51.6941H8.21225C9.15644 51.6941 9.92185 50.9287 9.92185 49.9845V49.9835C9.92185 49.0393 9.15644 48.2739 8.21225 48.2739Z" fill="#DADADA"/>
<path d="M6.70746 24.9847L6.70697 24.9855C6.23488 25.8032 6.51504 26.8488 7.33273 27.3209L12.9642 30.5722C13.7819 31.0443 14.8275 30.7641 15.2995 29.9464L15.3 29.9456C15.7721 29.1279 15.492 28.0823 14.6743 27.6102L9.04281 24.3589C8.22512 23.8868 7.17955 24.167 6.70746 24.9847Z" fill="#DADADA"/>
<path d="M25.2365 6.76728L25.2356 6.76776C24.4142 7.23985 24.131 8.28847 24.6031 9.10991L27.8544 14.7672C28.3265 15.5887 29.3751 15.8719 30.1966 15.3998L30.1974 15.3993C31.0188 14.9272 31.3021 13.8786 30.83 13.0571L27.5786 7.39983C27.1065 6.57839 26.0579 6.29518 25.2365 6.76728Z" fill="#DADADA"/>
</g>
<defs>
<clipPath id="clip0_230_2534">
<rect width="100" height="100" fill="white"/>
</clipPath>
</defs>
</svg>
