<svg width="80" height="81" viewBox="0 0 80 81" fill="none" xmlns="http://www.w3.org/2000/svg">
<circle cx="39.5" cy="54.498" r="13.5" fill="white" stroke="#444444" stroke-width="2"/>
<path d="M9.97305 56.1702C10.1609 54.7374 10.8772 53.4265 11.9816 52.4946C13.1678 51.4891 14.7048 50.9959 16.2546 51.1236C17.8044 51.2513 19.24 51.9895 20.2456 53.1757C20.9675 54.022 21.4286 55.0595 21.5733 56.1625" stroke="#444444" stroke-width="2" stroke-linecap="round" stroke-linejoin="round"/>
<path d="M57.6908 56.185C57.8817 54.728 58.6102 53.395 59.7332 52.4473C60.9394 51.4248 62.5024 50.9233 64.0784 51.0532C65.6544 51.183 67.1142 51.9336 68.1367 53.1399C68.8708 54.0005 69.3398 55.0555 69.4869 56.1771" stroke="#444444" stroke-width="2" stroke-linecap="round" stroke-linejoin="round"/>
<rect x="38.7471" y="16.998" width="2" height="16" rx="1" fill="#444444"/>
<path d="M42.5703 21.9969C42.4168 21.9972 42.2647 21.9682 42.1228 21.9115C41.9809 21.8548 41.852 21.7716 41.7435 21.6666L39.7404 19.7297L37.7451 21.6666C37.5256 21.8788 37.2279 21.998 36.9175 21.998C36.6071 21.998 36.3094 21.8788 36.0899 21.6666C35.8704 21.4543 35.7471 21.1665 35.7471 20.8663C35.7471 20.5662 35.8704 20.2783 36.0899 20.0661L38.9198 17.3297C39.0284 17.2245 39.1575 17.1411 39.2995 17.0842C39.4415 17.0273 39.5937 16.998 39.7474 16.998C39.9011 16.998 40.0533 17.0273 40.1953 17.0842C40.3373 17.1411 40.4663 17.2245 40.575 17.3297L43.4049 20.0661C43.5684 20.2244 43.6797 20.426 43.7247 20.6455C43.7697 20.865 43.7464 21.0924 43.6578 21.2991C43.5691 21.5058 43.4191 21.6824 43.2266 21.8066C43.0341 21.9308 42.8079 21.997 42.5765 21.9969H42.5703Z" fill="#444444"/>
<rect x="56.7471" y="27.998" width="2" height="13" rx="1" fill="#444444"/>
<rect x="21.7471" y="27.998" width="2" height="13" rx="1" fill="#444444"/>
<path d="M60.5703 32.9969C60.4168 32.9972 60.2647 32.9682 60.1228 32.9115C59.9809 32.8548 59.852 32.7716 59.7435 32.6666L57.7404 30.7297L55.7451 32.6666C55.5256 32.8788 55.2279 32.998 54.9175 32.998C54.6071 32.998 54.3094 32.8788 54.0899 32.6666C53.8704 32.4543 53.7471 32.1665 53.7471 31.8663C53.7471 31.5662 53.8704 31.2783 54.0899 31.0661L56.9198 28.3297C57.0284 28.2245 57.1575 28.1411 57.2995 28.0842C57.4415 28.0273 57.5937 27.998 57.7474 27.998C57.9011 27.998 58.0533 28.0273 58.1953 28.0842C58.3373 28.1411 58.4663 28.2245 58.575 28.3297L61.4049 31.0661C61.5684 31.2244 61.6797 31.426 61.7247 31.6455C61.7697 31.865 61.7464 32.0924 61.6578 32.2991C61.5691 32.5058 61.4191 32.6824 61.2266 32.8066C61.0341 32.9308 60.8079 32.997 60.5765 32.9969H60.5703Z" fill="#444444"/>
<path d="M25.5703 32.9969C25.4168 32.9972 25.2647 32.9682 25.1228 32.9115C24.9809 32.8548 24.852 32.7716 24.7435 32.6666L22.7404 30.7297L20.7451 32.6666C20.5256 32.8788 20.2279 32.998 19.9175 32.998C19.6071 32.998 19.3094 32.8788 19.0899 32.6666C18.8704 32.4543 18.7471 32.1665 18.7471 31.8663C18.7471 31.5662 18.8704 31.2783 19.0899 31.0661L21.9198 28.3297C22.0284 28.2245 22.1575 28.1411 22.2995 28.0842C22.4415 28.0273 22.5937 27.998 22.7474 27.998C22.9011 27.998 23.0533 28.0273 23.1953 28.0842C23.3373 28.1411 23.4663 28.2245 23.575 28.3297L26.4049 31.0661C26.5684 31.2244 26.6797 31.426 26.7247 31.6455C26.7697 31.865 26.7464 32.0924 26.6578 32.2991C26.5691 32.5058 26.4191 32.6824 26.2266 32.8066C26.0341 32.9308 25.8079 32.997 25.5765 32.9969H25.5703Z" fill="#444444"/>
<circle cx="39.5" cy="54.498" r="7.5" fill="#FDE149"/>
</svg>
