<svg width="120" height="120" viewBox="0 0 120 120" fill="none" xmlns="http://www.w3.org/2000/svg">
<rect y="0.000976562" width="120" height="120" rx="12" fill="white"/>
<path d="M91.9974 85.1943C91.9974 88.4261 84.4179 91.046 75.0681 91.046C65.7182 91.046 58.1387 88.4261 58.1387 85.1943" stroke="#444444" stroke-width="2" stroke-linecap="round"/>
<ellipse cx="75.0676" cy="78.6115" rx="17.9875" ry="6.58317" fill="white"/>
<ellipse cx="75.4883" cy="80.792" rx="14.5" ry="4.5" fill="#FFE665"/>
<path d="M92.055 78.6115C92.055 79.122 91.7756 79.7355 90.9871 80.4178C90.2015 81.0976 89.0064 81.7552 87.4429 82.3274C84.324 83.4689 79.9488 84.1947 75.0675 84.1947C70.1863 84.1947 65.8111 83.4689 62.6922 82.3274C61.1287 81.7552 59.9336 81.0976 59.148 80.4178C58.3595 79.7355 58.0801 79.122 58.0801 78.6115C58.0801 78.101 58.3595 77.4875 59.148 76.8052C59.9336 76.1254 61.1287 75.4678 62.6922 74.8956C65.8111 73.7541 70.1863 73.0283 75.0675 73.0283C79.9488 73.0283 84.324 73.7541 87.4429 74.8956C89.0064 75.4678 90.2015 76.1254 90.9871 76.8052C91.7756 77.4875 92.055 78.101 92.055 78.6115Z" stroke="#444444" stroke-width="2"/>
<path d="M57 78.3428V84.1945" stroke="#444444" stroke-width="2.27692" stroke-linecap="round"/>
<path d="M91.9961 79.3428V85.1945" stroke="#444444" stroke-width="2" stroke-linecap="round"/>
<path d="M80.9881 71.6584C80.9881 68.8529 78.204 64.413 77.4245 62.7175C76.5144 60.8425 75.8013 60.019 75.2962 58.001C74.791 60.019 74.0778 60.8425 73.1678 62.7175C72.3883 64.413 69.5547 68.8163 69.6042 71.6584V71.7439C69.6042 73.232 70.2039 74.6592 71.2714 75.7114C72.3388 76.7637 73.7866 77.3548 75.2962 77.3548C76.8058 77.3548 78.2536 76.7637 79.321 75.7114C80.3885 74.6592 80.9881 73.232 80.9881 71.7439V71.6584Z" fill="white" stroke="#444444" stroke-width="2" stroke-linecap="round" stroke-linejoin="round"/>
<path d="M28 54.001C28 47.3736 33.3726 42.001 40 42.001H49.3548C55.234 42.001 60 46.767 60 52.6461V88.8074C60 90.5712 58.5702 92.001 56.8064 92.001H31.1935C29.4298 92.001 28 90.5712 28 88.8074V54.001Z" fill="white"/>
<path d="M37.1611 43.2095H51.3858C51.6553 43.2095 51.9137 43.1025 52.1042 42.9119C52.2948 42.7214 52.4019 42.4629 52.4019 42.1935V32.033C52.4019 30.9551 51.9737 29.9213 51.2115 29.1591C50.4493 28.3969 49.4155 27.9688 48.3377 27.9688H40.2092C39.1314 27.9688 38.0976 28.3969 37.3354 29.1591C36.5732 29.9213 36.145 30.9551 36.145 32.033V42.1935C36.145 42.4629 36.2521 42.7214 36.4426 42.9119C36.6332 43.1025 36.8916 43.2095 37.1611 43.2095ZM50.3698 41.1774H38.1771V32.033C38.1771 31.494 38.3912 30.9771 38.7723 30.596C39.1534 30.2149 39.6703 30.0009 40.2092 30.0009H48.3377C48.8766 30.0009 49.3935 30.2149 49.7746 30.596C50.1557 30.9771 50.3698 31.494 50.3698 32.033V41.1774Z" fill="#444444"/>
<path d="M37.1611 34.0634H51.3858C51.6553 34.0634 51.9137 33.9563 52.1042 33.7657C52.2948 33.5752 52.4019 33.3168 52.4019 33.0473C52.4019 32.7778 52.2948 32.5194 52.1042 32.3289C51.9137 32.1383 51.6553 32.0312 51.3858 32.0312H37.1611C36.8916 32.0312 36.6332 32.1383 36.4426 32.3289C36.2521 32.5194 36.145 32.7778 36.145 33.0473C36.145 33.3168 36.2521 33.5752 36.4426 33.7657C36.6332 33.9563 36.8916 34.0634 37.1611 34.0634Z" fill="#444444"/>
<path d="M44.2742 38.1276C45.3521 38.1276 46.3858 37.6994 47.148 36.9372C47.9102 36.175 48.3384 35.1412 48.3384 34.0634V33.0473C48.3384 32.7778 48.2313 32.5194 48.0408 32.3289C47.8502 32.1383 47.5918 32.0312 47.3223 32.0312C47.0529 32.0312 46.7944 32.1383 46.6039 32.3289C46.4133 32.5194 46.3063 32.7778 46.3063 33.0473V34.0634C46.3063 34.6023 46.0922 35.1192 45.7111 35.5003C45.33 35.8814 44.8131 36.0955 44.2742 36.0955C43.7352 36.0955 43.2184 35.8814 42.8373 35.5003C42.4562 35.1192 42.2421 34.6023 42.2421 34.0634V33.0473C42.2421 32.7778 42.135 32.5194 41.9445 32.3289C41.7539 32.1383 41.4955 32.0312 41.226 32.0312C40.9565 32.0312 40.6981 32.1383 40.5076 32.3289C40.317 32.5194 40.21 32.7778 40.21 33.0473V34.0634C40.21 35.1412 40.6382 36.175 41.4003 36.9372C42.1625 37.6994 43.1963 38.1276 44.2742 38.1276Z" fill="#444444"/>
<path d="M32.0814 93.0924H56.4666C57.814 93.0924 59.1062 92.5571 60.0589 91.6044C61.0116 90.6517 61.5469 89.3595 61.5469 88.0121V54.8795C61.5496 51.8588 60.6004 48.9141 58.8341 46.4636C57.0678 44.0131 54.5743 42.1814 51.7077 41.2289C51.5811 41.1867 51.4474 41.1699 51.3143 41.1793C51.1812 41.1888 51.0513 41.2244 50.9319 41.284C50.8126 41.3437 50.7062 41.4263 50.6187 41.5271C50.5313 41.6279 50.4646 41.745 50.4224 41.8716C50.3802 41.9982 50.3633 42.1318 50.3728 42.2649C50.3822 42.398 50.4178 42.528 50.4775 42.6473C50.5372 42.7667 50.6198 42.8731 50.7206 42.9605C50.8214 43.0479 50.9384 43.1147 51.065 43.1569C53.5268 43.9749 55.6682 45.5478 57.1851 47.6522C58.7019 49.7566 59.5171 52.2854 59.5148 54.8795V88.0121C59.5148 88.8205 59.1936 89.5958 58.622 90.1675C58.0503 90.7391 57.275 91.0603 56.4666 91.0603H32.0814C31.273 91.0603 30.4977 90.7391 29.926 90.1675C29.3544 89.5958 29.0332 88.8205 29.0332 88.0121V54.8795C29.0309 52.2854 29.8461 49.7566 31.3629 47.6522C32.8798 45.5478 35.0212 43.9749 37.483 43.1569C37.7386 43.0717 37.95 42.8883 38.0705 42.6473C38.191 42.4063 38.2109 42.1272 38.1256 41.8716C38.0404 41.6159 37.8571 41.4046 37.6161 41.284C37.375 41.1635 37.096 41.1437 36.8403 41.2289C33.9737 42.1814 31.4802 44.0131 29.7139 46.4636C27.9476 48.9141 26.9984 51.8588 27.0011 54.8795V88.0121C27.0011 89.3595 27.5364 90.6517 28.4891 91.6044C29.4418 92.5571 30.734 93.0924 32.0814 93.0924Z" fill="#444444"/>
<rect x="29.1289" y="63.0977" width="30.3387" height="19.1613" fill="#FFE665"/>
</svg>
