<svg width="60" height="60" viewBox="0 0 60 60" fill="none" xmlns="http://www.w3.org/2000/svg">
<circle cx="30" cy="30" r="30" fill="#444444"/>
<path d="M24.786 25H26.586L27.858 20.38C28.122 19.456 28.374 18.436 28.614 17.476H28.662C28.914 18.424 29.166 19.456 29.43 20.38L30.702 25H32.562L29.718 16.12H27.63L24.786 25ZM26.55 22.72H30.774V21.352H26.55V22.72ZM33.4695 25H35.2335V18.292H33.4695V25ZM34.3455 17.2C34.9575 17.2 35.3775 16.816 35.3775 16.228C35.3775 15.652 34.9575 15.28 34.3455 15.28C33.7335 15.28 33.3255 15.652 33.3255 16.228C33.3255 16.816 33.7335 17.2 34.3455 17.2ZM11.6139 31.808V33.428C11.6139 35.588 10.7019 37.724 8.76988 38.564L9.71788 39.884C11.9259 38.864 12.9099 36.284 12.9099 33.428V31.808H11.6139ZM11.9259 31.808V33.428C11.9259 36.164 12.9099 38.636 15.0579 39.62L15.9939 38.336C14.0979 37.52 13.2219 35.48 13.2219 33.428V31.808H11.9259ZM16.5219 30.944V42.092H18.1299V30.944H16.5219ZM22.4129 32.096V32.792C22.4129 34.184 21.6329 35.624 19.7729 36.224L20.6009 37.46C22.7249 36.776 23.7209 34.892 23.7209 32.792V32.096H22.4129ZM22.7369 32.096V32.792C22.7369 34.784 23.6969 36.596 25.7729 37.268L26.5889 36.032C24.7889 35.456 24.0329 34.1 24.0329 32.792V32.096H22.7369ZM20.2049 31.604V32.876H26.2049V31.604H20.2049ZM27.0929 30.956V37.652H28.6889V30.956H27.0929ZM28.2449 33.644V34.952H30.1649V33.644H28.2449ZM21.2729 38.132V39.416H27.0929V42.068H28.6889V38.132H21.2729ZM38.108 30.956V42.068H39.692V30.956H38.108ZM39.332 35.288V36.62H41.3V35.288H39.332ZM30.932 32.6V33.872H37.4V32.6H30.932ZM34.184 34.496C32.564 34.496 31.364 35.6 31.364 37.148C31.364 38.696 32.564 39.8 34.184 39.8C35.804 39.8 37.004 38.696 37.004 37.148C37.004 35.6 35.804 34.496 34.184 34.496ZM34.184 35.792C34.94 35.792 35.48 36.296 35.48 37.148C35.48 38 34.94 38.504 34.184 38.504C33.428 38.504 32.888 38 32.888 37.148C32.888 36.296 33.428 35.792 34.184 35.792ZM33.38 31.136V33.08H34.976V31.136H33.38ZM49.6751 30.956V42.068H51.2831V30.956H49.6751ZM46.3991 32.108V32.396C46.3991 35.372 45.2471 37.388 42.0551 38.924L42.8831 40.196C46.8311 38.288 47.9831 35.504 47.9831 32.108H46.3991ZM42.6431 32.108V33.368H47.1551V32.108H42.6431Z" fill="white"/>
</svg>
