<svg width="82" height="82" viewBox="0 0 82 82" fill="none" xmlns="http://www.w3.org/2000/svg">
<g filter="url(#filter0_d_2158_14821)">
<circle cx="41" cy="37" r="37" fill="#2FCAB0"/>
<circle cx="41" cy="37" r="36.5" stroke="#36E2C5"/>
</g>
<path d="M57 47.3703C57 48.1562 56.6935 48.9098 56.1479 49.4655C55.6024 50.0211 54.8624 50.3333 54.0909 50.3333H27.9091C27.1376 50.3333 26.3976 50.0211 25.8521 49.4655C25.3065 48.9098 25 48.1562 25 47.3703V31.074C25 30.2882 25.3065 29.5346 25.8521 28.9789C26.3976 28.4232 27.1376 28.1111 27.9091 28.1111H33.7273L35.7481 25.0236C36.3024 24.1769 37.2462 23.6666 38.2582 23.6666H43.7418C44.7538 23.6666 45.6976 24.1769 46.2519 25.0236L48.2727 28.1111H54.0909C54.8624 28.1111 55.6024 28.4232 56.1479 28.9789C56.6935 29.5346 57 30.2882 57 31.074V47.3703Z" fill="white"/>
<path d="M46.6663 38.3333C46.6663 41.4629 44.1293 44 40.9997 44C37.8701 44 35.333 41.4629 35.333 38.3333C35.333 35.2037 37.8701 32.6666 40.9997 32.6666C44.1293 32.6666 46.6663 35.2037 46.6663 38.3333Z" stroke="#2FCAB0" stroke-width="2" stroke-linecap="round" stroke-linejoin="round"/>
<defs>
<filter id="filter0_d_2158_14821" x="0" y="0" width="82" height="82" filterUnits="userSpaceOnUse" color-interpolation-filters="sRGB">
<feFlood flood-opacity="0" result="BackgroundImageFix"/>
<feColorMatrix in="SourceAlpha" type="matrix" values="0 0 0 0 0 0 0 0 0 0 0 0 0 0 0 0 0 0 127 0" result="hardAlpha"/>
<feOffset dy="4"/>
<feGaussianBlur stdDeviation="2"/>
<feComposite in2="hardAlpha" operator="out"/>
<feColorMatrix type="matrix" values="0 0 0 0 0.133333 0 0 0 0 0.133333 0 0 0 0 0.133333 0 0 0 0.12 0"/>
<feBlend mode="normal" in2="BackgroundImageFix" result="effect1_dropShadow_2158_14821"/>
<feBlend mode="normal" in="SourceGraphic" in2="effect1_dropShadow_2158_14821" result="shape"/>
</filter>
</defs>
</svg>
