<svg width="22" height="20" viewBox="0 0 22 20" fill="none" xmlns="http://www.w3.org/2000/svg">
<path d="M8.5 10.357C8.5 11.7856 7.30952 12.3808 6.71429 12.4998H1V14.6427C1.11905 14.1665 1.57143 13.5713 2.42857 14.9999C3.28571 16.4284 4.69048 16.0713 5.28571 15.7141C6 14.8808 7.78571 13.5713 9.21429 14.9999C10.6429 16.4284 11.7143 16.0713 12.0714 15.7141C12.7857 14.9999 14.5 13.857 15.6429 14.9999C17.0714 16.4284 18.8571 16.0713 19.2143 15.357C19.5 14.7856 20.6429 14.6427 21 14.6427V12.1427C20.7619 12.1427 19.3571 12.2141 17.0714 12.4999C14.7857 12.7856 13.7381 11.4284 13.5 10.7141C11.7143 4.28556 8.5 8.57127 8.5 10.357Z" fill="white"/>
<path d="M21 12.3447C21 12.5623 20.8236 12.7387 20.606 12.7387H15.5327C14.4747 12.7387 13.5303 11.8483 13.2362 10.5718C12.8494 8.89733 11.9718 7.81091 11.0002 7.81091C10.0286 7.81091 9.15056 8.89437 8.76375 10.5718C8.46975 11.8468 7.52373 12.7387 6.46731 12.7387H1.39399C1.17639 12.7387 1 12.5623 1 12.3447C1 12.1271 1.17639 11.9507 1.39399 11.9507H6.46731C7.25292 11.9507 7.92854 11.3105 8.14734 10.358C8.61455 8.33294 9.73378 7.02441 10.9994 7.02441C12.265 7.02441 13.3838 8.33294 13.8511 10.358C14.0707 11.3105 14.7463 11.9507 15.5311 11.9507H20.606C20.8236 11.9507 21 12.1271 21 12.3447Z" fill="#444444" stroke="#444444" stroke-width="0.375"/>
<path d="M17.666 16.3098C16.724 16.3098 16.2356 15.8911 15.8044 15.5214C15.4044 15.1781 15.0572 14.8813 14.3324 14.8813C13.6076 14.8813 13.2616 15.1781 12.8608 15.5214C12.4296 15.8911 11.9408 16.3098 10.9992 16.3098C10.0576 16.3098 9.5688 15.8911 9.1376 15.5214C8.7376 15.1781 8.3908 14.8813 7.666 14.8813C6.9412 14.8813 6.5952 15.1781 6.1944 15.5214C5.7636 15.8911 5.2744 16.3098 4.3328 16.3098C3.3912 16.3098 2.9024 15.8911 2.4716 15.5214C2.14335 15.2397 1.85065 14.9893 1.35587 14.9085C1.1612 14.8767 1 14.7214 1 14.5241C1 14.3269 1.16079 14.1639 1.35649 14.1886C2.07235 14.2788 2.48835 14.6354 2.8612 14.9549C3.2612 15.2987 3.6084 15.5956 4.3328 15.5956C5.0572 15.5956 5.4036 15.2987 5.8044 14.9549C6.2356 14.5857 6.7244 14.167 7.666 14.167C8.6076 14.167 9.0964 14.5857 9.5276 14.9549C9.9276 15.2987 10.2744 15.5956 10.9992 15.5956C11.724 15.5956 12.07 15.2987 12.4708 14.9549C12.902 14.5857 13.3908 14.167 14.3324 14.167C15.274 14.167 15.7632 14.5857 16.1944 14.9549C16.5944 15.2987 16.9416 15.5956 17.666 15.5956C18.3904 15.5956 18.7372 15.2987 19.138 14.9549C19.5112 14.6354 19.9275 14.2787 20.6435 14.1886C20.8392 14.1639 21 14.3269 21 14.5241C21 14.7214 20.8388 14.8767 20.6441 14.9085C20.1492 14.9892 19.8569 15.2397 19.528 15.5214C19.0968 15.8911 18.6084 16.3098 17.666 16.3098Z" fill="#444444" stroke="#444444" stroke-width="0.375"/>
<path d="M11.2281 5.32326V3.24003C11.2281 3.02818 11.0564 2.85645 10.8445 2.85645C10.6327 2.85645 10.4609 3.02818 10.4609 3.24004V5.32326C10.4609 5.53511 10.6327 5.70685 10.8445 5.70685C11.0564 5.70685 11.2281 5.53511 11.2281 5.32326Z" fill="#444444" stroke="#444444" stroke-width="0.375"/>
<path d="M7.54772 6.37436L6.0559 4.8963C5.9061 4.74788 5.66323 4.74788 5.51343 4.8963C5.36363 5.04472 5.36363 5.28536 5.51343 5.43378L7.00524 6.91184C7.15504 7.06026 7.39792 7.06026 7.54772 6.91184C7.69752 6.76342 7.69752 6.52278 7.54772 6.37436Z" fill="#444444" stroke="#444444" stroke-width="0.375"/>
<path d="M15.6341 4.89675L14.1423 6.37482C13.9925 6.52324 13.9925 6.76387 14.1423 6.91229C14.2921 7.06071 14.535 7.06071 14.6848 6.91229L16.1766 5.43423C16.3264 5.28581 16.3264 5.04517 16.1766 4.89675C16.0268 4.74833 15.7839 4.74833 15.6341 4.89675Z" fill="#444444" stroke="#444444" stroke-width="0.375"/>
<circle cx="11.0013" cy="10.6663" r="1.33333" fill="#FFE665"/>
</svg>
