<svg width="54" height="54" viewBox="0 0 54 54" fill="none" xmlns="http://www.w3.org/2000/svg">
<circle cx="27" cy="27" r="27" fill="#2FCAB0"/>
<path d="M22 37H35V26.5L30 21H22V37Z" fill="white"/>
<path d="M25.5 21H28.5L33 23L35 28V33.5H27.5C26.3954 33.5 25.5 32.6046 25.5 31.5V21Z" fill="#FFE665"/>
<path d="M22.01 22.0007V22C22.01 21.4457 22.4588 21 23 21H28V21.5V26C28 27.1023 28.8977 28 30 28H34.5H35V36C35 36.5477 34.5477 37 34 37H22.99C22.4488 37 22 36.5543 22 36L22.01 22.0007ZM19 17H20C18.8977 17 18 17.8977 18 19V18C18 17.4523 18.4523 17 19 17Z" stroke="#444444" stroke-width="2"/>
</svg>
