<svg width="32" height="30" viewBox="0 0 32 30" fill="none" xmlns="http://www.w3.org/2000/svg">
<path d="M12.25 15.5355C12.25 17.6783 10.4643 18.5712 9.57143 18.7498H1V21.9641C1.17857 21.2498 1.85714 20.3569 3.14286 22.4998C4.42857 24.6426 6.53571 24.1069 7.42857 23.5712C8.5 22.3212 11.1786 20.3569 13.3214 22.4998C15.4643 24.6426 17.0714 24.1069 17.6071 23.5712C18.6786 22.4998 21.25 20.7855 22.9643 22.4998C25.1071 24.6426 27.7857 24.1069 28.3214 23.0355C28.75 22.1784 30.4643 21.9641 31 21.9641V18.2141C30.6429 18.2141 28.5357 18.3212 25.1071 18.7498C21.6786 19.1784 20.1071 17.1426 19.75 16.0712C17.0714 6.42834 12.25 12.8569 12.25 15.5355Z" fill="white"/>
<path d="M31 18.5176C31 18.8439 30.7354 19.1085 30.409 19.1085H22.799C21.212 19.1085 19.7954 17.7729 19.3544 15.8581C18.7742 13.3465 17.4577 11.7169 16.0003 11.7169C14.5429 11.7169 13.2258 13.3421 12.6456 15.8581C12.2046 17.7707 10.7856 19.1085 9.20096 19.1085H1.59098C1.26459 19.1085 1 18.8439 1 18.5176C1 18.1912 1.26459 17.9266 1.59098 17.9266H9.20096C10.3794 17.9266 11.3928 16.9662 11.721 15.5375C12.4218 12.4999 14.1007 10.5371 15.9991 10.5371C17.8975 10.5371 19.5758 12.4999 20.2766 15.5375C20.606 16.9662 21.6194 17.9266 22.7966 17.9266H30.409C30.7354 17.9266 31 18.1912 31 18.5176Z" fill="#444444" stroke="#444444" stroke-width="0.5625"/>
<path d="M25.999 24.4643C24.586 24.4643 23.8534 23.8362 23.2066 23.2817C22.6066 22.7667 22.0858 22.3214 20.9986 22.3214C19.9114 22.3214 19.3924 22.7667 18.7912 23.2817C18.1444 23.8362 17.4112 24.4643 15.9988 24.4643C14.5864 24.4643 13.8532 23.8362 13.2064 23.2817C12.6064 22.7667 12.0862 22.3214 10.999 22.3214C9.9118 22.3214 9.3928 22.7667 8.7916 23.2817C8.1454 23.8362 7.4116 24.4643 5.9992 24.4643C4.5868 24.4643 3.8536 23.8362 3.2074 23.2817C2.71502 22.8591 2.27597 22.4834 1.53381 22.3622C1.24181 22.3146 1 22.0816 1 21.7857C1 21.4898 1.24118 21.2454 1.53473 21.2824C2.60853 21.4176 3.23252 21.9526 3.7918 22.4319C4.3918 22.9475 4.9126 23.3929 5.9992 23.3929C7.0858 23.3929 7.6054 22.9475 8.2066 22.4319C8.8534 21.8781 9.5866 21.25 10.999 21.25C12.4114 21.25 13.1446 21.8781 13.7914 22.4319C14.3914 22.9475 14.9116 23.3929 15.9988 23.3929C17.086 23.3929 17.605 22.9475 18.2062 22.4319C18.853 21.8781 19.5862 21.25 20.9986 21.25C22.411 21.25 23.1448 21.8781 23.7916 22.4319C24.3916 22.9475 24.9124 23.3929 25.999 23.3929C27.0856 23.3929 27.6058 22.9475 28.207 22.4319C28.7668 21.9526 29.3913 21.4176 30.4653 21.2824C30.7588 21.2454 31 21.4898 31 21.7857C31 22.0816 30.7582 22.3146 30.4662 22.3622C29.7238 22.4834 29.2854 22.8591 28.792 23.2817C28.1452 23.8362 27.4126 24.4643 25.999 24.4643Z" fill="#444444" stroke="#444444" stroke-width="0.5625"/>
<path d="M16.3422 7.98538V4.86054C16.3422 4.54276 16.0846 4.28516 15.7668 4.28516C15.449 4.28516 15.1914 4.54276 15.1914 4.86054V7.98538C15.1914 8.30316 15.449 8.56076 15.7668 8.56076C16.0846 8.56076 16.3422 8.30316 16.3422 7.98538Z" fill="#444444" stroke="#444444" stroke-width="0.5625"/>
<path d="M10.8177 9.56106L8.57995 7.34396C8.35525 7.12133 7.99094 7.12133 7.76623 7.34396C7.54153 7.56659 7.54153 7.92755 7.76623 8.15018L10.004 10.3673C10.2287 10.5899 10.593 10.5899 10.8177 10.3673C11.0424 10.1446 11.0424 9.78369 10.8177 9.56106Z" fill="#444444" stroke="#444444" stroke-width="0.5625"/>
<path d="M22.9493 7.34562L20.7115 9.56271C20.4868 9.78534 20.4868 10.1463 20.7115 10.3689C20.9362 10.5916 21.3006 10.5916 21.5253 10.3689L23.763 8.15183C23.9877 7.9292 23.9877 7.56825 23.763 7.34562C23.5383 7.12299 23.174 7.12299 22.9493 7.34562Z" fill="#444444" stroke="#444444" stroke-width="0.5625"/>
<circle cx="16" cy="16" r="2" fill="#FFE665"/>
</svg>
