<svg width="66" height="66" viewBox="0 0 66 66" fill="none" xmlns="http://www.w3.org/2000/svg">
<path d="M33.0118 0H33.0111C32.388 0 31.8828 0.505173 31.8828 1.12834V5.42009C31.8828 6.04325 32.388 6.54842 33.0111 6.54842H33.0118C33.6349 6.54842 34.1401 6.04325 34.1401 5.42009V1.12834C34.1401 0.505173 33.6349 0 33.0118 0Z" fill="white"/>
<path d="M47.9679 4.83927L45.822 8.55604C45.5104 9.09571 45.6953 9.78579 46.235 10.0974L46.2355 10.0977C46.7752 10.4093 47.4653 10.2244 47.7769 9.68469L49.9227 5.96793C50.2343 5.42825 50.0494 4.73817 49.5098 4.42659L49.5092 4.42627C48.9695 4.11469 48.2794 4.2996 47.9679 4.83927Z" fill="white"/>
<path d="M60.0435 16.0966L56.3268 18.2425C55.7871 18.5541 55.6022 19.2441 55.9138 19.7838L55.9141 19.7844C56.2257 20.324 56.9158 20.5089 57.4554 20.1974L61.1722 18.0515C61.7119 17.7399 61.8968 17.0498 61.5852 16.5102L61.5849 16.5096C61.2733 15.9699 60.5832 15.785 60.0435 16.0966Z" fill="white"/>
<path d="M64.8713 31.8828H60.5795C59.9563 31.8828 59.4512 32.388 59.4512 33.0111V33.0118C59.4512 33.6349 59.9563 34.1401 60.5795 34.1401H64.8713C65.4944 34.1401 65.9996 33.6349 65.9996 33.0118V33.0111C65.9996 32.388 65.4944 31.8828 64.8713 31.8828Z" fill="white"/>
<path d="M55.9024 46.2352L55.9021 46.2357C55.5905 46.7754 55.7754 47.4655 56.3151 47.7771L60.0318 49.9229C60.5715 50.2345 61.2616 50.0496 61.5732 49.5099L61.5735 49.5094C61.8851 48.9697 61.7002 48.2796 61.1605 47.9681L57.4437 45.8222C56.904 45.5106 56.214 45.6955 55.9024 46.2352Z" fill="white"/>
<path d="M46.2179 55.914L46.2174 55.9143C45.6777 56.2259 45.4928 56.916 45.8044 57.4557L47.9503 61.1725C48.2619 61.7121 48.9519 61.897 49.4916 61.5855L49.4922 61.5851C50.0318 61.2736 50.2167 60.5835 49.9052 60.0438L47.7593 56.327C47.4477 55.7873 46.7576 55.6024 46.2179 55.914Z" fill="white"/>
<path d="M32.9903 59.4512H32.9897C32.3665 59.4512 31.8613 59.9563 31.8613 60.5795V64.8713C31.8613 65.4944 32.3665 65.9996 32.9897 65.9996H32.9903C33.6135 65.9996 34.1186 65.4944 34.1186 64.8713V60.5795C34.1186 59.9563 33.6135 59.4512 32.9903 59.4512Z" fill="white"/>
<path d="M18.2237 56.3158L16.0778 60.0326C15.7663 60.5723 15.9512 61.2624 16.4908 61.5739L16.4914 61.5743C17.0311 61.8858 17.7211 61.7009 18.0327 61.1613L20.1786 57.4445C20.4902 56.9048 20.3053 56.2147 19.7656 55.9031L19.765 55.9028C19.2254 55.5912 18.5353 55.7762 18.2237 56.3158Z" fill="white"/>
<path d="M8.5455 45.8036L4.82873 47.9495C4.28905 48.2611 4.10415 48.9512 4.41573 49.4908L4.41605 49.4914C4.72763 50.0311 5.41771 50.216 5.95738 49.9044L9.67415 47.7585C10.2138 47.4469 10.3987 46.7569 10.0872 46.2172L10.0868 46.2166C9.77525 45.677 9.08517 45.492 8.5455 45.8036Z" fill="white"/>
<path d="M5.42009 31.8613H1.12834C0.505173 31.8613 0 32.3665 0 32.9897V32.9903C0 33.6135 0.505173 34.1186 1.12834 34.1186H5.42009C6.04325 34.1186 6.54842 33.6135 6.54842 32.9903V32.9897C6.54842 32.3665 6.04325 31.8613 5.42009 31.8613Z" fill="white"/>
<path d="M4.42777 16.4891L4.42745 16.4896C4.11587 17.0293 4.30077 17.7194 4.84045 18.031L8.55721 20.1768C9.09689 20.4884 9.78697 20.3035 10.0985 19.7638L10.0989 19.7633C10.4104 19.2236 10.2255 18.5335 9.68587 18.222L5.9691 16.0761C5.42943 15.7645 4.73935 15.9494 4.42777 16.4891Z" fill="white"/>
<path d="M16.5109 4.41598L16.5104 4.4163C15.9707 4.72788 15.7858 5.41796 16.0974 5.95764L18.2432 9.67441C18.5548 10.2141 19.2449 10.399 19.7846 10.0874L19.7851 10.0871C20.3248 9.77551 20.5097 9.08542 20.1981 8.54575L18.0523 4.82898C17.7407 4.28931 17.0506 4.1044 16.5109 4.41598Z" fill="white"/>
<path d="M17.7851 44.4829L17.7266 44.6167H21.7209L24.1075 39.1017C22.9518 38.7383 21.834 38.2641 20.7696 37.6855L17.7851 44.4829Z" fill="white"/>
<path d="M35.4688 39.099L37.8324 44.5611L37.8572 44.6184H41.8516L38.8047 37.6777C37.7412 38.2581 36.624 38.734 35.4688 39.099V39.099Z" fill="white"/>
<path d="M25.7726 35.011L25.8674 35.0371L29.788 25.9735L33.7002 35.0155L33.7906 34.99C34.8935 34.6717 35.9545 34.2228 36.9509 33.6528L37.0145 33.6127L31.7708 21.6569L31.7434 21.5996H27.8325L22.541 33.6528C22.562 33.6649 22.583 33.6783 22.6047 33.6904C23.6042 34.2552 24.6677 34.6986 25.7726 35.011Z" fill="white"/>
<path d="M46.9153 30.9668H43.6016V44.5215H46.9153V30.9668Z" fill="white"/>
<path d="M47.7209 27.1472C47.7204 27.6343 47.5754 28.1104 47.3044 28.5152C47.0333 28.9199 46.6482 29.2352 46.198 29.4212C45.7477 29.6071 45.2524 29.6553 44.7747 29.5597C44.297 29.4642 43.8584 29.2291 43.5143 28.8842C43.1702 28.5393 42.9361 28.1001 42.8417 27.6222C42.7472 27.1443 42.7966 26.6491 42.9836 26.1993C43.1705 25.7494 43.4867 25.3651 43.8921 25.095C44.2975 24.8249 44.7739 24.681 45.2611 24.6816C45.9142 24.6825 46.5403 24.9427 47.0015 25.4051C47.4628 25.8674 47.7216 26.4941 47.7209 27.1472V27.1472Z" fill="white"/>
<path d="M41.0898 33.8244C40.9983 33.6252 40.8634 33.4489 40.6949 33.3087C40.5264 33.1684 40.3287 33.0676 40.1161 33.0138C39.9036 32.9599 39.6817 32.9543 39.4668 32.9974C39.2518 33.0405 39.0492 33.1312 38.8739 33.2628C38.3753 33.6347 37.8548 33.9762 37.3151 34.2854C36.2684 34.8851 35.1535 35.3571 33.9944 35.6914C31.2434 36.478 28.3281 36.4861 25.5727 35.7149C24.4115 35.3871 23.2938 34.921 22.2437 34.3268C21.6773 34.0071 21.1317 33.6517 20.6104 33.2628C20.3553 33.0719 20.0452 32.9689 19.7266 32.9692C19.6029 32.9693 19.4797 32.9847 19.3598 33.0151C19.1482 33.0689 18.9514 33.1696 18.7839 33.3097C18.6163 33.4498 18.4824 33.6257 18.3919 33.8244C18.2536 34.1285 18.2228 34.4706 18.3045 34.7946C18.3862 35.1185 18.5755 35.4051 18.8415 35.6073C19.5444 36.133 20.2838 36.608 21.0542 37.0286C22.1165 37.6093 23.2348 38.081 24.3921 38.4364C26.7204 39.1549 29.1696 39.3969 31.5936 39.148C34.0175 38.8991 36.3664 38.1644 38.5001 36.9878C39.2434 36.5771 39.9576 36.1158 40.6377 35.6073C40.9041 35.4055 41.094 35.119 41.1761 34.7951C41.2583 34.4711 41.2279 34.1288 41.0898 33.8244V33.8244Z" fill="#FF71BC"/>
</svg>
