<svg width="58" height="29" viewBox="0 0 58 29" fill="none" xmlns="http://www.w3.org/2000/svg">
<path d="M0 0.498047H8.8153C15.8571 0.498047 19.8008 4.69443 19.8008 11.8622C19.8008 19.6593 14.217 22.7898 9.12036 22.7898H0V21.8831H1.50788C2.57036 21.8831 2.72114 21.5673 2.72114 18.4726V4.32599C2.72114 2.20028 2.60515 1.41675 1.59951 1.41675H0V0.498047ZM6.11967 21.8831H8.75499C14.5847 21.8831 16.0415 16.6878 16.0415 11.7151C16.0415 6.42657 14.522 1.42154 8.5752 1.42154H6.11967V21.8831Z" fill="white"/>
<path d="M20.0469 22.0331H21.8726C22.9316 22.0331 23.0754 21.4015 23.0754 20.1335V11.5075C23.0754 8.85184 22.8434 8.21904 22.0222 8.21904H20.5851V7.30273H23.892C24.608 7.29173 25.3131 7.11943 25.9578 6.79792V10.4943H26.0169C26.895 8.62935 28.2625 6.79792 30.4466 6.79792C30.7811 6.76317 31.1189 6.79957 31.4392 6.90485C31.7595 7.01013 32.0555 7.18205 32.3088 7.40999C32.5621 7.63794 32.7674 7.91705 32.912 8.23007C33.0565 8.54309 33.1372 8.88337 33.1492 9.22985C33.1773 9.50635 33.146 9.78582 33.0576 10.0484C32.9691 10.3111 32.8257 10.5504 32.6375 10.7494C32.4493 10.9484 32.2209 11.1023 31.9685 11.2C31.7162 11.2977 31.4461 11.3369 31.1774 11.3149C30.326 11.3149 29.4444 10.9058 29.4444 9.98707C29.4646 9.69976 29.5069 9.41456 29.5709 9.13416C29.5709 8.91046 29.1765 8.88414 28.9631 8.88414C27.1072 8.88414 26.1109 11.0003 26.1109 16.7207V20.1335C26.1109 21.557 26.3997 22.0331 27.3125 22.0331H29.0246V22.9494H20.0469V22.0331Z" fill="white"/>
<path d="M33.6507 19.3438C34.0232 19.3435 34.3873 19.4572 34.6971 19.6705C35.0069 19.8838 35.2483 20.187 35.3909 20.5419C35.5335 20.8967 35.5708 21.2872 35.4981 21.664C35.4254 22.0407 35.246 22.3867 34.9825 22.6582C34.7191 22.9297 34.3835 23.1146 34.0181 23.1893C33.6528 23.264 33.2742 23.2253 32.9302 23.0781C32.5862 22.9308 32.2923 22.6816 32.0857 22.362C31.8791 22.0424 31.7691 21.6668 31.7695 21.2827C31.7885 20.7745 31.9928 20.2924 32.3416 19.9329C32.6904 19.5734 33.158 19.363 33.6507 19.3438" fill="white"/>
<path d="M54.9059 6.16882H53.8434C53.7982 4.73546 53.2056 3.37859 52.1947 2.39383C51.1838 1.40907 49.8365 0.876224 48.4463 0.911382C42.924 0.911382 42.039 7.38898 42.039 11.8354C42.039 16.5294 42.953 22.2246 48.0821 22.3825C48.6495 22.4376 49.2217 22.3628 49.7579 22.1636C50.294 21.9643 50.7809 21.6455 51.1838 21.2298C51.5868 20.8142 51.8958 20.3119 52.0888 19.7589C52.2819 19.2059 52.3542 18.6158 52.3007 18.0306V15.6035C52.3173 15.3784 52.288 15.1522 52.2145 14.9395C52.1411 14.7268 52.0252 14.5324 51.8743 14.3688C51.7235 14.2052 51.541 14.0761 51.3387 13.9898C51.1364 13.9035 50.9189 13.8619 50.7 13.8678H48.0821V12.961H57.9993V13.8678H56.7234C55.7503 13.8678 55.5229 14.485 55.5229 16.0509V23.1027H54.6669C54.5788 22.7259 54.4268 22.3478 53.6984 22.3478C52.6951 22.3478 51.3009 23.2881 48.0566 23.2881C40.7712 23.2881 38.2832 18.1539 38.2832 11.4275C38.2832 5.29437 41.8952 0.00105032 48.2039 0.00105032C49.3254 -0.0150368 50.4421 0.153766 51.512 0.501075C52.0962 0.74646 52.708 0.915251 53.333 1.00349C53.6659 1.00349 53.8179 0.657781 53.8492 0.188859H54.9116L54.9059 6.16882Z" fill="white"/>
<path d="M49.885 27.5879H8.15039V28.9971H49.885V27.5879Z" fill="white"/>
</svg>
