<svg width="57" height="50" viewBox="0 0 57 50" fill="none" xmlns="http://www.w3.org/2000/svg">
<path fill-rule="evenodd" clip-rule="evenodd" d="M8.57871 41.0636C3.88257 36.84 1 31.1247 1 24.833C1 11.83 13.3122 1.28893 28.5 1.28893C43.6878 1.28893 56 11.83 56 24.833C56 37.8361 43.6878 48.3771 28.5 48.3771C23.3206 48.3771 18.4757 47.1512 14.3394 45.0199C13.0065 46.2178 9.84452 48.1212 6.00036 47.4422C6.92669 46.4604 8.73336 43.9053 8.57871 41.0636Z" fill="#FFE665"/>
<path d="M8.57871 41.0636L9.08024 40.506C9.22786 40.6388 9.31681 40.8246 9.3276 41.0229L8.57871 41.0636ZM14.3394 45.0199L13.8381 44.4621C14.0698 44.2539 14.4061 44.2105 14.683 44.3532L14.3394 45.0199ZM6.00036 47.4422L5.8699 48.1808C5.59838 48.1328 5.37507 47.9397 5.28839 47.678C5.2017 47.4162 5.26562 47.128 5.45484 46.9275L6.00036 47.4422ZM1.75 24.833C1.75 30.8847 4.52077 36.4053 9.08024 40.506L8.07718 41.6213C3.24438 37.2747 0.25 31.3647 0.25 24.833H1.75ZM28.5 2.03893C13.6129 2.03893 1.75 12.3492 1.75 24.833H0.25C0.25 11.3107 13.0115 0.538925 28.5 0.538925V2.03893ZM55.25 24.833C55.25 12.3492 43.3871 2.03893 28.5 2.03893V0.538925C43.9885 0.538925 56.75 11.3107 56.75 24.833H55.25ZM28.5 47.6271C43.3871 47.6271 55.25 37.3168 55.25 24.833H56.75C56.75 38.3553 43.9885 49.1271 28.5 49.1271V47.6271ZM14.683 44.3532C18.7118 46.4292 23.4388 47.6271 28.5 47.6271V49.1271C23.2024 49.1271 18.2396 47.8733 13.9959 45.6866L14.683 44.3532ZM6.13082 46.7036C9.66644 47.3281 12.6042 45.571 13.8381 44.4621L14.8408 45.5777C13.4089 46.8646 10.0226 48.9143 5.8699 48.1808L6.13082 46.7036ZM9.3276 41.0229C9.41406 42.6116 8.95229 44.0908 8.36817 45.2808C7.78375 46.4715 7.05542 47.4168 6.54588 47.9569L5.45484 46.9275C5.87162 46.4858 6.50979 45.6627 7.02163 44.6199C7.53377 43.5765 7.89801 42.3574 7.82981 41.1044L9.3276 41.0229Z" fill="#FFE665"/>
</svg>
