<svg width="25" height="29" viewBox="0 0 25 29" fill="none" xmlns="http://www.w3.org/2000/svg">
<circle cx="12.2754" cy="12.2754" r="12.2754" fill="#D5F4EF"/>
<path d="M5.7619 26.4152C5.18215 26.7749 4.4471 26.2904 4.54912 25.6158L5.37328 20.1661L10.4453 23.5094L5.7619 26.4152Z" fill="#D5F4EF"/>
<g clip-path="url(#clip0_4_86)">
<path d="M20.168 13.1523H16.8106C16.8106 14.3548 16.3329 15.508 15.4826 16.3583C14.6324 17.2086 13.4791 17.6863 12.2767 17.6863C11.0742 17.6863 9.92098 17.2086 9.0707 16.3583C8.22043 15.508 7.74275 14.3548 7.74275 13.1523H4.38477C4.40225 15.2338 5.24139 17.2242 6.71946 18.6899C8.19752 20.1556 10.1948 20.978 12.2764 20.978C14.358 20.978 16.3553 20.1556 17.8333 18.6899C19.3114 17.2242 20.1505 15.2338 20.168 13.1523Z" fill="#2FCAB0"/>
</g>
<defs>
<clipPath id="clip0_4_86">
<rect width="15.7827" height="7.89134" fill="white" transform="translate(4.38477 13.1523)"/>
</clipPath>
</defs>
</svg>
