<svg width="69" height="71" viewBox="0 0 69 71" fill="none" xmlns="http://www.w3.org/2000/svg">
<path d="M17.5314 8.65378C17.6017 8.73398 17.6602 8.79891 17.7034 8.84635L18.6664 10.5175V22.625H18.6663L18.6664 22.634C18.7008 26.456 16.706 30.7522 13.6379 36.0516C12.7285 37.6225 11.7283 39.2762 10.6751 41.0174C8.2311 45.058 5.50194 49.57 2.96061 54.6129L2.96054 54.6131C2.51825 55.4911 1.91303 56.7908 1.49354 58.251C1.07701 59.7009 0.819907 61.3887 1.15168 63.014C1.49257 64.6839 2.44534 66.2269 4.31235 67.3221C6.13802 68.393 8.77457 69 12.4494 69H45.6077C49.1116 69 51.6738 68.43 53.4857 67.4163C55.3333 66.3827 56.3472 64.9157 56.7656 63.287C57.1739 61.6976 56.9994 60.0221 56.62 58.5326C56.2384 57.0347 55.6305 55.651 55.0928 54.6056L54.2035 55.063L55.0928 54.6056C52.337 49.2478 49.5854 44.6709 47.1873 40.6821C46.105 38.8819 45.0948 37.2015 44.1887 35.6231C41.2356 30.4793 39.4105 26.4538 39.3908 22.6223V10.5175L40.354 8.84579C40.3979 8.79751 40.4577 8.73099 40.5298 8.64858C40.6842 8.4721 40.8968 8.22114 41.133 7.91934C41.5978 7.32551 42.1862 6.49432 42.5899 5.62489C42.9648 4.81724 43.322 3.67891 42.8626 2.65566C42.3551 1.52523 41.1251 1.05758 39.58 1.00068L39.5616 1H39.5432H18.5139H18.4856L18.4574 1.0016C16.9232 1.08848 15.7198 1.58392 15.2262 2.70921C14.7783 3.7304 15.1255 4.85731 15.4976 5.66347C15.8962 6.52704 16.4771 7.34869 16.9359 7.93466C17.1691 8.2325 17.3789 8.47987 17.5314 8.65378Z" fill="white" stroke="#444444" stroke-width="2"/>
<path d="M6.99882 55L14 43.5L16 40H42L49 50L51.0003 65H11.5001C3.81449 65 5.00042 59 6.99882 55Z" fill="#FFE665"/>
<path d="M66.2 22.1837L67.2238 21.0461C67.7235 20.4909 68 19.7704 68 19.0235C68 17.3537 66.6463 16 64.9765 16H51.0235C49.3537 16 48 17.3537 48 19.0235C48 19.7704 48.2765 20.4909 48.7762 21.0461L49.8 22.1837V61.4C49.8 64.26 50.6747 66.4472 52.2197 67.9142C53.7539 69.371 55.8255 70 58 70C60.1745 70 62.2461 69.371 63.7803 67.9142C65.3253 66.4472 66.2 64.26 66.2 61.4V22.1837Z" fill="white" stroke="#444444" stroke-width="2"/>
<path d="M53 28H63V61.7353C63 63.8936 61.6151 65.8083 59.5654 66.484V66.484C58.5487 66.8191 57.4513 66.8191 56.4346 66.484V66.484C54.3849 65.8083 53 63.8936 53 61.7353V28Z" fill="#47BDFF"/>
</svg>
