<svg width="50" height="50" viewBox="0 0 50 50" fill="none" xmlns="http://www.w3.org/2000/svg">
<path d="M8.92718 20.5324L4.46289 16.9609V29.4609L6.24861 31.2467L8.92718 33.0324H11.6057L13.3915 32.1395L15.1772 30.3538L16.9629 29.4609H18.7486L20.5343 30.3538L22.32 32.1395L24.1057 33.0324H26.7843L28.57 31.2467L30.3557 29.4609H33.0343L34.82 30.3538L37.4986 33.0324L40.1772 33.9252L42.8558 32.1395L44.6415 29.4609H46.4272V16.9609L43.7486 17.8538L41.07 20.5324H39.2843H37.4986L34.82 17.8538L33.0343 16.9609H31.2486L29.4629 17.8538L26.7843 20.5324H24.9986L22.32 19.6395L18.7486 16.9609H16.07L13.3915 19.6395L10.7129 20.5324H8.92718Z" fill="#FFE665"/>
<path d="M39.2822 21.7711C37.2636 21.7711 36.217 20.6571 35.293 19.6737C34.4359 18.7604 33.6919 17.9706 32.1388 17.9706C30.5856 17.9706 29.8442 18.7604 28.9853 19.6737C28.0613 20.6571 27.0139 21.7711 24.9962 21.7711C22.9785 21.7711 21.931 20.6571 21.007 19.6737C20.1499 18.7604 19.4068 17.9706 17.8536 17.9706C16.3005 17.9706 15.5591 18.7604 14.7002 19.6737C13.7771 20.6571 12.7288 21.7711 10.711 21.7711C8.69334 21.7711 7.64591 20.6571 6.72276 19.6737C6.05973 18.9672 5.4644 18.3346 4.51027 18.0844C4.0027 17.9512 3.56934 17.5452 3.56934 17.0204V17.0204C3.56934 16.4957 3.99955 16.0574 4.5142 16.1599C5.93838 16.4434 6.7906 17.3504 7.55762 18.1665C8.41476 19.081 9.15876 19.8709 10.711 19.8709C12.2633 19.8709 13.0056 19.081 13.8645 18.1665C14.7885 17.1843 15.8359 16.0703 17.8536 16.0703C19.8713 16.0703 20.9188 17.1843 21.8428 18.1665C22.6999 19.081 23.443 19.8709 24.9962 19.8709C26.5493 19.8709 27.2908 19.081 28.1496 18.1665C29.0736 17.1843 30.1211 16.0703 32.1388 16.0703C34.1565 16.0703 35.2048 17.1843 36.1288 18.1665C36.9859 19.081 37.7299 19.8709 39.2822 19.8709C40.8345 19.8709 41.5776 19.081 42.4365 18.1665C43.2042 17.3504 44.0572 16.4433 45.4816 16.1599C45.9963 16.0574 46.4265 16.4957 46.4265 17.0204V17.0204C46.4265 17.5452 45.9931 17.9512 45.4855 18.0843C44.5313 18.3345 43.9366 18.9671 43.2722 19.6737C42.3482 20.6571 41.3016 21.7711 39.2822 21.7711Z" fill="#444444" stroke="#444444" stroke-width="0.75"/>
<path d="M39.2822 34.2711C37.2636 34.2711 36.217 33.1571 35.293 32.1737C34.4359 31.2604 33.6919 30.4706 32.1388 30.4706C30.5856 30.4706 29.8442 31.2604 28.9853 32.1737C28.0613 33.1571 27.0139 34.2711 24.9962 34.2711C22.9785 34.2711 21.931 33.1571 21.007 32.1737C20.1499 31.2604 19.4068 30.4706 17.8536 30.4706C16.3005 30.4706 15.5591 31.2604 14.7002 32.1737C13.7771 33.1571 12.7288 34.2711 10.711 34.2711C8.69334 34.2711 7.64591 33.1571 6.72276 32.1737C6.05973 31.4672 5.4644 30.8346 4.51027 30.5844C4.0027 30.4512 3.56934 30.0452 3.56934 29.5204V29.5204C3.56934 28.9957 3.99955 28.5574 4.5142 28.6599C5.93838 28.9434 6.7906 29.8504 7.55762 30.6665C8.41476 31.581 9.15876 32.3709 10.711 32.3709C12.2633 32.3709 13.0056 31.581 13.8645 30.6665C14.7885 29.6843 15.8359 28.5703 17.8536 28.5703C19.8713 28.5703 20.9188 29.6843 21.8428 30.6665C22.6999 31.581 23.443 32.3709 24.9962 32.3709C26.5493 32.3709 27.2908 31.581 28.1496 30.6665C29.0736 29.6843 30.1211 28.5703 32.1388 28.5703C34.1565 28.5703 35.2048 29.6843 36.1288 30.6665C36.9859 31.581 37.7299 32.3709 39.2822 32.3709C40.8345 32.3709 41.5776 31.581 42.4365 30.6665C43.2042 29.8504 44.0572 28.9433 45.4816 28.6599C45.9963 28.5574 46.4265 28.9957 46.4265 29.5204V29.5204C46.4265 30.0452 45.9931 30.4512 45.4855 30.5843C44.5313 30.8345 43.9366 31.4671 43.2722 32.1737C42.3482 33.1571 41.3016 34.2711 39.2822 34.2711Z" fill="#444444" stroke="#444444" stroke-width="0.75"/>
</svg>
