<svg width="24" height="25" viewBox="0 0 24 25" fill="none" xmlns="http://www.w3.org/2000/svg">
<path d="M19 16.4995V16.7356L19.1056 16.9467L20.0693 18.8742C20.2983 19.6839 19.6903 20.4995 18.8377 20.4995H3.16228C2.30967 20.4995 1.70172 19.6839 1.93067 18.8742L2.89443 16.9467L3 16.7356V16.4995V12.4995C3 8.08123 6.58172 4.49951 11 4.49951C15.4183 4.49951 19 8.08123 19 12.4995V16.4995Z" stroke="#222222" stroke-width="2"/>
<rect x="10" y="1.49951" width="2" height="4" rx="1" fill="#222222"/>
<path d="M8.17065 22.4995C8.58249 23.6647 9.69373 24.4995 10.9999 24.4995C12.3062 24.4995 13.4174 23.6647 13.8292 22.4995H8.17065Z" fill="#222222"/>
<circle cx="22" cy="2.49951" r="2" fill="#EF4C57"/>
</svg>
