<svg width="20" height="21" viewBox="0 0 20 21" fill="none" xmlns="http://www.w3.org/2000/svg">
<path d="M2.56109 14.2805L2.66667 14.0694V13.8333V10.5C2.66667 6.91015 5.57682 4 9.16667 4C12.7565 4 15.6667 6.91015 15.6667 10.5V13.8333V14.0694L15.7722 14.2805L16.568 15.8721C16.7175 16.4364 16.2923 17 15.6981 17H2.63523C2.04099 17 1.61579 16.4364 1.76531 15.8721L2.56109 14.2805Z" stroke="#444444" stroke-width="2"/>
<rect x="8.33331" y="1.33337" width="1.66667" height="3.33333" rx="0.833333" fill="#444444"/>
<path d="M6.8089 18.8334C7.1521 19.8044 8.07813 20.5 9.16664 20.5C10.2552 20.5 11.1812 19.8044 11.5244 18.8334H6.8089Z" fill="#444444"/>
</svg>
