<svg width="45" height="40" viewBox="0 0 45 40" fill="none" xmlns="http://www.w3.org/2000/svg">
<rect x="31.9551" width="10.1821" height="10.1821" fill="#D5F4EF"/>
<rect x="2.4082" width="11.6367" height="11.6367" rx="5.81837" fill="#D5F4EF"/>
<g clip-path="url(#clip0_5300_21808)">
<path d="M-0.00159454 18H9.57119C9.57119 21.3523 10.9332 24.5673 13.3575 26.9378C15.7818 29.3082 19.0699 30.6399 22.4984 30.6399C25.9269 30.6399 29.215 29.3082 31.6393 26.9378C34.0637 24.5673 35.4256 21.3523 35.4256 18H45C44.9501 23.803 42.5576 29.3517 38.3433 33.4378C34.129 37.524 28.4343 39.8167 22.4992 39.8167C16.5642 39.8167 10.8694 37.524 6.65514 33.4378C2.44083 29.3517 0.0482597 23.803 -0.00159454 18Z" fill="#D5F4EF"/>
</g>
<defs>
<clipPath id="clip0_5300_21808">
<rect width="45" height="22" fill="white" transform="matrix(-1 0 0 1 45 18)"/>
</clipPath>
</defs>
</svg>
