<svg width="74" height="65" viewBox="0 0 74 65" fill="none" xmlns="http://www.w3.org/2000/svg">
<rect width="50" height="65" rx="6" fill="#E8E8E8"/>
<rect x="8" y="11" width="12" height="3" rx="1.5" fill="white"/>
<rect x="8" y="18" width="23" height="3" rx="1.5" fill="white"/>
<rect x="8" y="25" width="19" height="3" rx="1.5" fill="white"/>
<rect x="43.5" y="16.5" width="17" height="27" rx="8.5" fill="white" stroke="#444444" stroke-width="3"/>
<rect x="30" y="30" width="44" height="35" rx="8" fill="white"/>
<path d="M32 50L72 50V60C72 62.2091 70.2091 64 68 64H36C33.7909 64 32 62.2091 32 60V50Z" fill="#FFE665"/>
<rect x="31.5" y="29.5" width="41" height="34" rx="6.5" stroke="#444444" stroke-width="3"/>
<rect x="50.8008" y="41.9844" width="2.6" height="12.1579" rx="1.3" fill="#444444"/>
<circle cx="52" cy="43" r="3" fill="#444444"/>
</svg>
