<svg width="16" height="15" viewBox="0 0 16 15" fill="none" xmlns="http://www.w3.org/2000/svg">
<path d="M6.20653 1.63397C6.94016 0.14748 9.05984 0.14748 9.79347 1.63397L10.4736 3.01203C10.7649 3.60232 11.328 4.01146 11.9795 4.10611L13.5002 4.3271C15.1407 4.56547 15.7957 6.58141 14.6087 7.73848L13.5082 8.81115C13.0368 9.27063 12.8218 9.93263 12.933 10.5814L13.1928 12.096C13.473 13.7299 11.7582 14.9758 10.2909 14.2044L8.93068 13.4893C8.34803 13.183 7.65197 13.183 7.06932 13.4893L5.70909 14.2044C4.24184 14.9758 2.52697 13.7299 2.80719 12.096L3.06697 10.5814C3.17825 9.93263 2.96315 9.27063 2.49178 8.81115L1.39133 7.73848C0.2043 6.58141 0.85932 4.56547 2.49976 4.3271L4.02054 4.10611C4.67196 4.01146 5.23509 3.60232 5.52641 3.01203L6.20653 1.63397Z" fill="#47BDFF"/>
</svg>
