<svg width="53" height="64" viewBox="0 0 53 64" fill="none" xmlns="http://www.w3.org/2000/svg">
<g opacity="0.5">
<path d="M10.3909 6.37H11.6259V9.477H12.8999V2.275H11.6259V5.278H10.3909V2.483H9.12992V9.1H10.3909V6.37ZM8.85692 7.644C7.33592 7.046 6.56892 5.759 6.56892 4.459V2.977H5.26892V4.459C5.26892 5.798 4.47592 7.267 2.90292 7.982L3.60492 9.009C4.73592 8.515 5.50292 7.605 5.93192 6.526C6.37392 7.462 7.10192 8.242 8.14192 8.645L8.85692 7.644ZM8.98692 12.974C7.33592 12.974 6.34792 12.571 6.34792 11.856C6.34792 11.128 7.33592 10.725 8.98692 10.725C10.6379 10.725 11.6259 11.128 11.6259 11.856C11.6259 12.571 10.6379 12.974 8.98692 12.974ZM8.98692 9.698C6.54292 9.698 5.00892 10.504 5.00892 11.856C5.00892 13.195 6.54292 14.001 8.98692 14.001C11.4309 14.001 12.9649 13.195 12.9649 11.856C12.9649 10.504 11.4309 9.698 8.98692 9.698ZM21.7649 3.081H19.0999V2.145H17.7479V3.081H15.0699V4.004H21.7649V3.081ZM16.8769 5.837C16.8769 5.395 17.4749 5.148 18.4109 5.148C19.3599 5.148 19.9449 5.395 19.9449 5.837C19.9449 6.292 19.3599 6.539 18.4109 6.539C17.4749 6.539 16.8769 6.292 16.8769 5.837ZM22.0899 7.696C21.1409 7.826 20.1139 7.904 19.0999 7.956V7.345C20.4129 7.215 21.2059 6.682 21.2059 5.837C21.2059 4.875 20.1139 4.303 18.4109 4.303C16.7079 4.303 15.6159 4.875 15.6159 5.837C15.6159 6.682 16.4219 7.215 17.7479 7.345V8.008C16.6689 8.034 15.6419 8.034 14.7579 8.034L14.9009 8.983C16.9419 8.983 19.7109 8.957 22.1939 8.515L22.0899 7.696ZM17.6699 12.155H24.0529V9.659H16.3179V10.569H22.7269V11.31H16.3439V13.897H24.4819V12.974H17.6699V12.155ZM24.0529 5.161V2.262H22.7139V9.165H24.0529V6.266H25.6649V5.161H24.0529ZM36.8049 5.772C34.4779 5.473 32.7489 4.186 32.7489 2.834V2.379H31.3709V2.834C31.3709 4.199 29.6679 5.473 27.3149 5.772L27.8089 6.812C29.7199 6.552 31.3059 5.668 32.0599 4.446C32.8269 5.668 34.4129 6.552 36.3239 6.812L36.8049 5.772ZM34.6729 12.792H29.3819V11.531H34.6729V12.792ZM34.6729 10.504H29.3819V9.308H28.0559V13.858H36.0119V9.308H34.6729V10.504ZM26.7429 7.514V8.58H37.3769V7.514H26.7429ZM44.8509 7.293C45.1369 5.772 45.1369 4.615 45.1369 3.822V3.146H39.2349V4.238H43.8239C43.8109 4.966 43.7719 5.889 43.5379 7.15L44.8509 7.293ZM45.8259 7.878C44.6689 8.06 43.4079 8.138 42.1859 8.19V5.824H40.8599V8.229C40.0279 8.255 39.2219 8.255 38.5199 8.255L38.6629 9.347C40.7039 9.347 43.4729 9.282 45.9169 8.853L45.8259 7.878ZM41.6399 10.296H40.2879V13.78H48.2699V12.688H41.6399V10.296ZM47.8929 5.98V2.262H46.5409V11.076H47.8929V7.085H49.4529V5.98H47.8929Z" fill="white"/>
<ellipse cx="26.0421" cy="43.4206" rx="20.3811" ry="20.355" fill="#E9F7FF"/>
<g clip-path="url(#clip0_1958_10949)">
<rect x="20" y="42.9999" width="11" height="1.5" fill="#444444"/>
<path d="M31.6655 38.7765L31.8077 37.4373C31.9017 36.5528 31.2083 35.7818 30.3188 35.7818H20.9212C20.0316 35.7818 19.3383 36.5528 19.4322 37.4373L20.6338 48.7464C20.7552 49.8885 21.7187 50.7551 22.8673 50.7551H28.3727C29.5213 50.7551 30.4848 49.8885 30.6062 48.7464L30.6314 48.5091" stroke="#444444" stroke-width="1.49733" stroke-linecap="round" stroke-linejoin="round"/>
<path d="M34.2299 46.6808C34.2299 48.6397 32.7074 50.0082 31.2353 50.0082C29.7631 50.0082 28.2406 48.6397 28.2406 46.6808C28.2406 45.8064 28.6786 44.7765 29.3191 43.7665C29.9467 42.7769 30.7056 41.9038 31.2126 41.3642C31.22 41.3564 31.2252 41.3538 31.2274 41.3528C31.2302 41.3516 31.2328 41.3512 31.2353 41.3512C31.2377 41.3512 31.2403 41.3516 31.2431 41.3528C31.2454 41.3538 31.2506 41.3564 31.2579 41.3642C31.765 41.9038 32.5238 42.7769 33.1514 43.7665C33.792 44.7765 34.2299 45.8064 34.2299 46.6808Z" fill="white" stroke="#444444" stroke-width="1.49733"/>
</g>
</g>
<defs>
<clipPath id="clip0_1958_10949">
<rect width="17.4695" height="17.4471" fill="white" transform="translate(17.759 34.2855)"/>
</clipPath>
</defs>
</svg>
