<svg width="53" height="64" viewBox="0 0 53 64" fill="none" xmlns="http://www.w3.org/2000/svg">
<g opacity="0.5">
<ellipse cx="27.2548" cy="43.011" rx="20.3811" ry="20.355" fill="#E9F7FF"/>
<g clip-path="url(#clip0_1920_11067)">
<path d="M31.2571 36.4681H32.167C32.6013 36.4681 33.0179 36.6383 33.3251 36.9412C33.6322 37.2442 33.8047 37.6551 33.8047 38.0836V49.3919C33.8047 49.8203 33.6322 50.2312 33.3251 50.5342C33.0179 50.8372 32.6013 51.0074 32.167 51.0074H22.3404C21.906 51.0074 21.4895 50.8372 21.1823 50.5342C20.8752 50.2312 20.7026 49.8203 20.7026 49.3919V38.0836C20.7026 37.6551 20.8752 37.2442 21.1823 36.9412C21.4895 36.6383 21.906 36.4681 22.3404 36.4681H23.2503" stroke="#444444" stroke-width="1.49733" stroke-linecap="round" stroke-linejoin="round"/>
<path d="M29.9839 35.0114H24.5247C24.0222 35.0114 23.6149 35.3368 23.6149 35.7383V37.9192C23.6149 38.3207 24.0222 38.6462 24.5247 38.6462H29.9839C30.4865 38.6462 30.8938 38.3207 30.8938 37.9192V35.7383C30.8938 35.3368 30.4865 35.0114 29.9839 35.0114Z" stroke="#444444" stroke-width="1.49733" stroke-linecap="round" stroke-linejoin="round"/>
</g>
<path d="M3.66388 3.497V4.589H7.84988C7.61588 7.293 6.15988 9.36 3.07888 10.842L3.79388 11.908C7.82388 9.958 9.22788 6.994 9.22788 3.497H3.66388ZM11.3469 2.262V14.001H12.6859V2.262H11.3469ZM17.5729 10.491H16.2209V13.78H24.3199V12.688H17.5729V10.491ZM17.5859 5.083H22.8119V6.383H17.5859V5.083ZM20.8619 8.58V7.449H24.1379V2.717H22.8119V4.043H17.5859V2.717H16.2599V7.449H19.5099V8.58H14.8689V9.659H25.5159V8.58H20.8619ZM33.0939 5.213V6.305H35.1739V9.256H36.5129V2.262H35.1739V5.213H33.0939ZM33.7699 7.826C32.0149 7.215 31.0139 5.759 31.0139 4.29V4.134H33.4579V3.055H27.1789V4.134H29.6619V4.303C29.6619 5.915 28.6089 7.475 26.7889 8.125L27.4779 9.191C28.8689 8.697 29.8569 7.657 30.3769 6.37C30.8709 7.501 31.8069 8.424 33.1069 8.879L33.7699 7.826ZM32.6129 12.974C30.9359 12.974 29.9869 12.558 29.9869 11.791C29.9869 11.024 30.9359 10.608 32.6129 10.608C34.2639 10.608 35.2259 11.024 35.2259 11.791C35.2259 12.558 34.2639 12.974 32.6129 12.974ZM32.6129 9.568C30.1559 9.568 28.6479 10.4 28.6479 11.791C28.6479 13.195 30.1559 14.014 32.6129 14.014C35.0569 14.014 36.5649 13.195 36.5649 11.791C36.5649 10.4 35.0569 9.568 32.6129 9.568ZM41.2048 6.097H46.7688V8.021H41.2048V6.097ZM44.6498 11.466V9.1H48.0948V3.042H46.7688V5.018H41.2048V3.042H39.8788V9.1H43.3108V11.466H38.6828V12.571H49.3168V11.466H44.6498Z" fill="white"/>
</g>
<defs>
<clipPath id="clip0_1920_11067">
<rect width="17.4695" height="17.4471" fill="white" transform="translate(18.5192 34.2853)"/>
</clipPath>
</defs>
</svg>
