<svg width="80" height="80" viewBox="0 0 80 80" fill="none" xmlns="http://www.w3.org/2000/svg">
<circle cx="40" cy="40" r="40" fill="#EBEBEB"/>
<path d="M21.3504 32.272H22.5864V37.144C22.1664 37.156 21.7584 37.18 21.3504 37.18V32.272ZM24.1104 32.272H25.0584V31H18.8544V32.272H19.8144V37.216C19.3824 37.216 18.9624 37.216 18.5664 37.216L18.7344 38.512C20.7144 38.5 23.2584 38.452 25.5864 38.056L25.4904 36.916C25.0344 36.976 24.5784 37.024 24.1104 37.048V32.272ZM26.1984 29.992V41.044H27.7944V29.992H26.1984ZM36.8294 34.036H32.2814V32.896H36.8294V34.036ZM38.3894 30.4H36.8294V31.66H32.2814V30.4H30.7094V35.296H38.3894V30.4ZM39.5774 36.34H29.5694V37.6H33.7454V41.044H35.3294V37.6H39.5774V36.34ZM45.5285 31.612C46.9685 31.612 47.8925 32.044 47.8925 32.824C47.8925 33.616 46.9685 34.036 45.5285 34.036C44.0765 34.036 43.1525 33.616 43.1525 32.824C43.1525 32.044 44.0765 31.612 45.5285 31.612ZM45.5285 35.296C47.8805 35.296 49.5245 34.336 49.5245 32.824C49.5245 31.324 47.8805 30.352 45.5285 30.352C43.1645 30.352 41.5325 31.324 41.5325 32.824C41.5325 34.336 43.1645 35.296 45.5285 35.296ZM50.5565 36.124H40.5485V37.408H42.8165V41.02H44.4125V37.408H46.6325V41.02H48.2405V37.408H50.5565V36.124ZM59.1836 37.012H60.7676V29.98H59.1836V32.404H57.7676V33.664H59.1836V34.612H57.7436V35.872H59.1836V37.012ZM57.6236 30.976H55.4636V29.896H53.8796V30.976H51.5636V32.224H57.6236V30.976ZM53.5556 34.672C53.5556 34.096 53.9996 33.784 54.6716 33.784C55.3316 33.784 55.7876 34.096 55.7876 34.672C55.7876 35.248 55.3316 35.56 54.6716 35.56C53.9996 35.56 53.5556 35.248 53.5556 34.672ZM57.2516 34.672C57.2516 33.448 56.1836 32.608 54.6716 32.608C53.1476 32.608 52.0796 33.448 52.0796 34.672C52.0796 35.896 53.1476 36.736 54.6716 36.736C56.1836 36.736 57.2516 35.896 57.2516 34.672ZM57.0356 39.832C55.6676 39.832 54.9236 39.604 54.9236 39.1C54.9236 38.584 55.6676 38.368 57.0356 38.368C58.3916 38.368 59.1476 38.584 59.1476 39.1C59.1476 39.604 58.3916 39.832 57.0356 39.832ZM57.0356 37.156C54.7076 37.156 53.2436 37.876 53.2436 39.1C53.2436 40.312 54.7076 41.032 57.0356 41.032C59.3636 41.032 60.8156 40.312 60.8156 39.1C60.8156 37.876 59.3636 37.156 57.0356 37.156ZM32.51 53H34.274V46.28H32.51V53ZM33.398 45.2C33.998 45.2 34.418 44.816 34.418 44.228C34.418 43.652 33.998 43.268 33.398 43.268C32.786 43.268 32.366 43.652 32.366 44.228C32.366 44.816 32.786 45.2 33.398 45.2ZM38.9505 53.168C39.6945 53.168 40.5105 52.916 41.1585 52.352L40.4505 51.188C40.0785 51.5 39.6225 51.728 39.1425 51.728C38.1825 51.728 37.4745 50.912 37.4745 49.64C37.4745 48.38 38.1705 47.552 39.2025 47.552C39.5745 47.552 39.8865 47.708 40.2225 47.996L41.0625 46.856C40.5705 46.436 39.9345 46.112 39.1065 46.112C37.2825 46.112 35.6745 47.408 35.6745 49.64C35.6745 51.872 37.0905 53.168 38.9505 53.168ZM44.8073 53.168C46.4873 53.168 48.0353 51.872 48.0353 49.64C48.0353 47.408 46.4873 46.112 44.8073 46.112C43.1273 46.112 41.5793 47.408 41.5793 49.64C41.5793 51.872 43.1273 53.168 44.8073 53.168ZM44.8073 51.728C43.8953 51.728 43.3793 50.912 43.3793 49.64C43.3793 48.38 43.8953 47.552 44.8073 47.552C45.7193 47.552 46.2353 48.38 46.2353 49.64C46.2353 50.912 45.7193 51.728 44.8073 51.728Z" fill="#888888"/>
</svg>
