<svg width="53" height="67" viewBox="0 0 53 67" fill="none" xmlns="http://www.w3.org/2000/svg">
<g clip-path="url(#clip0_1958_10930)">
<rect width="16" height="12" rx="6" transform="matrix(1 0 0 -1 19.0002 48)" fill="white"/>
<rect width="14" height="9" rx="4.5" transform="matrix(1 0 0 -1 19.9998 48)" fill="#FFE665"/>
<path d="M29.6405 47.7644V47.7644C32.6186 47.7644 35.0327 45.3502 35.0327 42.3722V41.7751C35.0327 38.4673 32.3512 35.7858 29.0434 35.7858H24.5514C21.2436 35.7858 18.5621 38.4673 18.5621 41.7751V42.0781C18.5621 45.2186 21.1079 47.7644 24.2484 47.7644V47.7644C25.5621 47.7644 26.8954 48.3633 26.8954 50.7591" stroke="#222222" stroke-width="1.3476" stroke-linecap="round"/>
<circle cx="23.2405" cy="41.9609" r="0.93583" fill="#222222"/>
<circle cx="26.9837" cy="41.9609" r="0.93583" fill="#222222"/>
<circle cx="30.7279" cy="41.9609" r="0.93583" fill="#222222"/>
</g>
<path d="M5.90837 4.628H7.24737V9.906C6.79237 9.919 6.35037 9.945 5.90837 9.945V4.628ZM8.89837 4.628H9.92537V3.25H3.20437V4.628H4.24437V9.984C3.77637 9.984 3.32137 9.984 2.89237 9.984L3.07437 11.388C5.21937 11.375 7.97537 11.323 10.4974 10.894L10.3934 9.659C9.89937 9.724 9.40537 9.776 8.89837 9.802V4.628ZM11.1604 2.158V14.131H12.8894V2.158H11.1604ZM22.6774 6.539H17.7504V5.304H22.6774V6.539ZM24.3674 2.6H22.6774V3.965H17.7504V2.6H16.0474V7.904H24.3674V2.6ZM25.6544 9.035H14.8124V10.4H19.3364V14.131H21.0524V10.4H25.6544V9.035ZM36.0273 10.049C36.5083 7.501 36.5083 5.811 36.5083 4.316V3.172H27.8113V4.537H34.7923C34.7923 5.928 34.7663 7.592 34.3113 9.854L36.0273 10.049ZM32.2573 11.297V7.176H30.5413V11.297H26.7193V12.675H37.5483V11.297H32.2573ZM48.5453 2.145H46.8163V10.66H48.5453V2.145ZM43.3323 7.527H40.8883V4.446H43.3323V7.527ZM45.0093 3.094H39.1983V8.879H45.0093V3.094ZM42.2923 12.493V9.906H40.5763V13.871H48.8443V12.493H42.2923Z" fill="#FFE665"/>
<path fill-rule="evenodd" clip-rule="evenodd" d="M11.2788 43.7369C11.3144 47.9908 13.0171 52.0583 16.0164 55.0537C19.0157 58.0492 23.0686 59.7299 27.2925 59.7299C31.5164 59.7299 35.5693 58.0492 38.5686 55.0537C41.5679 52.0583 43.2706 47.9908 43.3062 43.7369H50.5853C50.5337 49.9245 48.0569 55.841 43.6943 60.1981C39.3317 64.5551 33.4366 66.9998 27.2926 66.9998C21.1487 66.9998 15.2536 64.5551 10.891 60.1981C6.52838 55.841 4.05161 49.9245 4 43.7369H11.2788Z" fill="#FFE665"/>
<defs>
<clipPath id="clip0_1958_10930">
<rect width="18.9623" height="17.6982" fill="white" transform="translate(17.7815 34.1322)"/>
</clipPath>
</defs>
</svg>
