<svg width="53" height="64" viewBox="0 0 53 64" fill="none" xmlns="http://www.w3.org/2000/svg">
<g opacity="0.5">
<ellipse cx="26.5482" cy="43.011" rx="20.3811" ry="20.355" fill="#E9F7FF"/>
<g clip-path="url(#clip0_1920_11059)">
<path d="M29.6405 47.7644V47.7644C32.6186 47.7644 35.0327 45.3502 35.0327 42.3722V41.7751C35.0327 38.4673 32.3512 35.7858 29.0434 35.7858H24.5514C21.2436 35.7858 18.5621 38.4673 18.5621 41.7751V42.0781C18.5621 45.2186 21.1079 47.7644 24.2484 47.7644V47.7644C25.5621 47.7644 26.8954 48.3633 26.8954 50.7591" stroke="#444444" stroke-width="1.3476" stroke-linecap="round"/>
<circle cx="23.2405" cy="41.9609" r="0.93583" fill="#444444"/>
<circle cx="26.9837" cy="41.9609" r="0.93583" fill="#444444"/>
<circle cx="30.7279" cy="41.9609" r="0.93583" fill="#444444"/>
</g>
<path d="M5.77837 4.524H7.45537V10.01C6.89637 10.036 6.32437 10.049 5.77837 10.075V4.524ZM8.75537 4.524H9.92537V3.445H3.30837V4.524H4.47837V10.075C3.95837 10.088 3.45137 10.088 2.99637 10.088L3.13937 11.193C5.27137 11.193 8.04037 11.154 10.5494 10.738L10.4714 9.75C9.91237 9.815 9.34037 9.88 8.75537 9.919V4.524ZM11.3684 2.262V14.014H12.7074V2.262H11.3684ZM22.8984 6.773H17.5294V5.278H22.8984V6.773ZM24.2374 2.717H22.8984V4.199H17.5294V2.717H16.1904V7.852H24.2374V2.717ZM25.5504 9.126H14.9034V10.205H19.5184V14.014H20.8574V10.205H25.5504V9.126ZM34.9223 4.511C34.9223 5.915 34.9223 7.579 34.4673 9.88L35.8193 10.023C36.2743 7.592 36.2743 5.967 36.2743 4.511V3.354H27.9153V4.446H34.9223V4.511ZM32.1143 11.362V7.228H30.7623V11.362H26.8103V12.467H37.4183V11.362H32.1143ZM48.3763 2.275H47.0373V10.66H48.3763V2.275ZM43.5663 7.722H40.6153V4.316H43.5663V7.722ZM44.8663 3.237H39.3023V8.801H44.8663V3.237ZM42.0583 12.597V9.893H40.7063V13.676H48.7143V12.597H42.0583Z" fill="white"/>
</g>
<defs>
<clipPath id="clip0_1920_11059">
<rect width="18.9623" height="17.6982" fill="white" transform="translate(17.7815 34.1322)"/>
</clipPath>
</defs>
</svg>
