<svg width="73" height="66" viewBox="0 0 73 66" fill="none" xmlns="http://www.w3.org/2000/svg">
<g filter="url(#filter0_d_837_6934)">
<path fill-rule="evenodd" clip-rule="evenodd" d="M18.5787 45.0636C13.8826 40.84 11 35.1247 11 28.833C11 15.83 23.3122 5.28893 38.5 5.28893C53.6878 5.28893 66 15.83 66 28.833C66 41.8361 53.6878 52.3771 38.5 52.3771C33.3206 52.3771 28.4757 51.1512 24.3394 49.0199C23.0065 50.2178 19.8445 52.1212 16.0004 51.4422C16.9267 50.4604 18.7334 47.9053 18.5787 45.0636Z" fill="#FFE665"/>
<path d="M18.5787 45.0636L19.0802 44.506C19.2279 44.6388 19.3168 44.8246 19.3276 45.0229L18.5787 45.0636ZM24.3394 49.0199L23.8381 48.4621C24.0698 48.2539 24.4061 48.2105 24.683 48.3532L24.3394 49.0199ZM16.0004 51.4422L15.8699 52.1808C15.5984 52.1328 15.3751 51.9397 15.2884 51.678C15.2017 51.4162 15.2656 51.128 15.4548 50.9275L16.0004 51.4422ZM11.75 28.833C11.75 34.8847 14.5208 40.4053 19.0802 44.506L18.0772 45.6213C13.2444 41.2747 10.25 35.3647 10.25 28.833H11.75ZM38.5 6.03893C23.6129 6.03893 11.75 16.3492 11.75 28.833H10.25C10.25 15.3107 23.0115 4.53893 38.5 4.53893V6.03893ZM65.25 28.833C65.25 16.3492 53.3871 6.03893 38.5 6.03893V4.53893C53.9885 4.53893 66.75 15.3107 66.75 28.833H65.25ZM38.5 51.6271C53.3871 51.6271 65.25 41.3168 65.25 28.833H66.75C66.75 42.3553 53.9885 53.1271 38.5 53.1271V51.6271ZM24.683 48.3532C28.7118 50.4292 33.4388 51.6271 38.5 51.6271V53.1271C33.2024 53.1271 28.2396 51.8733 23.9959 49.6866L24.683 48.3532ZM16.1308 50.7036C19.6664 51.3281 22.6042 49.571 23.8381 48.4621L24.8408 49.5777C23.4089 50.8646 20.0226 52.9143 15.8699 52.1808L16.1308 50.7036ZM19.3276 45.0229C19.4141 46.6116 18.9523 48.0908 18.3682 49.2808C17.7838 50.4715 17.0554 51.4168 16.5459 51.9569L15.4548 50.9275C15.8716 50.4858 16.5098 49.6627 17.0216 48.6199C17.5338 47.5765 17.898 46.3574 17.8298 45.1044L19.3276 45.0229Z" fill="#FFE665"/>
</g>
<defs>
<filter id="filter0_d_837_6934" x="0.25" y="0.538925" width="72.5" height="64.5882" filterUnits="userSpaceOnUse" color-interpolation-filters="sRGB">
<feFlood flood-opacity="0" result="BackgroundImageFix"/>
<feColorMatrix in="SourceAlpha" type="matrix" values="0 0 0 0 0 0 0 0 0 0 0 0 0 0 0 0 0 0 127 0" result="hardAlpha"/>
<feOffset dx="-2" dy="4"/>
<feGaussianBlur stdDeviation="4"/>
<feComposite in2="hardAlpha" operator="out"/>
<feColorMatrix type="matrix" values="0 0 0 0 0.133333 0 0 0 0 0.133333 0 0 0 0 0.133333 0 0 0 0.1 0"/>
<feBlend mode="normal" in2="BackgroundImageFix" result="effect1_dropShadow_837_6934"/>
<feBlend mode="normal" in="SourceGraphic" in2="effect1_dropShadow_837_6934" result="shape"/>
</filter>
</defs>
</svg>
