<svg width="81" height="62" viewBox="0 0 81 62" fill="none" xmlns="http://www.w3.org/2000/svg">
<g clip-path="url(#clip0_2127_14760)">
<path d="M0 31.5184C0 31.5184 15.2355 34.9444 23.8235 31.5184C32.3252 28.1268 31.2898 16.6923 40.5 16.6923C49.7102 16.6923 48.6748 28.1268 57.1765 31.5184C65.7645 34.9444 81 31.5184 81 31.5184V38.3612C81 38.3612 73.8529 39.5017 67.3015 42.9231C61.4711 42.7447 59.4355 37.1286 53.6029 37.2207C47.9829 37.3095 46.1208 42.9231 40.5 42.9231C34.8792 42.9231 33.015 37.392 27.3971 37.2207C21.3527 37.0364 19.1503 42.9082 13.1029 42.9231C8.33823 40.6421 0 38.3612 0 38.3612V31.5184Z" fill="white"/>
<path d="M81 32.1367C81 32.8466 80.4245 33.422 79.7147 33.422H58.8578C54.5729 33.422 50.7481 30.5173 49.5574 26.353C47.9908 20.8906 44.4366 17.3464 40.5016 17.3464C36.5666 17.3464 33.0107 20.8809 31.4442 26.353C30.2535 30.5125 26.4222 33.422 22.1437 33.422H1.28686C0.577025 33.422 0.00158691 32.8466 0.00158691 32.1367C0.00158691 31.4269 0.577024 30.8514 1.28686 30.8514H22.1437C25.3254 30.8514 28.0616 28.7629 28.9477 25.6557C30.8399 19.0494 35.3727 14.7807 40.4983 14.7807C45.624 14.7807 50.1552 19.0494 52.0473 25.6557C52.9367 28.7629 55.6729 30.8514 58.8513 30.8514H79.7147C80.4245 30.8514 81 31.4269 81 32.1367Z" fill="#444444"/>
<path d="M16.1968 61.9998C16.0267 61.9997 15.8584 61.9662 15.7016 61.9011C15.5448 61.836 15.4025 61.7407 15.2831 61.6207C15.2222 61.5624 15.1679 61.4977 15.1211 61.4279C15.0738 61.3587 15.0326 61.2856 14.998 61.2094C14.972 61.1323 14.9461 61.0487 14.9267 60.9716C14.9116 60.8867 14.903 60.8008 14.9008 60.7146C14.903 60.6305 14.9116 60.5467 14.9267 60.4639C14.9457 60.3826 14.9717 60.3031 15.0044 60.2261C15.0368 60.148 15.0758 60.0728 15.1211 60.0012C15.1679 59.9314 15.2222 59.8667 15.2831 59.8085C15.4333 59.6591 15.6183 59.5488 15.8217 59.4871C16.0251 59.4255 16.2407 59.4144 16.4495 59.455C16.5334 59.4717 16.6158 59.4954 16.6957 59.5257C16.7733 59.5586 16.8471 59.5996 16.916 59.6478C16.99 59.6921 17.0576 59.7462 17.1169 59.8085C17.1759 59.8684 17.2301 59.9329 17.2789 60.0012C17.3242 60.0728 17.3632 60.148 17.3956 60.2261C17.429 60.3022 17.453 60.3821 17.4668 60.4639C17.4851 60.5462 17.4938 60.6303 17.4928 60.7146C17.4938 60.8009 17.4851 60.8872 17.4668 60.9716C17.4521 61.0533 17.4282 61.133 17.3956 61.2094C17.3632 61.2855 17.3241 61.3585 17.2789 61.4279C17.2321 61.4977 17.1778 61.5624 17.1169 61.6207C16.9963 61.741 16.853 61.8364 16.695 61.9015C16.5371 61.9665 16.3678 62 16.1968 61.9998Z" fill="#444444"/>
<path d="M24.2967 53.9731C23.953 53.9731 23.6234 53.8377 23.3803 53.5967C23.1373 53.3556 23.0007 53.0287 23.0007 52.6879C23.0008 52.6018 23.0073 52.5159 23.0202 52.4308C23.0402 52.3498 23.0662 52.2703 23.0979 52.193C23.129 52.1163 23.1681 52.0431 23.2146 51.9745C23.2634 51.9041 23.3175 51.8375 23.3766 51.7753C23.626 51.5462 23.9535 51.4189 24.2935 51.4189C24.6335 51.4189 24.961 51.5462 25.2104 51.7753C25.4536 52.018 25.5909 52.3457 25.5927 52.6879C25.5905 52.7719 25.5819 52.8557 25.5668 52.9385C25.5478 53.0198 25.5217 53.0994 25.4891 53.1763C25.458 53.253 25.4189 53.3262 25.3724 53.3947C25.3257 53.4666 25.2714 53.5334 25.2104 53.594C24.964 53.8326 24.6346 53.9683 24.2903 53.9731H24.2967Z" fill="#444444"/>
<path d="M32.4033 62.0002C32.2322 62.0003 32.0629 61.9669 31.905 61.9018C31.747 61.8367 31.6037 61.7413 31.4831 61.621C31.4222 61.5627 31.3679 61.4981 31.3211 61.4282C31.2759 61.3589 31.2369 61.2858 31.2045 61.2097C31.1718 61.1334 31.1479 61.0536 31.1332 60.972C31.1149 60.8875 31.1062 60.8013 31.1073 60.7149C31.1063 60.6306 31.1149 60.5465 31.1332 60.4643C31.147 60.3824 31.171 60.3025 31.2045 60.2265C31.2365 60.147 31.2778 60.0715 31.3276 60.0016C31.3742 59.9315 31.4285 59.8669 31.4896 59.8088C31.6412 59.6595 31.8274 59.5493 32.0318 59.4877C32.2362 59.4261 32.4527 59.415 32.6625 59.4553C32.7443 59.472 32.8245 59.4957 32.9022 59.526C32.9811 59.5603 33.057 59.6012 33.129 59.6481C33.2009 59.6926 33.2664 59.7466 33.3234 59.8088C33.3843 59.8671 33.4386 59.9317 33.4854 60.0016C33.5307 60.0731 33.5697 60.1484 33.6021 60.2265C33.6347 60.3034 33.6608 60.3829 33.6798 60.4643C33.6949 60.547 33.7035 60.6308 33.7057 60.7149C33.7035 60.8011 33.6949 60.887 33.6798 60.972C33.662 61.0529 33.6382 61.1323 33.6085 61.2097C33.5739 61.2859 33.5327 61.359 33.4854 61.4282C33.4386 61.4981 33.3843 61.5627 33.3234 61.621C33.2032 61.7418 33.0599 61.8375 32.9019 61.9026C32.7439 61.9678 32.5744 62.0009 32.4033 62.0002Z" fill="#444444"/>
<path d="M40.5032 53.9733C40.3317 53.9715 40.1623 53.9366 40.0042 53.8705C39.8469 53.8067 39.7038 53.7128 39.583 53.5941C39.342 53.3518 39.2069 53.0252 39.2069 52.6848C39.2069 52.3445 39.342 52.0178 39.583 51.7755C39.7355 51.6275 39.9217 51.5181 40.1259 51.4566C40.3301 51.3951 40.5462 51.3832 40.7559 51.422C40.8379 51.4409 40.9181 51.4668 40.9957 51.4992C41.0744 51.5313 41.1503 51.57 41.2225 51.6148C41.2914 51.6633 41.3564 51.717 41.4169 51.7755C41.4797 51.8344 41.5342 51.9014 41.5789 51.9747C41.6275 52.0431 41.6688 52.1163 41.702 52.1932C41.7317 52.2706 41.7555 52.3501 41.7733 52.431C41.7915 52.5154 41.8002 52.6017 41.7992 52.688C41.7966 53.0281 41.6593 53.3536 41.4168 53.5941C41.1743 53.8346 40.8461 53.9708 40.5032 53.9733Z" fill="#444444"/>
<path d="M48.6032 61.9998C48.4331 62.0004 48.2646 61.9671 48.1077 61.902C47.9508 61.8368 47.8086 61.7412 47.6895 61.6207C47.6269 61.5641 47.5723 61.4992 47.5275 61.4279C47.4778 61.3602 47.4365 61.2868 47.4044 61.2094C47.3747 61.132 47.3509 61.0525 47.3331 60.9716C47.3149 60.8872 47.3062 60.8009 47.3072 60.7146C47.3094 60.6305 47.3181 60.5467 47.3331 60.4639C47.3526 60.3804 47.3785 60.3033 47.4044 60.2261C47.4416 60.1491 47.4827 60.0741 47.5275 60.0012C47.5744 59.9314 47.6287 59.8667 47.6895 59.8085C47.8398 59.6591 48.0248 59.5488 48.2282 59.4871C48.4316 59.4255 48.6472 59.4144 48.8559 59.455C48.9399 59.4717 49.0222 59.4954 49.1022 59.5257C49.179 59.5601 49.2527 59.6009 49.3225 59.6478C49.3953 59.6938 49.4627 59.7477 49.5234 59.8085C49.5845 59.8665 49.6388 59.9312 49.6854 60.0012C49.7351 60.0712 49.7765 60.1467 49.8085 60.2261C49.842 60.3022 49.8659 60.3821 49.8798 60.4639C49.898 60.5462 49.9067 60.6303 49.9057 60.7146C49.9067 60.8009 49.898 60.8872 49.8798 60.9716C49.865 61.0533 49.8411 61.133 49.8085 61.2094C49.7761 61.2855 49.7371 61.3585 49.6919 61.4279C49.643 61.4962 49.5889 61.5607 49.5299 61.6207C49.4085 61.7417 49.2641 61.8376 49.105 61.9027C48.9459 61.9678 48.7753 62.0008 48.6032 61.9998Z" fill="#444444"/>
<path d="M56.7032 53.9733C56.6184 53.9711 56.534 53.9625 56.4505 53.9476C56.3685 53.9287 56.2883 53.9029 56.2107 53.8705C56.1308 53.841 56.0546 53.8022 55.9839 53.7548C55.9135 53.7084 55.8483 53.6545 55.7895 53.5941C55.6685 53.4757 55.5724 53.3347 55.5068 53.1791C55.4412 53.0236 55.4073 52.8567 55.4072 52.688C55.4094 52.6018 55.4181 52.5159 55.4332 52.431C55.4532 52.3499 55.4792 52.2705 55.5109 52.1932C55.5419 52.1165 55.581 52.0433 55.6275 51.9747C55.6743 51.9028 55.7286 51.8361 55.7895 51.7755C55.85 51.717 55.915 51.6633 55.9839 51.6148C56.0561 51.57 56.132 51.5313 56.2107 51.4992C56.2883 51.4668 56.3685 51.4409 56.4505 51.422C56.6603 51.3832 56.8764 51.3951 57.0805 51.4566C57.2847 51.5181 57.4709 51.6275 57.6234 51.7755C57.6824 51.8377 57.7366 51.9043 57.7854 51.9747C57.8319 52.0433 57.871 52.1165 57.902 52.1932C57.9346 52.2696 57.9585 52.3493 57.9733 52.431C57.9915 52.5154 58.0002 52.6017 57.9992 52.688C57.9984 53.0272 57.8635 53.3526 57.6234 53.5941C57.561 53.6531 57.4938 53.7068 57.4225 53.7548C57.3541 53.8021 57.2801 53.841 57.2022 53.8705C57.1243 53.902 57.0441 53.9278 56.9624 53.9476C56.8768 53.9629 56.7902 53.9714 56.7032 53.9733Z" fill="#444444"/>
<path d="M64.8033 62.0002C64.6332 62.0001 64.4649 61.9665 64.3081 61.9014C64.1513 61.8363 64.009 61.741 63.8896 61.621C63.8287 61.5627 63.7744 61.4981 63.7276 61.4282C63.6824 61.3589 63.6433 61.2858 63.6109 61.2097C63.5792 61.1325 63.5532 61.053 63.5332 60.972C63.5203 60.8869 63.5138 60.8009 63.5138 60.7149C63.5127 60.6306 63.5214 60.5465 63.5397 60.4643C63.5535 60.3824 63.5775 60.3025 63.6109 60.2265C63.6433 60.1484 63.6823 60.0731 63.7276 60.0016C63.7764 59.9332 63.8306 59.8687 63.8896 59.8088C64.0412 59.6595 64.2274 59.5493 64.4318 59.4877C64.6362 59.4261 64.8527 59.415 65.0625 59.4553C65.144 59.4729 65.2242 59.4966 65.3022 59.526C65.3811 59.5603 65.457 59.6012 65.529 59.6481C65.5997 59.6942 65.6649 59.7481 65.7234 59.8088C65.7843 59.8671 65.8386 59.9317 65.8854 60.0016C65.9307 60.0731 65.9697 60.1484 66.0021 60.2265C66.0347 60.3034 66.0608 60.3829 66.0798 60.4643C66.0927 60.5472 66.0992 60.631 66.0993 60.7149C66.0992 60.8009 66.0927 60.8869 66.0798 60.972C66.0598 61.053 66.0338 61.1325 66.0021 61.2097C65.9697 61.2858 65.9306 61.3589 65.8854 61.4282C65.8386 61.4981 65.7843 61.5627 65.7234 61.621C65.6028 61.7413 65.4595 61.8367 65.3015 61.9018C65.1436 61.9669 64.9743 62.0003 64.8033 62.0002Z" fill="#444444"/>
<path d="M72.9097 53.9733C72.7387 53.9734 72.5694 53.94 72.4114 53.8749C72.2535 53.8099 72.1101 53.7144 71.9896 53.5941C71.7494 53.3526 71.6145 53.0272 71.6137 52.688C71.6127 52.6017 71.6214 52.5154 71.6396 52.431C71.6544 52.3493 71.6783 52.2696 71.7109 52.1932C71.742 52.1165 71.781 52.0433 71.8276 51.9747C71.8763 51.9043 71.9305 51.8377 71.9896 51.7755C72.1421 51.6275 72.3283 51.5181 72.5324 51.4566C72.7366 51.3951 72.9527 51.3832 73.1624 51.422C73.2444 51.4409 73.3246 51.4668 73.4022 51.4992C73.481 51.5313 73.5568 51.57 73.629 51.6148C73.6979 51.6633 73.7629 51.717 73.8234 51.7755C74.0666 52.0182 74.2039 52.3459 74.2057 52.688C74.2007 53.0274 74.0625 53.3514 73.8206 53.5914C73.5786 53.8313 73.2519 53.9683 72.9097 53.9733Z" fill="#444444"/>
<path d="M8.10321 53.9731C7.75884 53.9682 7.42949 53.8325 7.18305 53.5939C7.06291 53.4752 6.96781 53.3339 6.90329 53.1783C6.83876 53.0228 6.8061 52.856 6.80721 52.6878C6.8062 52.6014 6.81489 52.5152 6.83313 52.4307C6.84788 52.3491 6.87179 52.2693 6.90441 52.193C6.93544 52.1163 6.97454 52.0431 7.02105 51.9745C7.06984 51.9041 7.124 51.8375 7.18305 51.7753C7.2435 51.7168 7.3085 51.663 7.37745 51.6146C7.4496 51.5697 7.52547 51.5311 7.60425 51.499C7.68216 51.4675 7.7623 51.4417 7.84401 51.4218C8.05376 51.3824 8.27 51.394 8.47426 51.4556C8.67851 51.5171 8.8647 51.6268 9.01689 51.7753C9.07783 51.8358 9.13213 51.9026 9.17889 51.9745C9.2254 52.0431 9.2645 52.1163 9.29553 52.193C9.32728 52.2702 9.35327 52.3497 9.37329 52.4307C9.38834 52.5157 9.397 52.6016 9.39921 52.6878C9.39666 53.0279 9.25931 53.3533 9.01681 53.5938C8.77431 53.8343 8.44614 53.9706 8.10321 53.9731Z" fill="#444444"/>
<path d="M67.4973 44.0209C63.6822 44.0209 61.7042 42.5139 59.9578 41.1836C58.3378 39.9482 56.9317 38.8798 53.9962 38.8798C51.0608 38.8798 49.6595 39.9482 48.0362 41.1836C46.2899 42.5139 44.3102 44.0209 40.4968 44.0209C36.6833 44.0209 34.7036 42.5139 32.9573 41.1836C31.3373 39.9482 29.9327 38.8798 26.9973 38.8798C24.0619 38.8798 22.6606 39.9482 21.0373 41.1836C19.2926 42.5139 17.3113 44.0209 13.4978 44.0209C9.68436 44.0209 7.70472 42.5139 5.95998 41.1836C4.59578 40.1433 3.38322 39.2214 1.28235 38.9562C0.578105 38.8673 0 38.3044 0 37.5945C0 36.8847 0.577631 36.3008 1.28407 36.3702C4.28158 36.6646 6.0003 37.974 7.53786 39.1449C9.15786 40.382 10.564 41.4504 13.4978 41.4504C16.4317 41.4504 17.8346 40.382 19.4578 39.1449C21.2042 37.8162 23.1838 36.3093 26.9973 36.3093C30.8108 36.3093 32.7904 37.8162 34.5368 39.1449C36.1568 40.382 37.5613 41.4504 40.4968 41.4504C43.4322 41.4504 44.8335 40.382 46.4567 39.1449C48.2031 37.8162 50.1827 36.3093 53.9962 36.3093C57.8097 36.3093 59.791 37.8162 61.5373 39.1449C63.1573 40.382 64.5635 41.4504 67.4973 41.4504C70.4311 41.4504 71.8356 40.382 73.4589 39.1449C74.9979 37.974 76.718 36.6646 79.7159 36.3702C80.4224 36.3008 81 36.8847 81 37.5945C81 38.3044 80.4219 38.8673 79.7176 38.9561C77.6162 39.2212 76.4054 40.1432 75.0384 41.1836C73.292 42.5139 71.314 44.0209 67.4973 44.0209Z" fill="#444444"/>
<path d="M41.796 8.34356V1.296C41.796 0.580239 41.2157 0 40.5 0C39.7842 0 39.204 0.580237 39.204 1.296V8.34355C39.204 9.05931 39.7842 9.63955 40.5 9.63955C41.2157 9.63955 41.796 9.05932 41.796 8.34356Z" fill="#444444"/>
<path d="M29.3564 11.8916L24.3161 6.89305C23.81 6.39112 22.9894 6.39112 22.4833 6.89305C21.9772 7.39498 21.9772 8.20878 22.4833 8.71071L27.5236 13.7093C28.0297 14.2112 28.8503 14.2112 29.3564 13.7093C29.8625 13.2073 29.8625 12.3935 29.3564 11.8916Z" fill="#444444"/>
<path d="M56.6835 6.89353L51.6432 11.8921C51.1371 12.394 51.1371 13.2078 51.6432 13.7097C52.1493 14.2117 52.9699 14.2117 53.476 13.7097L58.5163 8.71119C59.0224 8.20926 59.0224 7.39547 58.5163 6.89353C58.0102 6.3916 57.1896 6.3916 56.6835 6.89353Z" fill="#444444"/>
<ellipse cx="40.5568" cy="25.4643" rx="5.16176" ry="5.53571" fill="#EF4C57"/>
</g>
<defs>
<clipPath id="clip0_2127_14760">
<rect width="81" height="62" fill="white"/>
</clipPath>
</defs>
</svg>
