<svg width="53" height="67" viewBox="0 0 53 67" fill="none" xmlns="http://www.w3.org/2000/svg">
<path d="M10.5079 6.435H11.4439V9.464H13.0689V2.145H11.4439V5.057H10.5079V2.366H8.90892V9.087H10.5079V6.435ZM8.89592 7.462C7.32292 6.825 6.67292 5.538 6.67292 4.251V2.86H5.02192V4.251C5.02192 5.603 4.37192 7.085 2.69492 7.813L3.60492 9.139C4.70992 8.671 5.45092 7.813 5.87992 6.799C6.30892 7.657 6.99792 8.372 7.98592 8.762L8.89592 7.462ZM9.01292 12.831C7.45292 12.831 6.59492 12.519 6.59492 11.882C6.59492 11.245 7.45292 10.933 9.01292 10.933C10.5469 10.933 11.4049 11.245 11.4049 11.882C11.4049 12.519 10.5469 12.831 9.01292 12.831ZM9.01292 9.646C6.49092 9.646 4.87892 10.491 4.87892 11.882C4.87892 13.286 6.49092 14.118 9.01292 14.118C11.5219 14.118 13.1209 13.286 13.1209 11.882C13.1209 10.491 11.5219 9.646 9.01292 9.646ZM21.7129 2.899H19.1779V2.054H17.4619V2.899H14.9139V4.03H21.7129V2.899ZM17.0199 5.824C17.0199 5.486 17.5009 5.317 18.3199 5.317C19.1389 5.317 19.6069 5.486 19.6069 5.824C19.6069 6.175 19.1389 6.357 18.3199 6.357C17.5009 6.357 17.0199 6.175 17.0199 5.824ZM22.0119 7.592C21.1019 7.696 20.1399 7.774 19.1779 7.826V7.345C20.4519 7.189 21.2319 6.643 21.2319 5.824C21.2319 4.849 20.1009 4.264 18.3199 4.264C16.5389 4.264 15.3949 4.849 15.3949 5.824C15.3949 6.643 16.1749 7.189 17.4619 7.345V7.891C16.4349 7.917 15.4729 7.917 14.6149 7.917L14.7839 9.087C16.8509 9.087 19.6199 9.061 22.1289 8.619L22.0119 7.592ZM17.9169 12.324H24.2479V9.62H16.2009V10.751H22.5579V11.271H16.2139V14.027H24.6639V12.896H17.9169V12.324ZM24.2479 4.966V2.132H22.5319V9.191H24.2479V6.37H25.7559V4.966H24.2479ZM36.9349 5.499C34.2439 5.2 32.9439 3.848 32.9439 2.639V2.275H31.1759V2.639C31.1759 3.861 29.8759 5.187 27.1849 5.499L27.7829 6.825C29.8239 6.565 31.3059 5.733 32.0599 4.589C32.8269 5.733 34.2829 6.578 36.3239 6.825L36.9349 5.499ZM34.4129 12.649H29.6159V11.609H34.4129V12.649ZM34.4129 10.322H29.6159V9.321H27.9129V13.975H36.1029V9.321H34.4129V10.322ZM26.6519 7.371V8.723H37.4679V7.371H26.6519ZM44.9419 7.28C45.2149 5.772 45.2149 4.589 45.2149 3.757V3.016H39.0659V4.381H43.5249C43.5119 5.096 43.4599 5.967 43.2649 7.085L44.9419 7.28ZM45.7349 7.761C44.6169 7.917 43.4209 8.008 42.2379 8.06V5.798H40.5609V8.125C39.7809 8.138 39.0399 8.138 38.3769 8.138L38.5329 9.503C40.5869 9.49 43.3689 9.438 45.8389 8.983L45.7349 7.761ZM41.8349 10.309H40.1189V13.91H48.4779V12.545H41.8349V10.309ZM48.1009 5.785V2.132H46.3849V11.102H48.1009V7.202H49.5309V5.785H48.1009Z" fill="#FFE665"/>
<path fill-rule="evenodd" clip-rule="evenodd" d="M10.4802 43.737C10.5158 47.9909 12.2185 52.0584 15.2178 55.0538C18.2171 58.0492 22.27 59.7299 26.4939 59.7299C30.7179 59.7299 34.7707 58.0492 37.77 55.0538C40.7693 52.0584 42.472 47.9909 42.5076 43.737H49.7867C49.7351 49.9246 47.2583 55.8411 42.8957 60.1981C38.5331 64.5552 32.638 66.9998 26.4941 66.9998C20.3501 66.9998 14.455 64.5552 10.0924 60.1981C5.7298 55.8411 3.25302 49.9246 3.20142 43.737H10.4802Z" fill="#FFE665"/>
<g clip-path="url(#clip0_1920_11073)">
<path d="M30.5002 36.0001H20.0002L19.0002 38.5001L21.5002 50.0001H30.0002L32.0002 37.0001L30.5002 36.0001Z" fill="white"/>
<path d="M19.9397 42.8364H30.9233V48.3282C30.9233 49.5414 29.9398 50.525 28.7266 50.525H22.1364C20.9232 50.525 19.9397 49.5414 19.9397 48.3282V42.8364Z" fill="#FFE665"/>
<path d="M31.6655 38.7765L31.8077 37.4373C31.9017 36.5528 31.2083 35.7818 30.3188 35.7818H20.9212C20.0316 35.7818 19.3383 36.5528 19.4322 37.4373L20.6338 48.7464C20.7552 49.8885 21.7187 50.7551 22.8673 50.7551H28.3727C29.5213 50.7551 30.4848 49.8885 30.6062 48.7464L30.6314 48.5091" stroke="#222222" stroke-width="1.49733" stroke-linecap="round" stroke-linejoin="round"/>
<path d="M34.2299 46.6808C34.2299 48.6397 32.7074 50.0082 31.2353 50.0082C29.7631 50.0082 28.2406 48.6397 28.2406 46.6808C28.2406 45.8064 28.6786 44.7765 29.3191 43.7665C29.9467 42.7769 30.7056 41.9038 31.2126 41.3642C31.22 41.3564 31.2252 41.3538 31.2274 41.3528C31.2302 41.3516 31.2328 41.3512 31.2353 41.3512C31.2377 41.3512 31.2403 41.3516 31.2431 41.3528C31.2454 41.3538 31.2506 41.3564 31.2579 41.3642C31.765 41.9038 32.5238 42.7769 33.1514 43.7665C33.792 44.7765 34.2299 45.8064 34.2299 46.6808Z" fill="#FFE665" stroke="#222222" stroke-width="1.49733"/>
</g>
<defs>
<clipPath id="clip0_1920_11073">
<rect width="17.4695" height="17.4471" fill="white" transform="translate(17.759 34.2855)"/>
</clipPath>
</defs>
</svg>
