<svg width="48" height="63" viewBox="0 0 48 63" fill="none" xmlns="http://www.w3.org/2000/svg">
<g opacity="0.5">
<circle cx="24" cy="43" r="20" fill="#E9F7FF"/>
<g clip-path="url(#clip0_2673_24185)">
<path d="M28.0032 36.4592H28.9131C29.3475 36.4592 29.764 36.6294 30.0712 36.9324C30.3783 37.2354 30.5509 37.6463 30.5509 38.0747V49.383C30.5509 49.8115 30.3783 50.2224 30.0712 50.5253C29.764 50.8283 29.3475 50.9985 28.9131 50.9985H19.0865C18.6522 50.9985 18.2356 50.8283 17.9285 50.5253C17.6213 50.2224 17.4488 49.8115 17.4488 49.383V38.0747C17.4488 37.6463 17.6213 37.2354 17.9285 36.9324C18.2356 36.6294 18.6522 36.4592 19.0865 36.4592H19.9964" stroke="#444444" stroke-width="1.49733" stroke-linecap="round" stroke-linejoin="round"/>
<path d="M26.73 35.0025H21.2708C20.7683 35.0025 20.3609 35.328 20.3609 35.7295V37.9104C20.3609 38.3118 20.7683 38.6373 21.2708 38.6373H26.73C27.2325 38.6373 27.6399 38.3118 27.6399 37.9104V35.7295C27.6399 35.328 27.2325 35.0025 26.73 35.0025Z" stroke="#444444" stroke-width="1.49733" stroke-linecap="round" stroke-linejoin="round"/>
</g>
<path d="M1.50553 2.497V3.589H5.69153C5.45753 6.293 4.00153 8.36 0.920531 9.842L1.63553 10.908C5.66553 8.958 7.06953 5.994 7.06953 2.497H1.50553ZM9.18853 1.262V13.001H10.5275V1.262H9.18853ZM15.4145 9.491H14.0625V12.78H22.1615V11.688H15.4145V9.491ZM15.4275 4.083H20.6535V5.383H15.4275V4.083ZM18.7035 7.58V6.449H21.9795V1.717H20.6535V3.043H15.4275V1.717H14.1015V6.449H17.3515V7.58H12.7105V8.659H23.3575V7.58H18.7035ZM30.9355 4.213V5.305H33.0155V8.256H34.3545V1.262H33.0155V4.213H30.9355ZM31.6115 6.826C29.8565 6.215 28.8555 4.759 28.8555 3.29V3.134H31.2995V2.055H25.0205V3.134H27.5035V3.303C27.5035 4.915 26.4505 6.475 24.6305 7.125L25.3195 8.191C26.7105 7.697 27.6985 6.657 28.2185 5.37C28.7125 6.501 29.6485 7.424 30.9485 7.879L31.6115 6.826ZM30.4545 11.974C28.7775 11.974 27.8285 11.558 27.8285 10.791C27.8285 10.024 28.7775 9.608 30.4545 9.608C32.1055 9.608 33.0675 10.024 33.0675 10.791C33.0675 11.558 32.1055 11.974 30.4545 11.974ZM30.4545 8.568C27.9975 8.568 26.4895 9.4 26.4895 10.791C26.4895 12.195 27.9975 13.014 30.4545 13.014C32.8985 13.014 34.4065 12.195 34.4065 10.791C34.4065 9.4 32.8985 8.568 30.4545 8.568ZM39.0465 5.097H44.6105V7.021H39.0465V5.097ZM42.4915 10.466V8.1H45.9365V2.042H44.6105V4.018H39.0465V2.042H37.7205V8.1H41.1525V10.466H36.5245V11.571H47.1585V10.466H42.4915Z" fill="white"/>
</g>
<defs>
<clipPath id="clip0_2673_24185">
<rect width="17.4695" height="17.4471" fill="white" transform="translate(15.2653 34.2764)"/>
</clipPath>
</defs>
</svg>
