<svg width="47" height="68" viewBox="0 0 47 68" fill="none" xmlns="http://www.w3.org/2000/svg">
<path d="M15.166 5.057C15.166 4.329 15.725 3.913 16.544 3.913C17.363 3.913 17.948 4.329 17.948 5.057C17.948 5.785 17.363 6.201 16.544 6.201C15.725 6.201 15.166 5.785 15.166 5.057ZM20.132 8.021C19.274 8.151 18.338 8.216 17.415 8.268V7.41C18.689 7.124 19.534 6.227 19.534 5.057C19.534 3.627 18.286 2.626 16.544 2.626C14.815 2.626 13.567 3.627 13.567 5.057C13.567 6.24 14.425 7.137 15.699 7.41V8.333C14.711 8.359 13.762 8.359 12.943 8.359L13.151 9.724C15.127 9.724 17.818 9.685 20.236 9.23L20.132 8.021ZM16.219 10.504H14.503V13.91H22.875V12.545H16.219V10.504ZM22.472 5.902V2.145H20.756V11.284H22.472V7.319H23.98V5.902H22.472ZM29.3089 9.568H31.4019V11.401H29.3089V9.568ZM33.0919 11.401V9.568H34.7689V8.203H27.8269V6.89H34.4959V2.912H26.1109V4.277H32.8059V5.551H26.1239V9.568H27.6189V11.401H24.8629V12.805H35.7179V11.401H33.0919Z" fill="#FFE665"/>
<path fill-rule="evenodd" clip-rule="evenodd" d="M7.27897 43.9999C7.31451 48.2538 9.01729 52.3213 12.0165 55.3167C15.0158 58.3122 19.0687 59.9929 23.2926 59.9929C27.5166 59.9929 31.5695 58.3122 34.5688 55.3167C37.568 52.3213 39.2708 48.2538 39.3063 43.9999H46.5854C46.5338 50.1875 44.057 56.104 39.6944 60.4611C35.3318 64.8181 29.4367 67.2628 23.2928 67.2628C17.1489 67.2628 11.2538 64.8181 6.89115 60.4611C2.52853 56.104 0.051758 50.1875 0.000152588 43.9999H7.27897Z" fill="#FFE665"/>
<g clip-path="url(#clip0_1920_11456)">
<circle cx="24" cy="43" r="7" fill="white"/>
<circle cx="24" cy="43" r="5" fill="#FFE665"/>
<path d="M30.8819 42.3424V43.0112C30.881 44.5788 30.3728 46.1042 29.4329 47.3597C28.4931 48.6153 27.1721 49.5338 25.6668 49.9783C24.1616 50.4228 22.5528 50.3694 21.0804 49.8261C19.6081 49.2829 18.351 48.2788 17.4966 46.9637C16.6423 45.6486 16.2365 44.0929 16.3398 42.5287C16.4431 40.9644 17.0499 39.4754 18.0697 38.2838C19.0896 37.0921 20.4678 36.2616 21.9988 35.9161C23.5299 35.5706 25.1318 35.7287 26.5655 36.3667" stroke="#222222" stroke-width="1.49733" stroke-linecap="round" stroke-linejoin="round"/>
<path d="M30.8827 37.1941L23.6037 44.471L21.42 42.2901" stroke="#222222" stroke-width="1.49733" stroke-linecap="round" stroke-linejoin="round"/>
</g>
<defs>
<clipPath id="clip0_1920_11456">
<rect width="17.4695" height="17.4471" fill="white" transform="translate(14.8684 34.2854)"/>
</clipPath>
</defs>
</svg>
