<svg width="41" height="64" viewBox="0 0 41 64" fill="none" xmlns="http://www.w3.org/2000/svg">
<g opacity="0.5">
<path d="M11.945 5.109C11.945 4.303 12.634 3.783 13.609 3.783C14.597 3.783 15.26 4.303 15.26 5.109C15.26 5.928 14.597 6.448 13.609 6.448C12.634 6.448 11.945 5.928 11.945 5.109ZM17.249 8.138C16.313 8.281 15.299 8.359 14.298 8.424V7.41C15.624 7.189 16.508 6.305 16.508 5.109C16.508 3.718 15.312 2.769 13.609 2.769C11.906 2.769 10.697 3.718 10.697 5.109C10.697 6.318 11.607 7.202 12.959 7.41V8.476C11.906 8.515 10.905 8.515 10.06 8.515L10.229 9.607C12.192 9.607 14.922 9.568 17.34 9.113L17.249 8.138ZM13.024 10.478H11.685V13.767H19.68V12.688H13.024V10.478ZM19.277 6.11V2.275H17.938V11.245H19.277V7.215H20.889V6.11H19.277ZM26.1529 9.49H28.5579V11.518H26.1529V9.49ZM29.8839 11.518V9.49H31.6129V8.411H24.5799V6.786H31.3529V3.081H23.2409V4.16H30.0269V5.72H23.2669V9.49H24.8269V11.518H21.9799V12.623H32.6139V11.518H29.8839Z" fill="white"/>
<ellipse cx="20.603" cy="43.011" rx="20.3811" ry="20.355" fill="#E9F7FF"/>
<g clip-path="url(#clip0_1958_10958)">
<path d="M27.882 42.3424V43.0112C27.8811 44.5789 27.3728 46.1042 26.433 47.3598C25.4932 48.6154 24.1721 49.5339 22.6669 49.9784C21.1617 50.4229 19.5529 50.3695 18.0805 49.8262C16.6081 49.2829 15.351 48.2789 14.4967 46.9638C13.6424 45.6487 13.2366 44.093 13.3399 42.5287C13.4432 40.9645 14.05 39.4755 15.0698 38.2838C16.0896 37.0922 17.4678 36.2616 18.9989 35.9162C20.53 35.5707 22.1318 35.7287 23.5656 36.3668" stroke="#444444" stroke-width="1.49733" stroke-linecap="round" stroke-linejoin="round"/>
<path d="M27.8828 37.1942L20.6039 44.4711L18.4202 42.2902" stroke="#444444" stroke-width="1.49733" stroke-linecap="round" stroke-linejoin="round"/>
</g>
</g>
<defs>
<clipPath id="clip0_1958_10958">
<rect width="17.4695" height="17.4471" fill="white" transform="translate(11.8685 34.2855)"/>
</clipPath>
</defs>
</svg>
