<svg width="120" height="120" viewBox="0 0 120 120" fill="none" xmlns="http://www.w3.org/2000/svg">
<circle cx="59.25" cy="80.25" r="20.25" fill="white" stroke="#444444" stroke-width="3"/>
<path d="M14.9581 82.7553C15.2398 80.6062 16.3144 78.6398 17.9709 77.2419C19.7502 75.7336 22.0558 74.9938 24.3805 75.1854C26.7052 75.377 28.8585 76.4842 30.3669 78.2635C31.4497 79.5331 32.1415 81.0892 32.3585 82.7437" stroke="#444444" stroke-width="3" stroke-linecap="round" stroke-linejoin="round"/>
<path d="M86.5361 82.7804C86.8226 80.595 87.9153 78.5954 89.5998 77.1739C91.4091 75.6401 93.7537 74.8879 96.1176 75.0827C98.4816 75.2775 100.671 76.4034 102.205 78.2127C103.306 79.5037 104.01 81.0862 104.23 82.7686" stroke="#444444" stroke-width="3" stroke-linecap="round" stroke-linejoin="round"/>
<rect x="58.1211" y="24" width="3" height="24" rx="1.5" fill="#444444"/>
<path d="M63.852 31.4983C63.6217 31.4988 63.3936 31.4553 63.1808 31.3702C62.9679 31.2852 62.7745 31.1603 62.6118 31.0028L59.6071 28.0974L56.6142 31.0028C56.2849 31.3211 55.8384 31.5 55.3728 31.5C54.9072 31.5 54.4606 31.3211 54.1314 31.0028C53.8021 30.6844 53.6172 30.2526 53.6172 29.8024C53.6172 29.3522 53.8021 28.9204 54.1314 28.602L58.3763 24.4974C58.5392 24.3397 58.7328 24.2146 58.9458 24.1293C59.1588 24.0439 59.3871 24 59.6176 24C59.8482 24 60.0765 24.0439 60.2895 24.1293C60.5025 24.2146 60.6961 24.3397 60.8591 24.4974L65.1039 28.602C65.3492 28.8395 65.5161 29.142 65.5837 29.4712C65.6512 29.8004 65.6162 30.1416 65.4832 30.4516C65.3503 30.7616 65.1252 31.0265 64.8365 31.2128C64.5478 31.3991 64.2084 31.4985 63.8613 31.4983H63.852Z" fill="#444444"/>
<rect x="85.1172" y="40.5" width="3" height="19.5" rx="1.5" fill="#444444"/>
<rect x="32.6172" y="40.5" width="3" height="19.5" rx="1.5" fill="#444444"/>
<path d="M90.8559 47.9983C90.6256 47.9988 90.3975 47.9553 90.1847 47.8702C89.9718 47.7852 89.7784 47.6603 89.6157 47.5028L86.611 44.5974L83.6181 47.5028C83.2889 47.8211 82.8423 48 82.3767 48C81.9111 48 81.4645 47.8211 81.1353 47.5028C80.8061 47.1844 80.6211 46.7526 80.6211 46.3024C80.6211 45.8522 80.8061 45.4204 81.1353 45.102L85.3802 40.9974C85.5432 40.8397 85.7367 40.7146 85.9497 40.6293C86.1627 40.5439 86.391 40.5 86.6216 40.5C86.8521 40.5 87.0804 40.5439 87.2934 40.6293C87.5064 40.7146 87.7 40.8397 87.863 40.9974L92.1078 45.102C92.3531 45.3395 92.52 45.642 92.5876 45.9712C92.6551 46.3004 92.6202 46.6416 92.4872 46.9516C92.3542 47.2616 92.1291 47.5265 91.8404 47.7128C91.5517 47.8991 91.2123 47.9985 90.8653 47.9983H90.8559Z" fill="#444444"/>
<path d="M38.3559 47.9983C38.1256 47.9988 37.8975 47.9553 37.6847 47.8702C37.4718 47.7852 37.2784 47.6603 37.1157 47.5028L34.111 44.5974L31.1181 47.5028C30.7889 47.8211 30.3423 48 29.8767 48C29.4111 48 28.9645 47.8211 28.6353 47.5028C28.3061 47.1844 28.1211 46.7526 28.1211 46.3024C28.1211 45.8522 28.3061 45.4204 28.6353 45.102L32.8802 40.9974C33.0432 40.8397 33.2367 40.7146 33.4497 40.6293C33.6627 40.5439 33.891 40.5 34.1216 40.5C34.3521 40.5 34.5804 40.5439 34.7934 40.6293C35.0064 40.7146 35.2 40.8397 35.363 40.9974L39.6078 45.102C39.8531 45.3395 40.02 45.642 40.0876 45.9712C40.1551 46.3004 40.1202 46.6416 39.9872 46.9516C39.8542 47.2616 39.6291 47.5265 39.3404 47.7128C39.0517 47.8991 38.7123 47.9985 38.3653 47.9983H38.3559Z" fill="#444444"/>
<circle cx="59.25" cy="80.25" r="11.25" fill="#FDE149"/>
</svg>
