<svg width="120" height="120" viewBox="0 0 120 120" fill="none" xmlns="http://www.w3.org/2000/svg">
<path d="M20.2192 81C23.9227 81 25.8161 79.6936 27.4943 78.5394C28.9803 77.5183 30.1539 76.7095 32.7001 76.7095C34.5148 76.7095 35.5726 77.1386 36.2902 77.5183C36.4884 77.6428 36.7123 77.7279 36.9478 77.7684C37.1832 77.8088 37.4251 77.8036 37.6584 77.7532C37.8916 77.7028 38.111 77.6082 38.3029 77.4754C38.4947 77.3426 38.6548 77.1744 38.7732 76.9815C38.8915 76.7885 38.9655 76.575 38.9905 76.3543C39.0155 76.1335 38.991 75.9104 38.9184 75.6989C38.8459 75.4874 38.7269 75.2921 38.5689 75.1253C38.411 74.9584 38.2176 74.8237 38.0007 74.7295C36.3845 73.8874 34.5537 73.4636 32.7001 73.5024C28.9965 73.5024 27.1031 74.811 25.425 75.9652C23.9389 76.9863 22.7654 77.7929 20.2192 77.7929C17.673 77.7929 16.4971 76.9863 15.0111 75.9652C13.333 74.811 11.4303 73.5024 7.73602 73.5024C7.2756 73.5024 6.83403 73.6719 6.50846 73.9737C6.18289 74.2754 6 74.6847 6 75.1114C6 75.5381 6.18289 75.9473 6.50846 76.249C6.83403 76.5508 7.2756 76.7203 7.73602 76.7203C10.2822 76.7203 11.4557 77.529 12.9418 78.5502C14.6199 79.6936 16.5249 81 20.2192 81Z" fill="#444444"/>
<path d="M99.4107 81C103.211 81 105.154 79.695 106.876 78.5421C108.401 77.5221 109.606 76.7143 112.219 76.7143C112.691 76.7143 113.144 76.545 113.478 76.2436C113.812 75.9422 114 75.5334 114 75.1071C114 74.6809 113.812 74.2721 113.478 73.9707C113.144 73.6693 112.691 73.5 112.219 73.5C108.418 73.5 106.477 74.8071 104.753 75.96C103.23 76.98 102.024 77.7857 99.4107 77.7857C96.7979 77.7857 95.5936 76.98 94.0686 75.96C92.3465 74.8071 90.394 73.5 86.603 73.5C83.5435 73.5 81.7121 74.3571 80.325 75.1929C80.1248 75.3078 79.9521 75.4576 79.817 75.6336C79.6819 75.8096 79.5871 76.0081 79.5382 76.2175C79.4893 76.427 79.4873 76.6431 79.5323 76.8533C79.5773 77.0635 79.6683 77.2634 79.8001 77.4414C79.9319 77.6194 80.1018 77.7718 80.2998 77.8898C80.4978 78.0077 80.7199 78.0888 80.9531 78.1283C81.1863 78.1677 81.4259 78.1648 81.6578 78.1196C81.8897 78.0744 82.1093 77.9878 82.3036 77.865C83.4509 77.175 84.6196 76.7143 86.603 76.7143C89.2158 76.7143 90.4201 77.5221 91.9451 78.5421C93.6577 79.695 95.6197 81 99.4107 81Z" fill="#444444"/>
<path d="M68.5049 91.5613C66.1585 93.1675 62.7664 94.5 59.9443 94.5C56.1624 94.4959 52.6317 93.5656 49.957 90.8266C47.2823 88.0875 44.2553 83.6806 44.25 79.8063C44.249 76.9153 44.823 73.3944 46.3901 70.9901C50.1025 63.7939 49.3454 66.0394 51.3836 62.9081C53.4219 59.7769 57.0907 58.5 60.6576 58.5C64.2245 58.5 68.4247 61.4387 70.6449 65.1122C72.865 68.7856 75.0874 74.0322 75.6383 76.8676C76.1893 79.703 74.5781 83.7474 73.4984 86.4185C72.4187 89.0895 70.8513 89.955 68.5049 91.5613Z" fill="white"/>
<path d="M64.5838 85.483C63.227 86.4721 61.6318 87 60 87C57.8132 86.9975 55.7165 86.0489 54.1699 84.3623C52.6233 82.6757 51.7531 80.3888 51.75 78.0031C51.7494 76.223 52.2328 74.4826 53.139 73.0022C54.0451 71.5217 55.3334 70.3677 56.8409 69.686C58.3483 69.0043 60.0072 68.8256 61.6077 69.1726C63.2082 69.5195 64.6785 70.3764 65.8326 71.6349C66.9867 72.8935 67.7727 74.4971 68.0913 76.243C68.4098 77.9889 68.2466 79.7987 67.6223 81.4434C66.9979 83.0881 65.9405 84.4939 64.5838 85.483Z" fill="#F88F2E"/>
<path d="M52.3114 61.5C48.3128 66.3872 44.25 72.77 44.25 78.5296C44.25 87.7085 51.9437 94.5 60 94.5C68.0563 94.5 75.75 87.7085 75.75 78.5296C75.75 72.77 71.6872 66.3872 67.6886 61.5" stroke="#444444" stroke-width="3" stroke-linecap="round"/>
<path d="M51.75 45.75L45.75 39.75L48 37.5L42.75 32.25" stroke="#444444" stroke-width="3" stroke-linecap="round" stroke-linejoin="round"/>
<path d="M70.5 45.75L76.5 39.75L74.25 37.5L79.5 32.25" stroke="#444444" stroke-width="3" stroke-linecap="round" stroke-linejoin="round"/>
<path d="M61.5 40.5V31.5H64.5V22.5" stroke="#444444" stroke-width="3" stroke-linecap="round" stroke-linejoin="round"/>
<path d="M5.25 60.0014H34.5C38.5 60.0014 45.75 60.0013 50.25 56.2513C55.9825 51.4743 61.9545 49.8732 69.75 56.2513C73.4166 59.2513 78 60.7513 86.25 60.7513C94.073 60.7513 108 60.5014 114 60.7513" stroke="#444444" stroke-width="3" stroke-linecap="round" stroke-linejoin="round"/>
</svg>
