<svg width="375" height="208" viewBox="0 0 375 208" fill="none" xmlns="http://www.w3.org/2000/svg">
<mask id="mask0_1945_12721" style="mask-type:alpha" maskUnits="userSpaceOnUse" x="0" y="0" width="375" height="208">
<rect width="375" height="208" fill="#47BDFF"/>
</mask>
<g mask="url(#mask0_1945_12721)">
<path opacity="0.2" d="M381 89H338.456C338.456 104.211 332.403 118.798 321.628 129.554C310.854 140.309 296.241 146.352 281.004 146.352C265.766 146.352 251.153 140.309 240.379 129.554C229.604 118.798 223.551 104.211 223.551 89H181C181.222 115.33 191.855 140.506 210.584 159.047C229.314 177.587 254.623 187.99 281 187.99C307.377 187.99 332.686 177.587 351.416 159.047C370.145 140.506 380.778 115.33 381 89Z" fill="white"/>
</g>
</svg>
