<svg width="44" height="44" viewBox="0 0 44 44" fill="none" xmlns="http://www.w3.org/2000/svg">
<circle cx="22" cy="22" r="22" fill="#EEEEEE"/>
<path d="M32.999 21.0002C32.999 16.0922 28.0651 12.1001 21.9995 12.1001C15.9339 12.1001 11 16.0922 11 21.0002C11 25.3999 14.9133 29.084 20.1994 29.7812C20.5567 29.8582 21.0448 30.0163 21.1684 30.3212C21.2786 30.5985 21.2405 31.0328 21.2034 31.3131C21.2034 31.3131 21.0747 32.0873 21.0469 32.2526C20.9985 32.5288 20.8255 33.3369 21.9995 32.843C23.1735 32.3491 28.3339 29.124 30.6417 26.477C32.2359 24.7325 32.999 22.9644 32.999 21.0002Z" fill="#444444"/>
<path d="M29.3401 23.8339C29.3947 23.8339 29.4471 23.8123 29.4857 23.7738C29.5244 23.7353 29.5461 23.683 29.5461 23.6286V22.8503C29.5461 22.7958 29.5244 22.7436 29.4857 22.7051C29.4471 22.6666 29.3947 22.6449 29.3401 22.6449H27.2393V21.8379H29.3401C29.3947 21.8379 29.4471 21.8162 29.4857 21.7777C29.5244 21.7392 29.5461 21.687 29.5461 21.6325V20.8542C29.5461 20.7998 29.5244 20.7475 29.4857 20.709C29.4471 20.6705 29.3947 20.6489 29.3401 20.6489H27.2393V19.8418H29.3401C29.3947 19.8418 29.4471 19.8202 29.4857 19.7817C29.5244 19.7432 29.5461 19.6909 29.5461 19.6365V18.8582C29.5461 18.8037 29.5244 18.7515 29.4857 18.713C29.4471 18.6745 29.3947 18.6528 29.3401 18.6528H26.2506C26.196 18.6528 26.1436 18.6745 26.105 18.713C26.0664 18.7515 26.0447 18.8037 26.0447 18.8582V23.6358C26.0447 23.6902 26.0664 23.7425 26.105 23.781C26.1436 23.8195 26.196 23.8411 26.2506 23.8411H29.3401V23.8339Z" fill="#EEEEEE"/>
<path d="M17.9078 23.8341C17.9624 23.8341 18.0148 23.8124 18.0534 23.7739C18.0921 23.7354 18.1138 23.6832 18.1138 23.6287V22.8504C18.1138 22.7959 18.0921 22.7437 18.0534 22.7052C18.0148 22.6667 17.9624 22.645 17.9078 22.645H15.808V18.846C15.808 18.7915 15.7863 18.7393 15.7477 18.7008C15.7091 18.6623 15.6567 18.6406 15.602 18.6406H14.8214C14.7668 18.6406 14.7144 18.6623 14.6758 18.7008C14.6372 18.7393 14.6155 18.7915 14.6155 18.846V23.6287C14.6155 23.6832 14.6372 23.7354 14.6758 23.7739C14.7144 23.8124 14.7668 23.8341 14.8214 23.8341H17.9109H17.9078Z" fill="#EEEEEE"/>
<path d="M19.769 18.6284H18.9894C18.8734 18.6284 18.7793 18.7222 18.7793 18.8379V23.6237C18.7793 23.7394 18.8734 23.8331 18.9894 23.8331H19.769C19.885 23.8331 19.979 23.7394 19.979 23.6237V18.8379C19.979 18.7222 19.885 18.6284 19.769 18.6284Z" fill="#EEEEEE"/>
<path d="M25.0798 18.6284H24.2992C24.2446 18.6284 24.1922 18.6501 24.1535 18.6886C24.1149 18.7271 24.0932 18.7793 24.0932 18.8338V21.6769L21.8977 18.7188L21.8801 18.6972L21.8678 18.6839L21.8565 18.6736H21.8503L21.8389 18.6664H21.8328L21.8214 18.6602H21.8142L21.8019 18.6551H21.7957H21.7823H21.7751H21.7627H21.7535H20.9482C20.8935 18.6551 20.8411 18.6768 20.8025 18.7153C20.7639 18.7538 20.7422 18.806 20.7422 18.8605V23.6473C20.7422 23.7018 20.7639 23.754 20.8025 23.7925C20.8411 23.831 20.8935 23.8527 20.9482 23.8527H21.7288C21.7834 23.8527 21.8358 23.831 21.8744 23.7925C21.913 23.754 21.9347 23.7018 21.9347 23.6473V20.7826L24.1334 23.7438C24.1484 23.7643 24.1669 23.782 24.188 23.7962L24.2014 23.8034H24.2075H24.2178L24.2281 23.8085H24.2343L24.2487 23.8136C24.2664 23.8189 24.2848 23.8217 24.3033 23.8218H25.0798C25.1344 23.8218 25.1868 23.8002 25.2254 23.7617C25.2641 23.7232 25.2857 23.671 25.2857 23.6165V18.8379C25.2863 18.8106 25.2814 18.7834 25.2713 18.758C25.2612 18.7326 25.2461 18.7095 25.2269 18.69C25.2077 18.6705 25.1848 18.655 25.1596 18.6444C25.1343 18.6339 25.1072 18.6284 25.0798 18.6284Z" fill="#EEEEEE"/>
</svg>
