<svg width="80" height="81" viewBox="0 0 80 81" fill="none" xmlns="http://www.w3.org/2000/svg">
<path d="M15.5881 56.948H4.52504C3.1305 56.948 2 58.0785 2 59.473C2 60.8675 3.1305 61.998 4.52504 61.998H75.1149C76.7083 61.998 78 60.7064 78 59.113C78 57.5196 76.7114 56.2279 75.118 56.2279H64.2203C51.3273 56.2279 52.0622 44.6876 50.6319 41.8026C49.2015 38.9175 48.4863 34.5887 40.6194 33.1462C32.7524 31.7036 31.322 41.0801 28.4613 49.014C26.1728 55.3612 18.9256 56.948 15.5881 56.948Z" fill="white"/>
<path d="M79 55.9829C79 56.5435 78.5455 56.998 77.9848 56.998H64.9214C52.1027 56.998 51.4366 47.5512 50.2582 43.4355C48.7078 38.0367 44.9194 34.0389 41.025 34.0389C37.1305 34.0389 33.0847 38.0272 31.5342 43.4355C30.3558 47.5465 29.4247 56.998 17.1333 56.998H3.01519C2.45452 56.998 2 56.5435 2 55.9829C2 55.4222 2.45452 54.9677 3.01519 54.9677H17.1333C27.4398 54.9677 28.7163 45.8173 29.5933 42.7463C31.466 36.217 35.9521 31.998 41.025 31.998C46.0979 31.998 50.5824 36.217 52.4551 42.7463C53.3353 45.8173 54.6118 54.9677 64.915 54.9677H77.9848C78.5455 54.9677 79 55.4222 79 55.9829Z" fill="#444444"/>
<circle cx="41" cy="44.998" r="7" fill="#FF707A"/>
<path d="M42 24.998V17.998C42 17.4458 41.5523 16.998 41 16.998C40.4477 16.998 40 17.4458 40 17.998V24.998C40 25.5503 40.4477 25.998 41 25.998C41.5523 25.998 42 25.5503 42 24.998Z" fill="#444444"/>
<path d="M29.9933 29.3022L25.9161 25.2625C25.4206 24.7716 24.6172 24.7716 24.1218 25.2625C23.6263 25.7534 23.6263 26.5493 24.1218 27.0402L28.199 31.0799C28.6945 31.5708 29.4978 31.5708 29.9933 31.0799C30.4888 30.589 30.4888 29.7931 29.9933 29.3022Z" fill="#444444"/>
<path d="M55.8909 25.2595L51.8122 29.3006C51.3167 29.7915 51.3167 30.5874 51.8122 31.0783C52.3077 31.5692 53.111 31.5692 53.6065 31.0783L57.6852 27.0373C58.1806 26.5463 58.1806 25.7504 57.6852 25.2595C57.1897 24.7686 56.3863 24.7686 55.8909 25.2595Z" fill="#444444"/>
</svg>
