<svg width="120" height="120" viewBox="0 0 120 120" fill="none" xmlns="http://www.w3.org/2000/svg">
<path d="M23.3822 83.9249H6.78757C4.69575 83.9249 3 85.6206 3 87.7124C3 89.8043 4.69575 91.5 6.78757 91.5H112.672C115.062 91.5 117 89.5625 117 87.1724C117 84.7823 115.067 82.8448 112.677 82.8448H96.3304C76.9909 82.8448 78.0933 65.5344 75.9478 61.2068C73.8023 56.8792 72.7295 50.386 60.9291 48.2222C49.1286 46.0584 46.9831 60.1231 42.692 72.024C39.2591 81.5447 28.3884 83.9249 23.3822 83.9249Z" fill="white"/>
<path d="M118.5 82.4772C118.5 83.3182 117.818 84 116.977 84H97.3821C78.1541 84 77.155 69.8298 75.3873 63.6561C73.0617 55.558 67.3792 49.5612 61.5375 49.5612C55.6958 49.5612 49.627 55.5437 47.3014 63.6561C45.5337 69.8226 44.137 84 25.7 84H4.52279C3.68178 84 3 83.3182 3 82.4772V82.4772C3 81.6362 3.68178 80.9544 4.52279 80.9544H25.7C41.1597 80.9544 43.0745 67.2288 44.39 62.6224C47.199 52.8284 53.9281 46.5 61.5375 46.5C69.1468 46.5 75.8736 52.8284 78.6826 62.6224C80.0029 67.2288 81.9177 80.9544 97.3725 80.9544H116.977C117.818 80.9544 118.5 81.6362 118.5 82.4772V82.4772Z" fill="#444444"/>
<circle cx="61.5" cy="66" r="10.5" fill="#FF707A"/>
<path d="M63 36V25.5C63 24.6716 62.3284 24 61.5 24C60.6716 24 60 24.6716 60 25.5V36C60 36.8284 60.6716 37.5 61.5 37.5C62.3284 37.5 63 36.8284 63 36Z" fill="#444444"/>
<path d="M44.9929 42.4528L38.877 36.3932C38.1338 35.6569 36.9288 35.6569 36.1856 36.3932C35.4423 37.1296 35.4423 38.3235 36.1856 39.0599L42.3015 45.1194C43.0447 45.8558 44.2497 45.8558 44.9929 45.1194C45.7361 44.383 45.7361 43.1891 44.9929 42.4528Z" fill="#444444"/>
<path d="M83.8348 36.3941L77.7168 42.4557C76.9736 43.1921 76.9736 44.386 77.7168 45.1224C78.46 45.8588 79.665 45.8587 80.4083 45.1224L86.5263 39.0608C87.2695 38.3244 87.2695 37.1305 86.5263 36.3941C85.783 35.6578 84.578 35.6578 83.8348 36.3941Z" fill="#444444"/>
</svg>
