<svg width="80" height="81" viewBox="0 0 80 81" fill="none" xmlns="http://www.w3.org/2000/svg">
<path d="M13.4795 54.998C15.9485 54.998 17.2108 54.1271 18.3295 53.3577C19.3202 52.6769 20.1026 52.1377 21.8 52.1377C23.0099 52.1377 23.7151 52.4238 24.1934 52.6769C24.3256 52.7599 24.4749 52.8167 24.6318 52.8436C24.7888 52.8706 24.9501 52.8671 25.1056 52.8335C25.261 52.7999 25.4073 52.7368 25.5352 52.6483C25.6631 52.5598 25.7699 52.4477 25.8488 52.319C25.9277 52.1904 25.977 52.048 25.9937 51.9009C26.0103 51.7537 25.994 51.605 25.9456 51.464C25.8972 51.323 25.8179 51.1928 25.7126 51.0816C25.6073 50.9703 25.4784 50.8805 25.3338 50.8177C24.2563 50.2563 23.0358 49.9738 21.8 49.9997C19.331 49.9997 18.0688 50.8721 16.95 51.6415C15.9593 52.3222 15.1769 52.86 13.4795 52.86C11.782 52.86 10.9981 52.3222 10.0074 51.6415C8.88863 50.8721 7.62019 49.9997 5.15735 49.9997C4.8504 49.9997 4.55602 50.1127 4.33897 50.3138C4.12193 50.515 4 50.7878 4 51.0723C4 51.3568 4.12193 51.6296 4.33897 51.8307C4.55602 52.0319 4.8504 52.1449 5.15735 52.1449C6.8548 52.1449 7.63716 52.6841 8.62786 53.3648C9.74663 54.1271 11.0166 54.998 13.4795 54.998Z" fill="#444444"/>
<path d="M66.2738 54.998C68.8075 54.998 70.1029 54.1281 71.2509 53.3595C72.2676 52.6795 73.0704 52.1409 74.8123 52.1409C75.1273 52.1409 75.4294 52.028 75.6521 51.8271C75.8749 51.6262 76 51.3536 76 51.0695C76 50.7853 75.8749 50.5128 75.6521 50.3119C75.4294 50.1109 75.1273 49.998 74.8123 49.998C72.2787 49.998 70.9849 50.8695 69.8352 51.638C68.8202 52.318 68.0157 52.8552 66.2738 52.8552C64.5319 52.8552 63.729 52.318 62.7124 51.638C61.5643 50.8695 60.2627 49.998 57.7353 49.998C55.6957 49.998 54.4748 50.5695 53.55 51.1266C53.4165 51.2032 53.3014 51.3031 53.2113 51.4204C53.1213 51.5378 53.0581 51.6701 53.0255 51.8097C52.9929 51.9494 52.9916 52.0935 53.0215 52.2336C53.0515 52.3737 53.1122 52.507 53.2001 52.6256C53.2879 52.7443 53.4012 52.8459 53.5332 52.9246C53.6652 53.0032 53.8133 53.0573 53.9687 53.0836C54.1242 53.1099 54.2839 53.1079 54.4385 53.0778C54.5931 53.0476 54.7395 52.9899 54.8691 52.908C55.6339 52.448 56.413 52.1409 57.7353 52.1409C59.4772 52.1409 60.2801 52.6795 61.2967 53.3595C62.4385 54.1281 63.7465 54.998 66.2738 54.998Z" fill="#444444"/>
<path d="M45.6699 62.0389C44.1057 63.1097 41.8442 63.998 39.9629 63.998C37.4416 63.9953 35.0878 63.3751 33.3047 61.5491C31.5216 59.7231 29.5035 56.7851 29.5 54.2022C29.4993 52.2749 29.882 49.9276 30.9268 48.3248C33.4017 43.5273 32.8969 45.0243 34.2558 42.9368C35.6146 40.8493 38.0604 39.998 40.4384 39.998C42.8163 39.998 45.6165 41.9572 47.0966 44.4062C48.5767 46.8551 50.0583 50.3528 50.4256 52.2431C50.7928 54.1333 49.7187 56.8297 48.9989 58.6104C48.2791 60.3911 47.2342 60.968 45.6699 62.0389Z" fill="white"/>
<path d="M43.0558 57.9867C42.1513 58.6461 41.0879 58.998 40 58.998C38.5421 58.9964 37.1444 58.364 36.1133 57.2396C35.0822 56.1152 34.502 54.5906 34.5 53.0001C34.4996 51.8134 34.8219 50.6531 35.426 49.6662C36.0301 48.6792 36.8889 47.9098 37.8939 47.4554C38.8989 47.0009 40.0048 46.8818 41.0718 47.1131C42.1388 47.3444 43.119 47.9156 43.8884 48.7547C44.6578 49.5937 45.1818 50.6628 45.3942 51.8267C45.6065 52.9907 45.4977 54.1972 45.0815 55.2936C44.6653 56.3901 43.9604 57.3273 43.0558 57.9867Z" fill="#F88F2E"/>
<path d="M34.8743 41.998C32.2085 45.2562 29.5 49.5114 29.5 53.3511C29.5 59.4704 34.6291 63.998 40 63.998C45.3709 63.998 50.5 59.4704 50.5 53.3511C50.5 49.5114 47.7915 45.2562 45.1257 41.998" stroke="#444444" stroke-width="2" stroke-linecap="round"/>
<path d="M34.5 31.498L30.5 27.498L32 25.998L28.5 22.498" stroke="#444444" stroke-width="2" stroke-linecap="round" stroke-linejoin="round"/>
<path d="M47 31.498L51 27.498L49.5 25.998L53 22.498" stroke="#444444" stroke-width="2" stroke-linecap="round" stroke-linejoin="round"/>
<path d="M41 27.998V21.998H43V15.998" stroke="#444444" stroke-width="2" stroke-linecap="round" stroke-linejoin="round"/>
<path d="M3.5 40.9983H23C25.6667 40.9983 30.5 40.9983 33.5 38.4983C37.3216 35.3136 41.303 34.2462 46.5 38.4983C48.9444 40.4982 52 41.4983 57.5 41.4983C62.7154 41.4983 72 41.3316 76 41.4983" stroke="#444444" stroke-width="2" stroke-linecap="round" stroke-linejoin="round"/>
</svg>
