<svg width="40" height="40" viewBox="0 0 40 40" fill="none" xmlns="http://www.w3.org/2000/svg">
<path d="M7.14174 16.4284L3.57031 13.5713V23.5713L4.99888 24.9999L7.14174 26.4284H9.2846L10.7132 25.7141L12.1417 24.2856L13.5703 23.5713H14.9989L16.4275 24.2856L17.856 25.7141L19.2846 26.4284H21.4275L22.856 24.9999L24.2846 23.5713H26.4275L27.856 24.2856L29.9989 26.4284L32.1417 27.1427L34.2846 25.7141L35.7132 23.5713H37.1417V13.5713L34.9989 14.2856L32.856 16.4284H31.4275H29.9989L27.856 14.2856L26.4275 13.5713H24.9989L23.5703 14.2856L21.4275 16.4284H19.9989L17.856 15.7141L14.9989 13.5713H12.856L10.7132 15.7141L8.57031 16.4284H7.14174Z" fill="#FFE665"/>
<path d="M31.4258 17.4181C29.8109 17.4181 28.9736 16.5268 28.2344 15.7401C27.5487 15.0095 26.9535 14.3776 25.711 14.3776C24.4685 14.3776 23.8754 15.0095 23.1883 15.7401C22.4491 16.5268 21.6111 17.4181 19.997 17.4181C18.3828 17.4181 17.5448 16.5268 16.8056 15.7401C16.1199 15.0095 15.5254 14.3776 14.2829 14.3776C13.0404 14.3776 12.4472 15.0095 11.7602 15.7401C11.0216 16.5268 10.183 17.4181 8.56884 17.4181C6.95467 17.4181 6.11673 16.5268 5.37821 15.7401C4.84778 15.1749 4.37152 14.6689 3.60822 14.4687C3.20216 14.3621 2.85547 14.0373 2.85547 13.6175C2.85547 13.1977 3.19964 12.8471 3.61136 12.9291C4.7507 13.1559 5.43248 13.8815 6.0461 14.5344C6.73181 15.266 7.32701 15.8979 8.56884 15.8979C9.81067 15.8979 10.4045 15.266 11.0916 14.5344C11.8308 13.7486 12.6687 12.8574 14.2829 12.8574C15.8971 12.8574 16.735 13.7486 17.4742 14.5344C18.1599 15.266 18.7544 15.8979 19.997 15.8979C21.2395 15.8979 21.8326 15.266 22.5197 14.5344C23.2589 13.7486 24.0968 12.8574 25.711 12.8574C27.3252 12.8574 28.1638 13.7486 28.903 14.5344C29.5887 15.266 30.1839 15.8979 31.4258 15.8979C32.6676 15.8979 33.2621 15.266 33.9492 14.5344C34.5634 13.8815 35.2457 13.1558 36.3853 12.9291C36.797 12.8471 37.1412 13.1977 37.1412 13.6175C37.1412 14.0373 36.7945 14.3621 36.3884 14.4686C35.625 14.6688 35.1493 15.1749 34.6177 15.7401C33.8785 16.5268 33.0413 17.4181 31.4258 17.4181Z" fill="#444444" stroke="#444444" stroke-width="0.75"/>
<path d="M31.4258 27.4181C29.8109 27.4181 28.9736 26.5268 28.2344 25.7401C27.5487 25.0095 26.9535 24.3776 25.711 24.3776C24.4685 24.3776 23.8754 25.0095 23.1883 25.7401C22.4491 26.5268 21.6111 27.4181 19.997 27.4181C18.3828 27.4181 17.5448 26.5268 16.8056 25.7401C16.1199 25.0095 15.5254 24.3776 14.2829 24.3776C13.0404 24.3776 12.4472 25.0095 11.7602 25.7401C11.0216 26.5268 10.183 27.4181 8.56884 27.4181C6.95467 27.4181 6.11673 26.5268 5.37821 25.7401C4.84778 25.1749 4.37152 24.6689 3.60822 24.4687C3.20216 24.3621 2.85547 24.0373 2.85547 23.6175C2.85547 23.1977 3.19964 22.8471 3.61136 22.9291C4.7507 23.1559 5.43248 23.8815 6.0461 24.5344C6.73181 25.266 7.32701 25.8979 8.56884 25.8979C9.81067 25.8979 10.4045 25.266 11.0916 24.5344C11.8308 23.7486 12.6687 22.8574 14.2829 22.8574C15.8971 22.8574 16.735 23.7486 17.4742 24.5344C18.1599 25.266 18.7544 25.8979 19.997 25.8979C21.2395 25.8979 21.8326 25.266 22.5197 24.5344C23.2589 23.7486 24.0968 22.8574 25.711 22.8574C27.3252 22.8574 28.1638 23.7486 28.903 24.5344C29.5887 25.266 30.1839 25.8979 31.4258 25.8979C32.6676 25.8979 33.2621 25.266 33.9492 24.5344C34.5634 23.8815 35.2457 23.1558 36.3853 22.9291C36.797 22.8471 37.1412 23.1977 37.1412 23.6175C37.1412 24.0373 36.7945 24.3621 36.3884 24.4686C35.625 24.6688 35.1493 25.1749 34.6177 25.7401C33.8785 26.5268 33.0413 27.4181 31.4258 27.4181Z" fill="#444444" stroke="#444444" stroke-width="0.75"/>
</svg>
