<svg width="20" height="20" viewBox="0 0 20 20" fill="none" xmlns="http://www.w3.org/2000/svg">
<path d="M15.7132 11.7462C15.7132 15.2586 12.7474 17.8574 9.64174 17.8574C6.53613 17.8574 3.57031 15.2586 3.57031 11.7462C3.57031 8.34793 7.29391 4.38267 8.90896 2.82263C9.32185 2.42381 9.96164 2.42381 10.3745 2.82263C11.9896 4.38267 15.7132 8.34793 15.7132 11.7462Z" fill="white"/>
<rect width="8.5" height="7" rx="3.5" transform="matrix(1 0 0 -1 5.5 17)" fill="#FFE665"/>
<path d="M12.8577 12.1431C12.6791 12.7145 12.0006 13.9431 10.7148 14.2859" stroke="#444444" stroke-linecap="round"/>
<path fill-rule="evenodd" clip-rule="evenodd" d="M14.7132 11.7462C14.7132 14.6717 12.2302 16.8573 9.64174 16.8573C7.05332 16.8573 4.57031 14.6717 4.57031 11.7462C4.57031 10.3687 5.34651 8.74251 6.45203 7.17017C7.53341 5.63217 8.81816 4.30059 9.60371 3.54181C9.6134 3.53245 9.62098 3.52849 9.62582 3.52655C9.63117 3.52441 9.63651 3.52344 9.64174 3.52344C9.64698 3.52344 9.65231 3.52441 9.65766 3.52655C9.6625 3.52849 9.67008 3.53245 9.67977 3.54181C9.8759 3.73125 10.1031 3.9564 10.3506 4.21155C10.5696 3.95837 10.8243 3.73691 11.1068 3.55501C10.8352 3.27385 10.5867 3.02746 10.3745 2.82256C9.96164 2.42373 9.32185 2.42373 8.90896 2.82256C7.29391 4.38259 3.57031 8.34785 3.57031 11.7462C3.57031 15.2585 6.53613 17.8573 9.64174 17.8573C12.7474 17.8573 15.7132 15.2585 15.7132 11.7462C15.7132 10.9351 15.501 10.0916 15.1561 9.25636C14.892 9.46332 14.5975 9.63315 14.2804 9.75802C14.5552 10.4528 14.7132 11.1248 14.7132 11.7462Z" fill="#444444"/>
<rect x="11" y="6" width="4" height="1" rx="0.5" fill="#444444"/>
</svg>
