<svg width="20" height="20" viewBox="0 0 20 20" fill="none" xmlns="http://www.w3.org/2000/svg">
<path d="M15.7132 11.7462C15.7132 15.2586 12.7474 17.8574 9.64174 17.8574C6.53613 17.8574 3.57031 15.2586 3.57031 11.7462C3.57031 8.34792 7.29391 4.38267 8.90896 2.82263C9.32185 2.42381 9.96164 2.42381 10.3745 2.82263C11.9896 4.38267 15.7132 8.34792 15.7132 11.7462Z" fill="white"/>
<path d="M4.28516 12.857V10.7142C7.99944 8.99989 12.9756 9.76179 14.9994 10.357V12.857C11.6815 11.6325 7.1423 12.1427 4.28516 12.857Z" fill="#FFE665"/>
<path fill-rule="evenodd" clip-rule="evenodd" d="M10.8192 3.26137C10.6586 3.09951 10.5092 2.95267 10.3745 2.82256C9.96164 2.42373 9.32185 2.42373 8.90896 2.82256C7.29391 4.38259 3.57031 8.34785 3.57031 11.7462C3.57031 15.2585 6.53613 17.8573 9.64174 17.8573C12.7474 17.8573 15.7132 15.2585 15.7132 11.7462C15.7132 10.8124 15.4321 9.83593 14.9908 8.87827C14.718 9.06744 14.417 9.21882 14.0954 9.32484C14.4832 10.1731 14.7132 10.9965 14.7132 11.7462C14.7132 14.6717 12.2302 16.8573 9.64174 16.8573C7.05332 16.8573 4.57031 14.6717 4.57031 11.7462C4.57031 10.3687 5.34651 8.74251 6.45203 7.17017C7.53341 5.63217 8.81816 4.30059 9.60371 3.54181C9.6134 3.53245 9.62098 3.52849 9.62582 3.52655C9.63117 3.52441 9.63651 3.52344 9.64174 3.52344C9.64698 3.52344 9.65231 3.52441 9.65766 3.52655C9.6625 3.52849 9.67008 3.53245 9.67977 3.54181C9.81697 3.67433 9.96939 3.82432 10.1333 3.98984C10.3261 3.71546 10.5574 3.47003 10.8192 3.26137Z" fill="#444444"/>
<rect x="11" y="5.5" width="4" height="1" rx="0.5" fill="#444444"/>
<rect x="13.5" y="4" width="4" height="1" rx="0.5" transform="rotate(90 13.5 4)" fill="#444444"/>
<path d="M4.6949 12.7235C6.37362 12.2583 10.7085 11.3421 14.5942 12.7235" stroke="#444444" stroke-linecap="round"/>
<path d="M4.6949 10.3588C6.37362 9.89353 10.7085 8.97731 14.5942 10.3588" stroke="#444444" stroke-linecap="round"/>
</svg>
