<svg width="50" height="50" viewBox="0 0 50 50" fill="none" xmlns="http://www.w3.org/2000/svg">
<path d="M39.2868 29.3673C39.2868 38.1481 31.8723 44.6451 24.1083 44.6451C16.3442 44.6451 8.92969 38.1481 8.92969 29.3673C8.92969 19.964 20.3336 8.82444 23.3719 6.02339C23.794 5.63429 24.4225 5.63429 24.8446 6.02339C27.8829 8.82444 39.2868 19.964 39.2868 29.3673Z" fill="white"/>
<rect width="21.25" height="17.5" rx="8.75" transform="matrix(1 0 0 -1 13.75 42.5)" fill="#FFE665"/>
<path d="M32.1462 30.3594C31.6998 31.7879 30.0033 34.8594 26.7891 35.7165" stroke="#444444" stroke-width="2.5" stroke-linecap="round"/>
<path fill-rule="evenodd" clip-rule="evenodd" d="M36.7868 29.3623C36.7868 36.6762 30.5793 42.1401 24.1083 42.1401C17.6372 42.1401 11.4297 36.6762 11.4297 29.3623C11.4297 25.5284 13.8297 20.9596 17.0119 16.7139C19.5624 13.3111 22.374 10.4286 24.1083 8.75978C24.6172 9.24953 25.219 9.84382 25.8797 10.5251C26.4272 9.89217 27.064 9.33856 27.7704 8.88383C26.5392 7.60961 25.4983 6.62102 24.8446 6.01839C24.4225 5.62929 23.794 5.62929 23.3719 6.01839C20.3336 8.81943 8.92969 19.959 8.92969 29.3623C8.92969 38.1431 16.3442 44.6401 24.1083 44.6401C31.8723 44.6401 39.2868 38.1431 39.2868 29.3623C39.2868 27.3343 38.7564 25.2255 37.8938 23.137C37.2338 23.6544 36.4976 24.079 35.7048 24.3912C36.3899 26.1223 36.7868 27.8031 36.7868 29.3623Z" fill="#444444"/>
<rect x="27.5" y="15" width="10" height="2.5" rx="1.25" fill="#444444"/>
</svg>
