<svg width="50" height="50" viewBox="0 0 50 50" fill="none" xmlns="http://www.w3.org/2000/svg">
<path d="M39.2878 29.3673C39.2878 38.1481 31.8733 44.6451 24.1092 44.6451C16.3452 44.6451 8.93066 38.1481 8.93066 29.3673C8.93066 19.964 20.3346 8.82444 23.3729 6.02339C23.795 5.63429 24.4235 5.63429 24.8456 6.02339C27.8839 8.82444 39.2878 19.964 39.2878 29.3673Z" fill="white"/>
<path d="M10.7129 32.1411V26.784C19.9986 22.4983 32.4391 24.403 37.4986 25.8911V32.1411C29.2037 29.0799 17.8557 30.3554 10.7129 32.1411Z" fill="#FFE665"/>
<path fill-rule="evenodd" clip-rule="evenodd" d="M36.7888 29.3623C36.7888 36.6762 30.5813 42.1401 24.1102 42.1401C17.6392 42.1401 11.4316 36.6762 11.4316 29.3623C11.4316 25.5284 13.8316 20.9596 17.0138 16.7139C19.5643 13.3111 22.376 10.4286 24.1102 8.75978C24.4757 9.11151 24.8891 9.51716 25.3379 9.97025C25.8201 9.28436 26.3983 8.67085 27.0529 8.14927C26.1374 7.22693 25.3685 6.4996 24.8465 6.01839C24.4245 5.62929 23.796 5.62929 23.3739 6.01839C20.3356 8.81943 8.93164 19.959 8.93164 29.3623C8.93164 38.1431 16.3462 44.6401 24.1102 44.6401C31.8742 44.6401 39.2888 38.1431 39.2888 29.3623C39.2888 27.0276 38.5858 24.5859 37.4824 22.1913C36.8005 22.6643 36.0481 23.0429 35.2442 23.3081C36.2101 25.4198 36.7888 27.4797 36.7888 29.3623Z" fill="#444444"/>
<rect x="27.5" y="13.75" width="10" height="2.5" rx="1.25" fill="#444444"/>
<rect x="33.75" y="10" width="10" height="2.5" rx="1.25" transform="rotate(90 33.75 10)" fill="#444444"/>
<path d="M11.7324 31.8064C15.9292 30.6433 26.7663 28.3527 36.4805 31.8064" stroke="#444444" stroke-width="2.5" stroke-linecap="round"/>
<path d="M11.7324 25.9002C15.9292 24.737 26.7663 22.4465 36.4805 25.9002" stroke="#444444" stroke-width="2.5" stroke-linecap="round"/>
</svg>
