<svg width="30" height="30" viewBox="0 0 30 30" fill="none" xmlns="http://www.w3.org/2000/svg">
<path d="M23.5698 17.6196C23.5698 22.8881 19.121 26.7863 14.4626 26.7863C9.80419 26.7863 5.35547 22.8881 5.35547 17.6196C5.35547 12.2452 11.5641 5.92559 13.7288 3.88552C14.1466 3.49181 14.7787 3.49181 15.1964 3.88553C17.3611 5.92559 23.5698 12.2453 23.5698 17.6196Z" fill="white"/>
<rect width="12.75" height="10.5" rx="5.25" transform="matrix(1 0 0 -1 8.25 25.5)" fill="#FFE665"/>
<path d="M19.2846 18.2148C19.0167 19.072 17.9989 20.9148 16.0703 21.4291" stroke="#444444" stroke-width="1.5" stroke-linecap="round"/>
<path fill-rule="evenodd" clip-rule="evenodd" d="M22.0698 17.6192C22.0698 22.0076 18.3452 25.2859 14.4626 25.2859C10.58 25.2859 6.85547 22.0076 6.85547 17.6192C6.85547 15.4343 8.15602 12.8423 9.94356 10.384C11.5369 8.19272 13.3584 6.32023 14.4626 5.25768C14.7686 5.55213 15.1297 5.90878 15.5257 6.31718C15.8542 5.93739 16.2362 5.60519 16.6601 5.33233C16.0841 4.73626 15.5776 4.24435 15.1964 3.88513C14.7787 3.49142 14.1466 3.49141 13.7288 3.88513C11.5641 5.92519 5.35547 12.2449 5.35547 17.6192C5.35547 22.8877 9.80419 26.7859 14.4626 26.7859C19.121 26.7859 23.5698 22.8877 23.5698 17.6192C23.5698 16.4025 23.2515 15.1373 22.7341 13.8843C22.338 14.1947 21.8962 14.4495 21.4205 14.6368C21.8322 15.6771 22.0698 16.6854 22.0698 17.6192Z" fill="#444444"/>
<rect x="16.5" y="9" width="6" height="1.5" rx="0.75" fill="#444444"/>
</svg>
