<svg width="176" height="198" viewBox="0 0 176 198" fill="none" xmlns="http://www.w3.org/2000/svg">
<path d="M97.4841 124.942C102.718 122.199 107.02 117.964 109.847 112.775C112.674 107.586 113.899 101.676 113.367 95.7903C112.834 89.9052 110.569 84.31 106.856 79.7126C103.144 75.1152 98.1513 71.7219 92.5102 69.962C86.8692 68.2021 80.8329 68.1546 75.1649 69.8255C69.4968 71.4963 64.4516 74.8105 60.6672 79.349C56.8828 83.8874 54.5293 89.4461 53.9043 95.3222C53.2793 101.198 54.4108 107.128 57.1559 112.361C60.843 119.369 67.1591 124.63 74.7191 126.988C82.279 129.347 90.4658 128.611 97.4841 124.942V124.942ZM70.9378 74.3469C75.7121 71.8418 81.1221 70.8088 86.4836 71.3785C91.845 71.9481 96.9171 74.0949 101.059 77.5472C105.2 80.9995 108.225 85.6024 109.75 90.7738C111.275 95.9451 111.233 101.453 109.628 106.6C108.023 111.747 104.928 116.303 100.734 119.691C96.5404 123.079 91.4358 125.148 86.0663 125.635C80.6967 126.122 75.3033 125.006 70.568 122.428C65.8327 119.85 61.9684 115.925 59.4635 111.151C56.1128 104.747 55.4391 97.2759 57.5902 90.3761C59.7413 83.4764 64.5416 77.7117 70.9378 74.3469V74.3469Z" fill="#84EDDB"/>
<path d="M102.97 135.393C123.319 124.715 131.187 99.4817 120.509 79.1331C109.832 58.7844 84.5997 50.9191 64.2511 61.5966C43.9024 72.2741 36.0347 97.5077 46.7122 117.856C57.3897 138.205 82.617 146.059 102.97 135.393ZM64.7652 62.581C84.5621 52.1942 109.115 59.8379 119.517 79.6565C129.919 99.475 122.26 124.006 102.441 134.408C82.6227 144.81 58.0919 137.151 47.6896 117.333C37.2873 97.5141 44.9744 72.9815 64.7652 62.581Z" fill="#84EDDB" stroke="#84EDDB"/>
<g clip-path="url(#clip0_1828_11019)">
<path d="M61.1909 99.1064L66.8146 96.3609C71.3069 94.1678 75.1255 95.6121 77.3508 100.177C79.7715 105.143 77.1812 108.876 73.9298 110.463L68.1116 113.303L67.8301 112.726L68.792 112.256C69.4698 111.925 69.468 111.677 68.5072 109.706L64.1153 100.697C63.4553 99.3431 63.1381 98.8802 62.4965 99.1934L61.4761 99.6915L61.1909 99.1064ZM71.7341 110.82L73.4153 109.999C77.1343 108.184 76.4508 104.421 74.907 101.254C73.2651 97.886 70.7419 95.1717 66.9481 97.0239L65.3816 97.7886L71.7341 110.82Z" fill="#84EDDB"/>
<path d="M80.6656 106.578L81.8303 106.01C82.5059 105.68 82.4016 105.233 82.0079 104.425L79.3299 98.9318C78.5054 97.2405 78.161 96.9097 77.6371 97.1655L76.7203 97.6131L76.4358 97.0295L78.5454 95.9996C78.9988 95.7696 79.3951 95.4402 79.7066 95.0347L80.8541 97.3888L80.8919 97.3704C80.873 95.9092 81.1769 94.3169 82.5702 93.6367C82.7728 93.5104 82.9996 93.4283 83.2367 93.3956C83.4737 93.3629 83.7159 93.3802 83.9482 93.4465C84.1806 93.5128 84.3982 93.6266 84.5876 93.7809C84.777 93.9353 84.9341 94.1268 85.0493 94.3438C85.1531 94.5111 85.2199 94.6988 85.245 94.8936C85.2701 95.0884 85.2529 95.2855 85.1947 95.4709C85.1364 95.6562 85.0384 95.8254 84.9078 95.9662C84.7771 96.107 84.617 96.2161 84.4387 96.2858C83.8956 96.5509 83.2062 96.5649 82.921 95.9798C82.8447 95.7906 82.7831 95.5958 82.7369 95.3973C82.6674 95.2548 82.4076 95.3609 82.2715 95.4273C81.0876 96.0053 81.1089 97.6634 82.8848 101.306L83.9444 103.48C84.3863 104.387 84.7184 104.6 85.3007 104.316L86.3929 103.782L86.6774 104.366L80.9501 107.162L80.6656 106.578Z" fill="#84EDDB"/>
<path d="M88.5096 100.629C88.7471 100.513 89.0147 100.472 89.2785 100.511C89.5423 100.55 89.7905 100.668 89.9916 100.85C90.1928 101.032 90.3378 101.269 90.4084 101.531C90.479 101.794 90.4719 102.07 90.3882 102.325C90.3044 102.58 90.1477 102.802 89.9378 102.964C89.728 103.125 89.4744 103.218 89.2092 103.231C88.9441 103.245 88.6792 103.178 88.4482 103.038C88.2172 102.899 88.0304 102.694 87.9114 102.45C87.7657 102.12 87.7464 101.749 87.8573 101.412C87.9682 101.074 88.2012 100.795 88.5096 100.629" fill="#84EDDB"/>
<path d="M97.979 85.6178L97.3012 85.9487C96.8273 85.0499 96.0281 84.3703 95.0774 84.058C94.1268 83.7457 93.1019 83.826 92.2259 84.2813C88.703 86.0012 90.1494 90.4022 91.5298 93.234C92.9871 96.2235 95.3383 99.5659 98.6595 98.069C99.0385 97.9274 99.3803 97.7016 99.6605 97.4077C99.9407 97.1138 100.152 96.7591 100.28 96.3689C100.408 95.9787 100.45 95.5626 100.401 95.1503C100.352 94.7379 100.215 94.3396 99.9996 93.9836L99.2461 92.4378C99.1868 92.2893 99.0979 92.1544 98.985 92.0418C98.8721 91.9292 98.7378 91.8415 98.5908 91.7843C98.4437 91.7271 98.2873 91.7017 98.1314 91.7097C97.9756 91.7177 97.8239 91.759 97.6861 91.8309L96.016 92.6463L95.7345 92.0688L102.061 88.9801L102.343 89.5576L101.529 89.9549C100.908 90.258 100.954 90.7219 101.441 91.7192L103.63 96.2102L103.084 96.4769C102.911 96.2643 102.696 96.0709 102.232 96.2978C101.592 96.6103 100.994 97.6433 98.9243 98.6537C94.2766 100.923 91.0955 98.4278 89.0072 94.1439C87.1032 90.238 87.764 85.7419 91.7887 83.777C92.4991 83.4175 93.2639 83.1772 94.0543 83.0652C94.5032 83.0395 94.9459 82.9565 95.372 82.818C95.5843 82.7143 95.5739 82.4468 95.4483 82.1385L96.1261 81.8075L97.979 85.6178Z" fill="#84EDDB"/>
<path d="M101.426 100.823L74.8012 113.821L75.2387 114.719L101.863 101.721L101.426 100.823Z" fill="#84EDDB"/>
</g>
<path d="M111.197 99.4842C111.156 99.3853 111.14 99.2775 111.152 99.171C111.164 99.0645 111.203 98.9628 111.265 98.8753C111.327 98.7879 111.41 98.7176 111.506 98.6712C111.603 98.6247 111.71 98.6035 111.817 98.6096C112.54 98.6541 114.628 98.8903 115.322 98.9596C118.504 99.2761 121.506 99.5758 126.533 97.4757C131.559 95.3755 133.455 93.0245 135.461 90.5392C137.468 88.0538 139.569 85.457 144.889 83.2334C150.209 81.0099 153.513 81.3401 156.71 81.6568L157.393 81.7265C157.507 81.7361 157.615 81.7768 157.708 81.8442C157.8 81.9116 157.871 82.0031 157.915 82.1086C157.956 82.2094 157.971 82.3191 157.958 82.4273C157.944 82.5354 157.903 82.6383 157.838 82.7259C157.773 82.8135 157.687 82.8828 157.587 82.9272C157.488 82.9715 157.379 82.9894 157.27 82.9791L156.577 82.9204C153.397 82.6023 150.395 82.3026 145.377 84.4147C140.359 86.5268 138.455 88.8659 136.446 91.3488C134.438 93.8317 132.341 96.4334 127.021 98.6569C121.701 100.88 118.394 100.552 115.2 100.234C114.512 100.167 112.44 99.9338 111.746 99.8899C111.628 99.8834 111.514 99.8438 111.418 99.7755C111.321 99.7072 111.245 99.613 111.2 99.5038L111.197 99.4842Z" fill="#84EDDB"/>
<path d="M110.893 93.2262C110.852 93.1273 110.837 93.0195 110.848 92.913C110.86 92.8065 110.899 92.7047 110.961 92.6173C111.023 92.5299 111.106 92.4596 111.203 92.4132C111.299 92.3667 111.406 92.3455 111.513 92.3516C112.236 92.3961 111.903 92.3657 112.595 92.4368C115.776 92.7532 118.779 93.0529 123.805 90.9528C128.832 88.8527 130.728 86.5016 132.738 84.017C134.749 81.5323 136.841 78.9341 142.161 76.7106C147.482 74.4871 150.788 74.8155 153.983 75.134L154.671 75.2002C154.784 75.2107 154.892 75.252 154.984 75.3196C155.075 75.3873 155.147 75.4787 155.19 75.584C155.231 75.6848 155.246 75.7945 155.233 75.9027C155.219 76.0109 155.178 76.1137 155.113 76.2013C155.049 76.2889 154.962 76.3582 154.863 76.4026C154.763 76.447 154.654 76.4648 154.545 76.4545L153.86 76.3866C150.678 76.0701 147.676 75.7704 142.658 77.8825C137.64 79.9947 135.735 82.3337 133.727 84.8166C131.719 87.2995 129.621 89.9012 124.301 92.1247C118.981 94.3483 115.675 94.0198 112.48 93.7014C111.792 93.6351 112.144 93.6665 111.451 93.6226C111.333 93.6161 111.219 93.5765 111.122 93.5082C111.025 93.4399 110.95 93.3457 110.904 93.2365L110.893 93.2262Z" fill="#84EDDB"/>
<path d="M110.246 86.7927C110.205 86.6938 110.189 86.586 110.201 86.4795C110.213 86.373 110.252 86.2712 110.314 86.1838C110.376 86.0964 110.459 86.0261 110.555 85.9796C110.652 85.9332 110.759 85.912 110.866 85.9181C111.589 85.9626 109.176 85.8428 109.87 85.9121C113.05 86.2302 116.052 86.5299 121.079 84.4298C126.105 82.3297 128.001 79.9787 130.011 77.494C132.022 75.0094 134.114 72.4153 139.43 70.1911C144.746 67.9669 148.054 68.2977 151.249 68.6162L151.934 68.6842C152.047 68.6952 152.155 68.7369 152.246 68.8049C152.338 68.8728 152.408 68.9644 152.451 69.0697C152.493 69.1704 152.508 69.2802 152.494 69.3884C152.481 69.4965 152.44 69.5994 152.375 69.687C152.31 69.7746 152.223 69.8439 152.124 69.8883C152.024 69.9326 151.915 69.9505 151.807 69.9402L151.121 69.8722C147.942 69.5541 144.937 69.2561 139.921 71.3665C134.906 73.4769 132.999 75.8176 130.988 78.3023C128.978 80.7869 126.885 83.3852 121.563 85.6104C116.24 87.8357 112.938 87.5037 109.742 87.187C109.054 87.1208 111.488 87.2399 110.791 87.1977C110.673 87.1906 110.56 87.1506 110.463 87.0824C110.367 87.0142 110.291 86.9204 110.245 86.8116L110.246 86.7927Z" fill="#84EDDB"/>
<path d="M104.584 80.0593C104.542 79.9604 104.527 79.8526 104.539 79.7461C104.551 79.6396 104.589 79.5379 104.651 79.4504C104.713 79.363 104.797 79.2928 104.893 79.2463C104.99 79.1998 105.097 79.1786 105.204 79.1848C105.929 79.2275 104.562 79.1177 105.256 79.187C105.839 79.2453 105.223 79.1498 108.887 79.5475C111.491 79.7364 114.246 79.622 118.352 77.9068C123.378 75.8067 125.274 73.4556 127.284 70.971C129.295 68.4863 131.388 65.8881 136.71 63.6629C142.033 61.4376 145.335 61.7695 148.529 62.088L149.214 62.1559C149.328 62.1664 149.436 62.2077 149.528 62.2754C149.619 62.343 149.69 62.4344 149.734 62.5397C149.776 62.6402 149.791 62.7498 149.778 62.8578C149.765 62.9659 149.724 63.0687 149.659 63.1562C149.594 63.2437 149.508 63.313 149.409 63.3572C149.309 63.4014 149.2 63.4191 149.092 63.4085L148.404 63.3423C145.224 63.0241 142.222 62.7244 137.204 64.8365C132.186 66.9487 130.282 69.2877 128.271 71.7724C126.26 74.257 124.168 76.8552 118.845 79.0805C114.531 80.8841 111.545 81.0078 108.866 80.8213C105.159 80.4224 105.743 80.5151 105.137 80.455C105.833 80.4972 104.45 80.3847 105.137 80.455C105.019 80.4479 104.905 80.408 104.809 80.3398C104.712 80.2716 104.637 80.1778 104.591 80.0689L104.584 80.0593Z" fill="#84EDDB"/>
<g clip-path="url(#clip1_1828_11019)">
<path d="M50.7412 87.6711L50.1356 89.7214L52.3626 90.3807L51.9839 91.693L46.5845 90.0868L46.9632 88.7744L49.0809 89.3988L49.6864 87.3484L47.5688 86.7241L47.947 85.4067L53.3504 87.0025L52.9722 88.3199L50.7412 87.6711Z" fill="#84EDDB"/>
<path d="M51.275 80.8614L50.3644 82.7291L51.391 83.2309L52.1958 81.5751L53.1481 82.0387L52.3433 83.6945L53.4591 84.2333L54.3642 82.3611L55.3534 82.8413L53.8457 85.9515L48.7726 83.4868L50.2858 80.3811L51.275 80.8614Z" fill="#84EDDB"/>
<path d="M57.0817 78.454L55.859 80.17L56.475 81.0189L55.6392 82.1935L52.2261 77.2597L53.1512 75.9656L58.9289 77.5709L58.0891 78.756L57.0817 78.454ZM53.9232 77.4956L55.2068 79.259L56.0114 78.1278L53.9232 77.4956Z" fill="#84EDDB"/>
<path d="M56.4619 72.0926L59.7358 75.3097L60.9947 74.024L61.7515 74.7636L59.5328 77.034L55.5035 73.0923L56.4619 72.0926Z" fill="#84EDDB"/>
<path d="M58.7166 69.8794L62.1689 67.2184L62.8423 68.0871L61.6584 68.9974L64.4292 72.5955L63.3391 73.4313L60.5688 69.8382L59.3899 70.748L58.7166 69.8794Z" fill="#84EDDB"/>
<path d="M68.3454 67.5145L66.4588 68.5124L67.5383 70.5677L66.3217 71.1886L63.6952 66.1997L64.9118 65.5788L65.9632 67.5511L67.8548 66.5528L66.8253 64.5985L68.0419 63.9776L70.6685 68.9666L69.4519 69.5875L68.3454 67.5145Z" fill="#84EDDB"/>
<path d="M69.5876 63.2596L71.0564 62.7961L72.8044 64.7219L73.1324 62.1433L74.6016 61.6848L73.8678 65.8709L74.4264 67.6483L73.1142 68.0615L72.5551 66.2791L69.5876 63.2596Z" fill="#84EDDB"/>
<path d="M81.0864 66.5161C79.8769 66.632 78.886 66.0812 78.7624 64.9481L80.2197 64.8388C80.2258 64.9276 80.2505 65.0141 80.2921 65.0927C80.3336 65.1714 80.3912 65.2404 80.4611 65.2955C80.531 65.3506 80.6116 65.3904 80.6978 65.4124C80.784 65.4345 80.8739 65.4382 80.9616 65.4235C81.3614 65.3852 81.6036 65.1753 81.5784 64.86C81.4789 63.8204 78.7334 64.5928 78.5978 62.5984C78.4958 61.5338 79.3459 60.8774 80.5223 60.7849C81.6988 60.6924 82.6187 61.2398 82.7566 62.311L81.2544 62.4246C81.246 62.3431 81.2212 62.2641 81.1815 62.1924C81.1418 62.1207 81.088 62.0578 81.0233 62.0074C80.9586 61.9571 80.8844 61.9203 80.8052 61.8994C80.726 61.8785 80.6433 61.8738 80.5622 61.8856C80.4886 61.8801 80.4147 61.8908 80.3458 61.917C80.2768 61.9433 80.2145 61.9844 80.1632 62.0375C80.112 62.0905 80.073 62.1542 80.0492 62.2241C80.0254 62.2939 80.0172 62.3681 80.0253 62.4415C80.1187 63.4161 82.8462 62.7715 82.9857 64.6495C83.0747 65.5792 82.3988 66.4207 81.0864 66.5161Z" fill="#84EDDB"/>
<path d="M85.7535 63.9505L85.5218 66.429L84.1529 66.3029L84.6809 60.7042L86.0502 60.8353L85.8171 63.2988L87.923 61.009L89.5311 61.1575L87.0969 63.7058L89.0814 66.7841L87.4119 66.6263L85.7535 63.9505Z" fill="#84EDDB"/>
<path d="M91.1649 61.5256L92.5055 61.8309L91.252 67.3328L89.9164 67.0269L91.1649 61.5256Z" fill="#84EDDB"/>
<path d="M99.156 64.074L97.1396 69.3513L95.8572 68.8638L94.9629 64.7934L93.7258 68.0441L92.4434 67.5566L94.4603 62.2843L95.7427 62.7718L96.6384 66.8572L97.8786 63.586L99.156 64.074Z" fill="#84EDDB"/>
</g>
<g clip-path="url(#clip2_1828_11019)">
<path d="M113.919 114.457L114.909 112.334L112.619 111.25L113.264 109.896L118.837 112.549L118.192 113.903L116.029 112.86L115.039 114.984L117.206 116.031L116.561 117.384L110.987 114.732L111.632 113.378L113.919 114.457Z" fill="#84EDDB"/>
<path d="M108.965 119.532L110.313 117.681L109.652 116.745L110.583 115.477L114.23 120.914L113.217 122.299L106.936 120.463L107.876 119.182L108.965 119.532ZM112.393 120.62L111.019 118.678L110.126 119.904L112.393 120.62Z" fill="#84EDDB"/>
<path d="M106.091 124.339L106.758 123.697L105.235 122.101L106.313 121.065L110.571 125.511L108.817 127.189C107.726 128.234 106.594 128.136 105.811 127.32C105.1 126.58 104.948 125.417 106.091 124.339ZM106.991 125.121C106.563 125.535 106.583 125.925 106.911 126.268C107.239 126.61 107.632 126.649 108.061 126.235L108.652 125.672L107.582 124.558L106.991 125.121Z" fill="#84EDDB"/>
<path d="M101.403 128.086L102.168 127.562L100.928 125.752L102.16 124.902L105.647 129.972L103.646 131.349C102.409 132.203 101.326 131.916 100.642 131.012C100.077 130.147 100.11 128.975 101.403 128.086ZM102.172 129.002C101.679 129.341 101.64 129.734 101.911 130.12C102.182 130.505 102.559 130.612 103.047 130.277L103.718 129.811L102.841 128.543L102.172 129.002Z" fill="#84EDDB"/>
<path d="M100.476 133.398L98.95 134.106L96.7791 132.272L96.7969 135.11L95.2714 135.818L95.4628 131.187L94.6035 129.343L95.9627 128.706L96.8221 130.549L100.476 133.398Z" fill="#84EDDB"/>
<path d="M87.5873 131.52C88.8746 131.233 90.0293 131.678 90.3237 132.884L88.7648 133.212C88.7442 133.117 88.7043 133.027 88.6475 132.948C88.5907 132.868 88.5182 132.802 88.4346 132.752C88.351 132.701 88.258 132.669 88.1613 132.656C88.0647 132.644 87.9665 132.651 87.8728 132.678C87.4458 132.767 87.2125 133.04 87.2886 133.395C87.5213 134.51 90.4098 133.279 90.8333 135.419C91.0705 136.558 90.2665 137.393 89.0109 137.65C87.7552 137.906 86.6794 137.456 86.3787 136.323L87.966 135.988C87.987 136.074 88.0253 136.156 88.0785 136.227C88.1318 136.299 88.1989 136.359 88.276 136.404C88.353 136.449 88.4383 136.478 88.5268 136.489C88.6153 136.501 88.7051 136.494 88.791 136.469C88.8715 136.465 88.9502 136.444 89.0213 136.406C89.0925 136.368 89.1543 136.314 89.2025 136.25C89.2507 136.185 89.284 136.11 89.3001 136.031C89.3161 135.952 89.3145 135.871 89.2954 135.792C89.0761 134.749 86.1991 135.841 85.7783 133.823C85.5691 132.82 86.1981 131.836 87.5873 131.52Z" fill="#84EDDB"/>
<path d="M82.9029 134.962L82.8101 132.243L84.3034 132.191L84.5195 138.342L83.0263 138.393L82.9401 135.71L80.9842 138.482L79.2236 138.543L81.5025 135.445L78.9209 132.396L80.756 132.334L82.9029 134.962Z" fill="#84EDDB"/>
<path d="M77.3755 138.334L75.8868 138.183L76.4728 132.058L77.9615 132.209L77.3755 138.334Z" fill="#84EDDB"/>
<path d="M68.3632 136.704L69.7826 130.717L71.2414 131.056L72.8081 135.332L73.6797 131.636L75.1362 131.963L73.7202 137.954L72.2581 137.61L70.6835 133.306L69.8065 137.013L68.3632 136.704Z" fill="#84EDDB"/>
</g>
<defs>
<clipPath id="clip0_1828_11019">
<rect width="41.1748" height="20.5468" fill="white" transform="matrix(0.898627 -0.438713 0.438184 0.898885 61.0364 98.7896)"/>
</clipPath>
<clipPath id="clip1_1828_11019">
<rect width="54.8125" height="28.0514" fill="white" transform="translate(44.1107 64.2573) rotate(-5.47141)"/>
</clipPath>
<clipPath id="clip2_1828_11019">
<rect width="54.8189" height="21.0378" fill="white" transform="translate(65.9993 133.58) rotate(-37.1179)"/>
</clipPath>
</defs>
</svg>
