<svg width="60" height="60" viewBox="0 0 60 60" fill="none" xmlns="http://www.w3.org/2000/svg">
<circle cx="30" cy="30" r="30" fill="#444444"/>
<path d="M7.01034 17.592V18.396C7.01034 19.992 5.63034 21.756 3.12234 22.188L3.80634 23.508C6.68634 22.944 8.40234 20.808 8.40234 18.396V17.592H7.01034ZM7.33434 17.592V18.396C7.33434 20.844 9.03834 22.944 11.9183 23.508L12.6023 22.188C10.0823 21.756 8.71434 20.028 8.71434 18.396V17.592H7.33434ZM2.89434 25.416V26.712H12.9503V25.416H2.89434ZM18.2174 17.748V18.408C18.2174 20.448 17.2814 21.996 14.1014 22.956L14.7014 24.204C18.5054 23.016 19.8494 20.904 19.8494 17.748H18.2174ZM14.6654 17.748V19.02H19.1534V17.748H14.6654ZM18.2894 19.944L14.1014 20.076L14.3294 21.324L18.2894 21.024V19.944ZM21.5534 16.968V25.044H23.1614V16.968H21.5534ZM15.7574 26.628V27.9H23.4374V26.628H15.7574ZM15.7574 24.396V27.372H17.3534V24.396H15.7574ZM32.9165 16.956V25.224H34.4285V16.956H32.9165ZM29.3285 19.932V21.216H31.0925V19.932H29.3285ZM30.6845 17.136V24.888H32.1845V17.136H30.6845ZM26.9525 26.604V27.876H34.7165V26.604H26.9525ZM26.9525 24.252V27.348H28.5485V24.252H26.9525ZM25.3445 18.024V23.28H29.7485V18.024H25.3445ZM28.2605 19.248V22.056H26.8325V19.248H28.2605ZM37.1875 22.452V23.712H44.9995V22.452H37.1875ZM36.0115 25.56V26.844H46.0675V25.56H36.0115ZM40.2355 23.088V26.124H41.8315V23.088H40.2355ZM37.1875 17.712V22.932H38.8075V18.984H44.9035V17.712H37.1875ZM38.3155 20.064V21.312H44.6515V20.064H38.3155ZM54.6706 16.968V23.7H56.2786V16.968H54.6706ZM47.6146 21.972V23.256H48.5866C50.8066 23.256 52.2826 23.22 53.9386 22.932L53.7586 21.66C52.1506 21.924 50.7466 21.972 48.5866 21.972H47.6146ZM47.6026 17.616V18.888H51.1426V19.812H47.6146V22.692H49.1866V21H52.7146V17.616H47.6026ZM52.5346 23.904C50.1826 23.904 48.7426 24.66 48.7426 25.992C48.7426 27.312 50.1826 28.08 52.5346 28.08C54.8866 28.08 56.3506 27.312 56.3506 25.992C56.3506 24.66 54.8866 23.904 52.5346 23.904ZM52.5346 25.14C53.9986 25.14 54.7546 25.404 54.7546 25.992C54.7546 26.568 53.9986 26.844 52.5346 26.844C51.0826 26.844 50.3266 26.568 50.3266 25.992C50.3266 25.404 51.0826 25.14 52.5346 25.14ZM11.1139 33.808V35.428C11.1139 37.588 10.2019 39.724 8.26988 40.564L9.21788 41.884C11.4259 40.864 12.4099 38.284 12.4099 35.428V33.808H11.1139ZM11.4259 33.808V35.428C11.4259 38.164 12.4099 40.636 14.5579 41.62L15.4939 40.336C13.5979 39.52 12.7219 37.48 12.7219 35.428V33.808H11.4259ZM16.0219 32.944V44.092H17.6299V32.944H16.0219ZM21.9129 34.096V34.792C21.9129 36.184 21.1329 37.624 19.2729 38.224L20.1009 39.46C22.2249 38.776 23.2209 36.892 23.2209 34.792V34.096H21.9129ZM22.2369 34.096V34.792C22.2369 36.784 23.1969 38.596 25.2729 39.268L26.0889 38.032C24.2889 37.456 23.5329 36.1 23.5329 34.792V34.096H22.2369ZM19.7049 33.604V34.876H25.7049V33.604H19.7049ZM26.5929 32.956V39.652H28.1889V32.956H26.5929ZM27.7449 35.644V36.952H29.6649V35.644H27.7449ZM20.7729 40.132V41.416H26.5929V44.068H28.1889V40.132H20.7729ZM37.608 32.956V44.068H39.192V32.956H37.608ZM38.832 37.288V38.62H40.8V37.288H38.832ZM30.432 34.6V35.872H36.9V34.6H30.432ZM33.684 36.496C32.064 36.496 30.864 37.6 30.864 39.148C30.864 40.696 32.064 41.8 33.684 41.8C35.304 41.8 36.504 40.696 36.504 39.148C36.504 37.6 35.304 36.496 33.684 36.496ZM33.684 37.792C34.44 37.792 34.98 38.296 34.98 39.148C34.98 40 34.44 40.504 33.684 40.504C32.928 40.504 32.388 40 32.388 39.148C32.388 38.296 32.928 37.792 33.684 37.792ZM32.88 33.136V35.08H34.476V33.136H32.88ZM49.1751 32.956V44.068H50.7831V32.956H49.1751ZM45.8991 34.108V34.396C45.8991 37.372 44.7471 39.388 41.5551 40.924L42.3831 42.196C46.3311 40.288 47.4831 37.504 47.4831 34.108H45.8991ZM42.1431 34.108V35.368H46.6551V34.108H42.1431Z" fill="white"/>
</svg>
