<svg width="60" height="60" viewBox="0 0 60 60" fill="none" xmlns="http://www.w3.org/2000/svg">
<circle cx="30" cy="30" r="30" fill="#444444"/>
<path d="M11.4819 17.532V18.528C11.4819 20.052 10.7019 21.552 8.80588 22.164L9.63388 23.448C11.8179 22.716 12.8139 20.76 12.8139 18.528V17.532H11.4819ZM11.8179 17.532V18.456C11.8179 20.616 12.7059 22.404 14.7579 23.112L15.5859 21.864C13.8219 21.3 13.1019 19.932 13.1019 18.456V17.532H11.8179ZM16.6059 16.956V23.46H18.2019V16.956H16.6059ZM14.4339 23.748C12.0819 23.748 10.6299 24.552 10.6299 25.908C10.6299 27.276 12.0819 28.068 14.4339 28.068C16.7859 28.068 18.2379 27.276 18.2379 25.908C18.2379 24.552 16.7859 23.748 14.4339 23.748ZM14.4339 24.984C15.8859 24.984 16.6539 25.284 16.6539 25.908C16.6539 26.532 15.8859 26.844 14.4339 26.844C12.9939 26.844 12.2259 26.532 12.2259 25.908C12.2259 25.284 12.9939 24.984 14.4339 24.984ZM14.5779 18.972V20.268H16.8339V18.972H14.5779ZM19.9409 22.644V23.904H29.9969V22.644H19.9409ZM24.2969 23.316V25.656H25.9049V23.316H24.2969ZM21.1049 26.604V27.876H28.8929V26.604H21.1049ZM21.1049 24.816V27.144H22.6889V24.816H21.1049ZM21.2249 17.304V21.876H28.7129V17.304H27.1289V18.444H22.7969V17.304H21.2249ZM22.7969 19.644H27.1289V20.628H22.7969V19.644ZM30.98 22.644V23.904H41.036V22.644H30.98ZM35.336 23.316V25.656H36.944V23.316H35.336ZM32.144 26.604V27.876H39.932V26.604H32.144ZM32.144 24.816V27.144H33.728V24.816H32.144ZM32.264 17.304V21.876H39.752V17.304H38.168V18.444H33.836V17.304H32.264ZM33.836 19.644H38.168V20.628H33.836V19.644ZM47.6951 19.02V20.316H49.9511V19.02H47.6951ZM44.5631 17.532V18.576C44.5631 20.076 43.8071 21.54 41.9471 22.152L42.7871 23.412C44.8991 22.68 45.8711 20.772 45.8711 18.576V17.532H44.5631ZM44.8871 17.532V18.672C44.8871 20.724 45.8111 22.524 47.8271 23.22L48.6551 21.972C46.9151 21.408 46.1711 20.052 46.1711 18.672V17.532H44.8871ZM43.7471 24.072V25.332H49.7231V28.068H51.3191V24.072H43.7471ZM49.7231 16.956V23.568H51.3191V16.956H49.7231ZM11.6139 33.808V35.428C11.6139 37.588 10.7019 39.724 8.76988 40.564L9.71788 41.884C11.9259 40.864 12.9099 38.284 12.9099 35.428V33.808H11.6139ZM11.9259 33.808V35.428C11.9259 38.164 12.9099 40.636 15.0579 41.62L15.9939 40.336C14.0979 39.52 13.2219 37.48 13.2219 35.428V33.808H11.9259ZM16.5219 32.944V44.092H18.1299V32.944H16.5219ZM22.4129 34.096V34.792C22.4129 36.184 21.6329 37.624 19.7729 38.224L20.6009 39.46C22.7249 38.776 23.7209 36.892 23.7209 34.792V34.096H22.4129ZM22.7369 34.096V34.792C22.7369 36.784 23.6969 38.596 25.7729 39.268L26.5889 38.032C24.7889 37.456 24.0329 36.1 24.0329 34.792V34.096H22.7369ZM20.2049 33.604V34.876H26.2049V33.604H20.2049ZM27.0929 32.956V39.652H28.6889V32.956H27.0929ZM28.2449 35.644V36.952H30.1649V35.644H28.2449ZM21.2729 40.132V41.416H27.0929V44.068H28.6889V40.132H21.2729ZM38.108 32.956V44.068H39.692V32.956H38.108ZM39.332 37.288V38.62H41.3V37.288H39.332ZM30.932 34.6V35.872H37.4V34.6H30.932ZM34.184 36.496C32.564 36.496 31.364 37.6 31.364 39.148C31.364 40.696 32.564 41.8 34.184 41.8C35.804 41.8 37.004 40.696 37.004 39.148C37.004 37.6 35.804 36.496 34.184 36.496ZM34.184 37.792C34.94 37.792 35.48 38.296 35.48 39.148C35.48 40 34.94 40.504 34.184 40.504C33.428 40.504 32.888 40 32.888 39.148C32.888 38.296 33.428 37.792 34.184 37.792ZM33.38 33.136V35.08H34.976V33.136H33.38ZM49.6751 32.956V44.068H51.2831V32.956H49.6751ZM46.3991 34.108V34.396C46.3991 37.372 45.2471 39.388 42.0551 40.924L42.8831 42.196C46.8311 40.288 47.9831 37.504 47.9831 34.108H46.3991ZM42.6431 34.108V35.368H47.1551V34.108H42.6431Z" fill="white"/>
</svg>
