<svg width="42" height="40" viewBox="0 0 42 40" fill="none" xmlns="http://www.w3.org/2000/svg">
<mask id="mask0_2461_18731" style="mask-type:alpha" maskUnits="userSpaceOnUse" x="2" y="2" width="38" height="37">
<path d="M21.9779 33.273C21.3704 32.9325 20.6296 32.9325 20.0221 33.273L11.8051 37.8789C10.3161 38.7136 8.53315 37.4193 8.86542 35.745L10.7025 26.4879C10.8378 25.8063 10.6095 25.1033 10.0997 24.6311L3.17786 18.2213C1.92623 17.0623 2.60697 14.969 4.30093 14.7679L13.6584 13.6567C14.3494 13.5747 14.9481 13.1394 15.2392 12.5074L19.1834 3.94397C19.8978 2.39291 22.1022 2.39291 22.8166 3.94397L26.7608 12.5074C27.0519 13.1394 27.6506 13.5747 28.3416 13.6567L37.6991 14.7679C39.393 14.969 40.0738 17.0623 38.8221 18.2213L31.9003 24.6311C31.3905 25.1033 31.1622 25.8063 31.2975 26.4879L33.1346 35.745C33.4669 37.4193 31.6839 38.7136 30.1949 37.8789L21.9779 33.273Z" fill="#DDDDDD"/>
</mask>
<g mask="url(#mask0_2461_18731)">
<rect width="21" height="40" fill="#FFE665"/>
</g>
</svg>
