<svg width="24" height="24" viewBox="0 0 24 24" fill="none" xmlns="http://www.w3.org/2000/svg">
<path d="M16 8H17V7C17 4.23858 14.7614 2 12 2C9.23858 2 7 4.23858 7 7V8H8H16Z" stroke="#444444" stroke-width="2"/>
<path d="M20.7772 8H15.4141H8.5635H3.22281C2.72894 8 2.0461 8.16386 1.54873 8.69309C0.992176 9.2853 0.865296 10.1156 1.14229 11.0154L3.19034 18.6812C3.3469 19.5308 3.68392 20.3189 4.18402 20.919C4.69425 21.5313 5.4271 22 6.31682 22H17.6832C18.573 22 19.3053 21.5313 19.8162 20.9204C20.3179 20.3206 20.6579 19.5328 20.8201 18.684L22.8579 11.0147C23.1347 10.1152 23.0077 9.28515 22.4513 8.69309C21.9539 8.16386 21.2711 8 20.7772 8Z" stroke="#444444" stroke-width="2"/>
<path d="M8 18H16" stroke="#2FCAB0" stroke-width="2" stroke-linecap="round"/>
</svg>
