<svg width="32" height="32" viewBox="0 0 32 32" fill="none" xmlns="http://www.w3.org/2000/svg">
<circle r="16" transform="matrix(-1 0 0 1 16 16)" fill="#EEEEEE"/>
<path d="M9.95777 20.2H11.369V14.824H9.95777V20.2ZM10.6682 13.96C11.1482 13.96 11.4842 13.6528 11.4842 13.1824C11.4842 12.7216 11.1482 12.4144 10.6682 12.4144C10.1786 12.4144 9.84257 12.7216 9.84257 13.1824C9.84257 13.6528 10.1786 13.96 10.6682 13.96ZM15.1102 20.3344C15.7054 20.3344 16.3582 20.1328 16.8766 19.6816L16.3102 18.7504C16.0126 19 15.6478 19.1824 15.2638 19.1824C14.4958 19.1824 13.9294 18.5296 13.9294 17.512C13.9294 16.504 14.4862 15.8416 15.3118 15.8416C15.6094 15.8416 15.859 15.9664 16.1278 16.1968L16.7998 15.2848C16.4062 14.9488 15.8974 14.6896 15.235 14.6896C13.7758 14.6896 12.4894 15.7264 12.4894 17.512C12.4894 19.2976 13.6222 20.3344 15.1102 20.3344ZM19.7957 20.3344C21.1397 20.3344 22.3781 19.2976 22.3781 17.512C22.3781 15.7264 21.1397 14.6896 19.7957 14.6896C18.4517 14.6896 17.2133 15.7264 17.2133 17.512C17.2133 19.2976 18.4517 20.3344 19.7957 20.3344ZM19.7957 19.1824C19.0661 19.1824 18.6533 18.5296 18.6533 17.512C18.6533 16.504 19.0661 15.8416 19.7957 15.8416C20.5253 15.8416 20.9381 16.504 20.9381 17.512C20.9381 18.5296 20.5253 19.1824 19.7957 19.1824Z" fill="#BBBBBB"/>
</svg>
