<svg width="234" height="40" viewBox="0 0 234 40" fill="none" xmlns="http://www.w3.org/2000/svg">
<path d="M21.9779 33.273C21.3704 32.9325 20.6296 32.9325 20.0221 33.273L11.8051 37.8789C10.3161 38.7136 8.53315 37.4193 8.86542 35.745L10.7025 26.4879C10.8378 25.8063 10.6095 25.1033 10.0997 24.6311L3.17786 18.2213C1.92623 17.0623 2.60697 14.969 4.30093 14.7679L13.6584 13.6567C14.3494 13.5747 14.9481 13.1394 15.2392 12.5074L19.1834 3.94397C19.8978 2.39291 22.1022 2.39291 22.8166 3.94397L26.7608 12.5074C27.0519 13.1394 27.6506 13.5747 28.3416 13.6567L37.6991 14.7679C39.393 14.969 40.0738 17.0623 38.8221 18.2213L31.9003 24.6311C31.3905 25.1033 31.1622 25.8063 31.2975 26.4879L33.1346 35.745C33.4669 37.4193 31.6839 38.7136 30.1949 37.8789L21.9779 33.273Z" fill="#FFE665"/>
<path d="M69.9779 33.273C69.3704 32.9325 68.6296 32.9325 68.0221 33.273L59.8051 37.8789C58.3161 38.7136 56.5331 37.4193 56.8654 35.745L58.7025 26.4879C58.8378 25.8063 58.6095 25.1033 58.0997 24.6311L51.1779 18.2213C49.9262 17.0623 50.607 14.969 52.3009 14.7679L61.6584 13.6567C62.3494 13.5747 62.9481 13.1394 63.2392 12.5074L67.1834 3.94397C67.8978 2.39291 70.1022 2.39291 70.8166 3.94397L74.7608 12.5074C75.0519 13.1394 75.6506 13.5747 76.3416 13.6567L85.6991 14.7679C87.393 14.969 88.0738 17.0623 86.8221 18.2213L79.9003 24.6311C79.3905 25.1033 79.1622 25.8063 79.2975 26.4879L81.1346 35.745C81.4669 37.4193 79.6839 38.7136 78.1949 37.8789L69.9779 33.273Z" fill="#FFE665"/>
<path d="M117.978 33.273C117.37 32.9325 116.63 32.9325 116.022 33.273L107.805 37.8789C106.316 38.7136 104.533 37.4193 104.865 35.745L106.703 26.4879C106.838 25.8063 106.61 25.1033 106.1 24.6311L99.1779 18.2213C97.9262 17.0623 98.607 14.969 100.301 14.7679L109.658 13.6567C110.349 13.5747 110.948 13.1394 111.239 12.5074L115.183 3.94397C115.898 2.39291 118.102 2.39291 118.817 3.94397L122.761 12.5074C123.052 13.1394 123.651 13.5747 124.342 13.6567L133.699 14.7679C135.393 14.969 136.074 17.0623 134.822 18.2213L127.9 24.6311C127.39 25.1033 127.162 25.8063 127.297 26.4879L129.135 35.745C129.467 37.4193 127.684 38.7136 126.195 37.8789L117.978 33.273Z" fill="#FFE665"/>
<path d="M165.978 33.273C165.37 32.9325 164.63 32.9325 164.022 33.273L155.805 37.8789C154.316 38.7136 152.533 37.4193 152.865 35.745L154.703 26.4879C154.838 25.8063 154.61 25.1033 154.1 24.6311L147.178 18.2213C145.926 17.0623 146.607 14.969 148.301 14.7679L157.658 13.6567C158.349 13.5747 158.948 13.1394 159.239 12.5074L163.183 3.94397C163.898 2.39291 166.102 2.39291 166.817 3.94397L170.761 12.5074C171.052 13.1394 171.651 13.5747 172.342 13.6567L181.699 14.7679C183.393 14.969 184.074 17.0623 182.822 18.2213L175.9 24.6311C175.39 25.1033 175.162 25.8063 175.297 26.4879L177.135 35.745C177.467 37.4193 175.684 38.7136 174.195 37.8789L165.978 33.273Z" fill="#FFE665"/>
<path d="M165.978 33.273C165.37 32.9325 164.63 32.9325 164.022 33.273L155.805 37.8789C154.316 38.7136 152.533 37.4193 152.865 35.745L154.703 26.4879C154.838 25.8063 154.61 25.1033 154.1 24.6311L147.178 18.2213C145.926 17.0623 146.607 14.969 148.301 14.7679L157.658 13.6567C158.349 13.5747 158.948 13.1394 159.239 12.5074L163.183 3.94397C163.898 2.39291 166.102 2.39291 166.817 3.94397L170.761 12.5074C171.052 13.1394 171.651 13.5747 172.342 13.6567L181.699 14.7679C183.393 14.969 184.074 17.0623 182.822 18.2213L175.9 24.6311C175.39 25.1033 175.162 25.8063 175.297 26.4879L177.135 35.745C177.467 37.4193 175.684 38.7136 174.195 37.8789L165.978 33.273Z" fill="#FFE665"/>
<path d="M213.978 33.273C213.37 32.9325 212.63 32.9325 212.022 33.273L203.805 37.8789C202.316 38.7136 200.533 37.4193 200.865 35.745L202.703 26.4879C202.838 25.8063 202.61 25.1033 202.1 24.6311L195.178 18.2213C193.926 17.0623 194.607 14.969 196.301 14.7679L205.658 13.6567C206.349 13.5747 206.948 13.1394 207.239 12.5074L211.183 3.94397C211.898 2.39291 214.102 2.39291 214.817 3.94397L218.761 12.5074C219.052 13.1394 219.651 13.5747 220.342 13.6567L229.699 14.7679C231.393 14.969 232.074 17.0623 230.822 18.2213L223.9 24.6311C223.39 25.1033 223.162 25.8063 223.297 26.4879L225.135 35.745C225.467 37.4193 223.684 38.7136 222.195 37.8789L213.978 33.273Z" fill="#FFE665"/>
</svg>
